<?xml version="1.0" standalone="no"?>
<!DOCTYPE svg PUBLIC "-//W3C//DTD SVG 1.1//EN" "http://www.w3.org/Graphics/SVG/1.1/DTD/svg11.dtd" >
<svg xmlns="http://www.w3.org/2000/svg" xmlns:xlink="http://www.w3.org/1999/xlink" version="1.1">
<metadata>
Created by FontForge 20201107 at Fri Mar  7 09:05:11 2025
 By 
Copyright (c) 2013 by Thinkdust. All rights reserved.
</metadata>
<defs>
<font id="Nanami-Bold" horiz-adv-x="1228" >
  <font-face 
    font-family="Nanami"
    font-weight="700"
    font-stretch="normal"
    units-per-em="2048"
    panose-1="2 0 0 0 0 0 0 0 0 0"
    ascent="1536"
    descent="-512"
    x-height="1024"
    cap-height="1532"
    bbox="-139 -440 2490 2003"
    underline-thickness="102"
    underline-position="-204"
    unicode-range="U+0020-FB02"
  />
<missing-glyph horiz-adv-x="593" 
 />
    <glyph glyph-name=".notdef" horiz-adv-x="593" 
 />
    <glyph glyph-name=".null" horiz-adv-x="0" 
 />
    <glyph glyph-name="nonmarkingreturn" horiz-adv-x="682" 
 />
    <glyph glyph-name="space" unicode=" " horiz-adv-x="593" 
 />
    <glyph glyph-name="exclam" unicode="!" horiz-adv-x="462" 
d="M385 1513v-1183h-313v1183h313zM385 150q0 -63 -47 -110.5t-113 -47.5q-62 0 -108.5 48t-46.5 110q0 65 46.5 111t108.5 46q67 0 113.5 -45.5t46.5 -111.5z" />
    <glyph glyph-name="quotedbl" unicode="&#x22;" horiz-adv-x="843" 
d="M457 901v612h270v-612h-270zM98 901v612h269v-612h-269z" />
    <glyph glyph-name="numbersign" unicode="#" horiz-adv-x="1441" 
d="M385 631l27 176h-258v235h290l58 406h235l-57 -406h139l58 406h235l-55 -406h260v-235h-295l-25 -176h260v-234h-292l-58 -397h-231l51 397h-137l-58 -397h-233l53 397h-258v234h291zM649 807l-24 -176h137l24 176h-137z" />
    <glyph glyph-name="dollar" unicode="$" horiz-adv-x="1095" 
d="M92 336l295 49l16 -29q29 -47 127 -47q53 0 87 36.5t34 88.5q0 23 -3 42t-12 35t-15.5 27t-23.5 22.5t-26 17.5t-33 16t-33.5 13.5t-39.5 13.5q-163 52 -267 169t-104 275q0 174 85.5 290.5t238.5 151.5v189h268v-195q190 -66 250 -256l-291 -139l-20 47q-10 21 -39 32
t-58 11q-43 0 -74.5 -36.5t-31.5 -82.5q0 -30 14.5 -54.5t43 -43.5t50.5 -30t58 -25l26 -11q130 -58 206 -119t116.5 -149t40.5 -211q0 -145 -82.5 -263t-208.5 -163v-188h-268v178q-141 27 -233.5 113t-92.5 225z" />
    <glyph glyph-name="percent" unicode="%" horiz-adv-x="1873" 
d="M612 -31l-153 94l749 1465l160 -80q-368 -718 -652 -1278q-100 -197 -104 -201zM1217 375q0 -55 39.5 -95t95.5 -40q57 0 96 39.5t39 95.5t-39 95.5t-96 39.5q-56 0 -95.5 -40t-39.5 -95zM977 375q0 155 110 265t265 110t264.5 -110t109.5 -265t-109.5 -265t-264.5 -110
t-265 110t-110 265zM344 1137q0 -56 39 -94.5t96 -38.5q56 0 95.5 39t39.5 94q0 57 -39.5 96t-95.5 39q-57 0 -96 -39t-39 -96zM104 1137q0 155 110 265.5t265 110.5t265 -110.5t110 -265.5t-110 -265t-265 -110t-265 110t-110 265z" />
    <glyph glyph-name="ampersand" unicode="&#x26;" horiz-adv-x="1480" 
d="M1012 1032l272 -135q-128 -240 -178 -338l-25 -49l320 -293l-201 -227l-211 192l-51 47q-60 -115 -166.5 -180t-234.5 -65q-130 0 -239.5 61.5t-173 168.5t-63.5 235q0 251 234 413q-131 116 -131 295q0 151 115 261t270 110q153 0 261 -109t108 -262q0 -186 -181 -323
q19 -19 56.5 -53.5t58.5 -55.5zM362 455q0 -70 49.5 -120t120.5 -50q26 0 51 13.5t40.5 27t35.5 43t25.5 38.5t20.5 37l-84 84l-136 121q-53 -33 -88 -83t-35 -111zM465 1147q0 -27 18.5 -57.5t35.5 -47t20 -16.5q1 1 20.5 19t28.5 28.5t19.5 31.5t10.5 42q0 31 -22 53.5
t-53 22.5q-32 0 -55 -22.5t-23 -53.5z" />
    <glyph glyph-name="quotesingle" unicode="'" horiz-adv-x="462" 
d="M92 901v612h268v-612h-268z" />
    <glyph glyph-name="parenleft" unicode="(" horiz-adv-x="702" 
d="M92 354v717q0 328 264 531l207 -226q-93 -93 -119 -166t-26 -206v-582q0 -134 26 -207t119 -166l-207 -227q-264 203 -264 532z" />
    <glyph glyph-name="parenright" unicode=")" horiz-adv-x="702" 
d="M594 1071v-717q0 -325 -262 -532l-209 227q93 93 119 166t26 207v582q0 133 -26 206t-119 166l209 226q262 -207 262 -531z" />
    <glyph glyph-name="asterisk" unicode="*" horiz-adv-x="903" 
d="M66 926v274l262 -92l-248 123l190 190l125 -247l-90 264h275l-93 -262l123 247l191 -192l-250 -123l266 90v-274l-264 92l248 -123l-189 -188l-127 247l93 -266h-275l92 264l-123 -248l-190 189l248 127z" />
    <glyph glyph-name="plus" unicode="+" 
d="M465 657v369h270v-369h375v-270h-375v-371h-270v371h-377v270h377z" />
    <glyph glyph-name="comma" unicode="," horiz-adv-x="460" 
d="M66 231l268 54l37 -414l-197 -23z" />
    <glyph glyph-name="hyphen" unicode="-" horiz-adv-x="878" 
d="M96 719h666v-270h-666v270z" />
    <glyph glyph-name="period" unicode="." horiz-adv-x="464" 
d="M90 125q0 56 40 99.5t101 43.5q56 0 95 -43.5t39 -99.5t-38.5 -94.5t-95.5 -38.5q-62 0 -101.5 38.5t-39.5 94.5z" />
    <glyph glyph-name="slash" unicode="/" horiz-adv-x="735" 
d="M225 -16l-168 20l437 1526l163 -37z" />
    <glyph glyph-name="zero" unicode="0" 
d="M1122 1006v-500q0 -136 -69.5 -256.5t-190.5 -193t-262 -72.5t-262 72.5t-190.5 193t-69.5 256.5v500q0 138 69.5 258t190.5 192t262 72t262 -72t190.5 -192t69.5 -258zM403 1004v-494q0 -78 59 -137.5t138 -59.5q81 0 139 59t58 138v494q0 78 -58 137t-139 59
q-79 0 -138 -59.5t-59 -136.5z" />
    <glyph glyph-name="one" unicode="1" 
d="M285 1204v312h559v-1516h-326v1204h-233z" />
    <glyph glyph-name="two" unicode="2" 
d="M139 0l2 270l475 508q98 101 133 159.5t35 117.5q0 71 -41.5 109t-111.5 38q-72 0 -134.5 -39t-105.5 -94l-213 223q91 111 211 173.5t262 62.5q194 0 329.5 -133.5t135.5 -329.5q0 -234 -237 -463l-281 -283h520v-319h-979z" />
    <glyph glyph-name="three" unicode="3" 
d="M348 1116l-145 262q174 164 383 164q179 0 291 -115t112 -272q0 -164 -123 -281q230 -144 230 -409q0 -140 -68 -250.5t-181.5 -169.5t-250.5 -59q-261 0 -453 219l164 274q146 -162 264 -162q92 0 146.5 50t54.5 129q0 65 -71.5 125.5t-165.5 64.5l-123 6v252l55 6
q94 10 149.5 53.5t55.5 104.5q0 51 -34 83t-89 32q-89 0 -201 -107z" />
    <glyph glyph-name="four" unicode="4" 
d="M80 236v305l299 477q287 471 309 493h322v-954h135v-330h-135v-227h-328v236h-602zM444 543h238q0 360 2 415z" />
    <glyph glyph-name="five" unicode="5" 
d="M270 1513h736v-323h-514l-29 -143q55 12 121 12q146 0 269.5 -72t195 -195.5t71.5 -269.5t-71.5 -270t-195 -196t-269.5 -72q-158 0 -290.5 86t-201.5 233l293 135q29 -60 82.5 -94.5t116.5 -34.5q91 0 151 60.5t60 152.5q0 91 -60 151t-151 60q-89 0 -181 -49
q-19 -10 -77 -47l-193 188z" />
    <glyph glyph-name="six" unicode="6" 
d="M57 528q0 152 74 273l467 745l276 -174l-210 -328q206 -25 342.5 -167.5t136.5 -348.5q0 -111 -42.5 -211.5t-115 -173.5t-173 -116t-212.5 -43t-212.5 43t-173 116t-115 173.5t-42.5 211.5zM383 528q0 -94 61.5 -155.5t155.5 -61.5q93 0 155 62t62 155q0 92 -62.5 154.5
t-154.5 62.5q-93 0 -155 -62t-62 -155z" />
    <glyph glyph-name="seven" unicode="7" 
d="M154 1192v321h901v-221l-555 -1323l-299 131q157 354 263.5 609.5t149.5 366.5t45 116h-505z" />
    <glyph glyph-name="eight" unicode="8" 
d="M164 1090q0 181 128.5 308.5t307.5 127.5t307.5 -127.5t128.5 -308.5q0 -112 -106 -246q76 -68 126 -160.5t50 -194.5q0 -138 -68 -255t-184.5 -184.5t-253.5 -67.5t-253.5 67.5t-184.5 184.5t-68 255q0 95 50.5 188.5t123.5 166.5q-104 131 -104 246zM418 489
q0 -75 53.5 -128.5t128.5 -53.5t127.5 53.5t52.5 128.5q0 74 -52.5 126.5t-127.5 52.5t-128.5 -52.5t-53.5 -126.5zM487 1090q0 -44 34.5 -78.5t78.5 -34.5q47 0 80 34t33 79q0 47 -33 79.5t-80 32.5q-45 0 -79 -33t-34 -79z" />
    <glyph glyph-name="nine" unicode="9" 
d="M1143 979q0 -153 -74 -274l-467 -736l-276 176l211 314q-209 30 -344.5 171t-135.5 349q0 149 72 274t197 197t274 72t274 -72t197 -197t72 -274zM817 979q0 94 -61.5 155.5t-155.5 61.5q-93 0 -155 -62t-62 -155q0 -92 62.5 -154.5t154.5 -62.5q93 0 155 62t62 155z" />
    <glyph glyph-name="colon" unicode=":" horiz-adv-x="468" 
d="M92 125q0 56 40 99.5t101 43.5q56 0 95 -43.5t39 -99.5t-38.5 -94.5t-95.5 -38.5q-62 0 -101.5 38.5t-39.5 94.5zM92 811q0 63 39 103t102 40q57 0 95.5 -40.5t38.5 -102.5q0 -56 -38.5 -94.5t-95.5 -38.5q-62 0 -101.5 38.5t-39.5 94.5z" />
    <glyph glyph-name="semicolon" unicode=";" horiz-adv-x="462" 
d="M88 815q0 60 38.5 100.5t92.5 40.5q61 0 101 -40.5t40 -100.5q0 -55 -40 -94t-101 -39q-54 0 -92.5 39.5t-38.5 93.5zM66 231l268 54l37 -414l-197 -23z" />
    <glyph glyph-name="less" unicode="&#x3c;" horiz-adv-x="1372" 
d="M104 418v198l1080 447v-225l-774 -330q64 -21 772 -313v-224z" />
    <glyph glyph-name="equal" unicode="=" horiz-adv-x="1169" 
d="M100 496h940v-269h-940v269zM100 825h940v-270h-940v270z" />
    <glyph glyph-name="greater" unicode="&#x3e;" horiz-adv-x="1370" 
d="M1184 616v-198l-1080 -447v224q660 274 773 311l-775 332v225z" />
    <glyph glyph-name="question" unicode="?" horiz-adv-x="921" 
d="M559 150q-2 -64 -47 -111t-111 -47q-61 0 -109 48t-48 110q0 65 47 111t110 46q66 0 112 -45.5t46 -111.5zM563 338l-321 -2q-13 39 -21 80q-20 98 -20 188q0 60 17 114.5t44 96t59.5 78.5t65.5 68.5t60 59.5t44 58t17 58q0 69 -59 69q-54 0 -138 -76q-24 -22 -73 -75
l-207 209q54 67 127 131q161 133 301 133q178 0 280.5 -96t102.5 -283q0 -79 -18 -142t-46.5 -104t-63 -75t-69 -62.5t-63 -57t-46.5 -67t-18 -86.5q0 -78 23 -145q11 -48 22 -72z" />
    <glyph glyph-name="at" unicode="@" horiz-adv-x="1863" 
d="M1014 676l35 139q6 24 6 51q0 60 -35 91.5t-86 31.5q-96 0 -165 -102.5t-69 -243.5q0 -74 31 -115t90 -41q62 0 116 52t77 137zM1219 334q-159 0 -195 110q-98 -110 -240 -110q-140 0 -215 80.5t-75 228.5q0 213 122.5 354.5t296.5 141.5q80 0 129 -21t80 -74l33 68h180
l-131 -522q-10 -23 -10 -43q0 -18 14 -30.5t39 -12.5q71 0 136 58.5t104 152.5t39 194q0 196 -147.5 315t-397.5 119q-183 0 -340 -84t-251.5 -234t-94.5 -331q0 -150 82 -271t223.5 -188t312.5 -67q319 0 529 149l82 -114q-281 -219 -600 -219q-126 0 -245.5 29.5t-224 90
t-182.5 145.5t-123 203.5t-45 256.5q0 174 71 327t191 260.5t283 169.5t342 62q108 0 211.5 -24.5t196.5 -76t163.5 -123.5t112 -174t41.5 -221q0 -105 -36.5 -207.5t-100 -184.5t-158 -132.5t-202.5 -50.5z" />
    <glyph glyph-name="A" unicode="A" horiz-adv-x="1536" 
d="M1491 0h-352l-121 276h-529l-114 -276h-355l611 1532h248zM756 948l-146 -360h285z" />
    <glyph glyph-name="B" unicode="B" horiz-adv-x="1169" 
d="M582 0h-484v1532h459q8 0 10 -2q173 -17 288.5 -137t115.5 -287q0 -143 -78 -256q76 -70 120 -164t44 -201q0 -130 -63 -240.5t-172 -176t-240 -68.5zM571 662h-141v-332h141q65 0 110.5 50t45.5 118q0 67 -45.5 115.5t-110.5 48.5zM651 1081q0 50 -35 85.5t-88 35.5h-98
v-250h109q50 4 81 41t31 88z" />
    <glyph glyph-name="C" unicode="C" horiz-adv-x="1460" 
d="M1382 1364l-200 -260q-140 112 -301 115q-193 -8 -324 -136.5t-131 -316.5q0 -122 59 -225t164 -164t232 -62q160 0 301 115l200 -262q-13 -13 -34.5 -30t-69.5 -46t-102 -51.5t-134 -39.5t-163 -17q-160 0 -305 61.5t-249.5 166t-166.5 249.5t-62 305t62 305
t166.5 249.5t249.5 166t305 61.5q103 0 197 -23.5t157.5 -59t96.5 -59t52 -42.5z" />
    <glyph glyph-name="D" unicode="D" horiz-adv-x="1503" 
d="M102 0v1532h510q157 0 299.5 -61t245.5 -164t164 -244.5t61 -296.5t-61 -296.5t-164 -244.5t-245.5 -164t-299.5 -61h-510zM625 1202h-193v-872h180q193 0 317 121.5t124 314.5q0 194 -118 315t-310 121z" />
    <glyph glyph-name="E" unicode="E" horiz-adv-x="1079" 
d="M961 604h-533v-274h533v-330h-863v1532h863v-330h-533v-268h533v-330z" />
    <glyph glyph-name="F" unicode="F" horiz-adv-x="1064" 
d="M98 0v1532h865v-330h-535v-268h535v-330h-535v-604h-330z" />
    <glyph glyph-name="G" unicode="G" horiz-adv-x="1638" 
d="M1513 838l3 -521q-37 -62 -87.5 -115.5t-126 -105t-184.5 -82t-237 -30.5q-160 0 -305 61.5t-249.5 166t-166.5 249.5t-62 305t62 305t166.5 249.5t249.5 166t305 61.5q84 0 164.5 -17.5t132.5 -38t103 -52t68 -45.5t37 -31l-202 -260q-141 115 -303 115
q-185 0 -318 -133t-133 -320q0 -121 61 -225t165 -165t225 -61q102 0 180 31t113 80v100h-338v312h677z" />
    <glyph glyph-name="H" unicode="H" horiz-adv-x="1343" 
d="M430 1532v-598h461v598h330v-1532h-330v604h-461v-604h-330v1532h330z" />
    <glyph glyph-name="I" unicode="I" horiz-adv-x="526" 
d="M94 1532h330v-1532h-330v1532z" />
    <glyph glyph-name="J" unicode="J" horiz-adv-x="964" 
d="M47 219l295 174q10 -39 34.5 -59.5t55.5 -20.5q41 0 70.5 31t29.5 74v1114h330v-1114q0 -181 -125.5 -307.5t-304.5 -126.5q-121 0 -223 63t-162 172z" />
    <glyph glyph-name="K" unicode="K" horiz-adv-x="1193" 
d="M100 0v1532h330q0 -540 -8 -606l379 606h377l-469 -768l477 -764h-387l-369 657v-657h-330z" />
    <glyph glyph-name="L" unicode="L" horiz-adv-x="1024" 
d="M428 330h498v-330h-828v1534h330v-1204z" />
    <glyph glyph-name="M" unicode="M" horiz-adv-x="1789" 
d="M879 541l362 991h418v-1532h-328v983q-23 -162 -330 -983h-247l-312 874v-874h-338v1532h412z" />
    <glyph glyph-name="N" unicode="N" horiz-adv-x="1456" 
d="M100 1532h303l615 -885v883h313v-1530h-301l-616 887v-887h-314v1532z" />
    <glyph glyph-name="O" unicode="O" horiz-adv-x="1794" 
d="M100 766q0 160 62 305t166.5 249.5t249.5 166t305 61.5q159 0 304 -61.5t249.5 -166t166.5 -249.5t62 -305t-62 -305t-166.5 -249.5t-249.5 -166t-304 -61.5q-160 0 -305 61.5t-249.5 166t-166.5 249.5t-62 305zM430 766q0 -121 61 -225t165.5 -165t226.5 -61
q124 0 227.5 61t163 165t59.5 225q0 188 -131 320.5t-319 132.5q-186 0 -319.5 -133t-133.5 -320z" />
    <glyph glyph-name="P" unicode="P" horiz-adv-x="1138" 
d="M100 0v1532h480q199 0 326.5 -134t127.5 -335t-128 -340t-326 -139h-150v-584h-330zM580 1202h-150v-287h150q64 0 94.5 47.5t30.5 100.5q0 50 -30.5 94.5t-94.5 44.5z" />
    <glyph glyph-name="Q" unicode="Q" horiz-adv-x="1794" 
d="M100 766q0 160 62 305t166.5 249.5t249.5 166t305 61.5q159 0 304 -61.5t249.5 -166t166.5 -249.5t62 -305q0 -253 -154 -463l119 -110l-235 -213q-23 0 -129 106q-181 -102 -383 -102q-160 0 -305 61.5t-249.5 166t-166.5 249.5t-62 305zM430 766q0 -121 61 -225
t165.5 -165t226.5 -61q70 0 141 23l-76 76l-43 45l232 223l135 -139q61 96 61 223q0 188 -131 320.5t-319 132.5q-186 0 -319.5 -133t-133.5 -320z" />
    <glyph glyph-name="R" unicode="R" horiz-adv-x="1208" 
d="M815 0l-344 598h-41v-598h-332v1532h502q134 0 243 -64t169.5 -173.5t60.5 -241.5q0 -289 -246 -418l365 -635h-377zM600 1202h-170v-301h170q69 0 105 45t36 107q0 59 -36.5 104t-104.5 45z" />
    <glyph glyph-name="S" unicode="S" horiz-adv-x="1103" 
d="M88 334l266 115q74 -136 185 -136q53 0 88 37.5t35 89.5q0 44 -12 74t-39 50t-53.5 32t-71.5 28q-10 3 -15 5q-165 52 -270 170.5t-105 279.5q0 211 124 338t333 127q124 0 239 -75t158 -207l-295 -142q-48 92 -118 92q-44 0 -77.5 -36.5t-33.5 -83.5q0 -30 15.5 -55.5
t44 -44.5t53 -31t57.5 -25l27 -10q131 -57 209 -119.5t118.5 -152t40.5 -214.5q0 -191 -128 -323.5t-314 -132.5h-17q-223 0 -354 174q-61 79 -90 176z" />
    <glyph glyph-name="T" unicode="T" horiz-adv-x="1193" 
d="M420 0v1202h-330v330h993v-328h-333v-1204h-330z" />
    <glyph glyph-name="U" unicode="U" horiz-adv-x="1243" 
d="M98 446v1084h330v-1045q0 -71 59 -117t129 -46q73 0 126 45t53 110v1053h329v-1084q0 -130 -73 -236t-189 -163t-246 -57q-132 0 -250.5 57t-193 163t-74.5 236z" />
    <glyph glyph-name="V" unicode="V" horiz-adv-x="1413" 
d="M1008 1532h356l-547 -1532h-248l-538 1532h354l307 -944z" />
    <glyph glyph-name="W" unicode="W" horiz-adv-x="1912" 
d="M1403 0h-266q-70 268 -113 470.5t-53 277.5t-10 110l-220 -858h-262l-411 1532h346q49 -192 93 -369.5t68 -274t35 -136.5l203 780h262q128 -492 189 -748l8 -30l196 778h349z" />
    <glyph glyph-name="X" unicode="X" horiz-adv-x="1347" 
d="M1333 1532l-477 -768l477 -764h-389l-280 455l-287 -455h-383l473 764q-2 0 -2 2v4l-469 764h385l283 -457l280 455h389z" />
    <glyph glyph-name="Y" unicode="Y" horiz-adv-x="1216" 
d="M6 1532h365l227 -569l229 567h361l-424 -977v-553h-330v553z" />
    <glyph glyph-name="Z" unicode="Z" horiz-adv-x="1200" 
d="M96 248l590 954h-590v330h983v-244l-587 -960q2 2 8 2h579v-330h-983v248z" />
    <glyph glyph-name="bracketleft" unicode="[" horiz-adv-x="727" 
d="M96 -287v1929h525v-282h-199v-1366h199v-281h-525z" />
    <glyph glyph-name="backslash" unicode="\" horiz-adv-x="737" 
d="M659 23l-161 -46l-439 1514l162 49z" />
    <glyph glyph-name="bracketright" unicode="]" horiz-adv-x="727" 
d="M616 1642v-1929h-520v281h197v1366h-197v282h520z" />
    <glyph glyph-name="asciicircum" unicode="^" horiz-adv-x="1146" 
d="M561 1155l-254 -465h-293l453 823h186l453 -823h-289z" />
    <glyph glyph-name="underscore" unicode="_" horiz-adv-x="1372" 
d="M-8 -78h1356v-186h-1356v186z" />
    <glyph glyph-name="grave" unicode="`" horiz-adv-x="694" 
d="M195 1552l407 -174l-145 -231l-377 153z" />
    <glyph glyph-name="a" unicode="a" horiz-adv-x="1202" 
d="M352 512q0 -92 62 -155.5t153 -63.5q93 0 155 63t62 156t-62 156t-155 63q-91 0 -153 -63.5t-62 -155.5zM41 512q0 107 41.5 204.5t112 168.5t168 113t204.5 42q133 0 242 -59v43h289v-1034h-267v65q-121 -71 -264 -71q-107 0 -204.5 42t-168 113t-112 168.5t-41.5 204.5
z" />
    <glyph glyph-name="b" unicode="b" horiz-adv-x="1232" 
d="M827 512q0 92 -63 155.5t-154 63.5q-92 0 -154.5 -63.5t-62.5 -155.5t62.5 -155.5t154.5 -63.5q91 0 154 63.5t63 155.5zM78 -6v1423h313v-426q104 49 219 49q142 0 264 -71t193.5 -193t71.5 -264t-71.5 -264t-193.5 -193t-264 -71q-135 0 -266 69v-59h-266z" />
    <glyph glyph-name="c" unicode="c" horiz-adv-x="1126" 
d="M588 1040q131 0 252 -72t194 -180l-229 -170l-43 37q-79 72 -170 72q-90 0 -152.5 -62.5t-62.5 -150.5q0 -91 62 -153t153 -62q58 0 106 32.5t97 100.5l274 -137q-75 -141 -203 -226t-278 -85q-145 0 -267.5 70.5t-193 192.5t-70.5 267q0 143 70.5 264t193 191.5
t267.5 70.5z" />
    <glyph glyph-name="d" unicode="d" horiz-adv-x="1241" 
d="M389 512q0 -92 63 -155.5t154 -63.5q92 0 154.5 63.5t62.5 155.5t-62.5 155.5t-154.5 63.5q-91 0 -154 -63.5t-63 -155.5zM1139 1415v-1421h-269v59q-127 -69 -264 -69q-106 0 -204 42t-169 113t-113 169t-42 204t42 204t113 169t169 113t204 42q115 0 219 -49v424h314z
" />
    <glyph glyph-name="e" unicode="e" horiz-adv-x="1091" 
d="M598 279q128 0 268 67l103 -246q-102 -68 -195 -92t-201 -24q-145 0 -267 70.5t-192.5 192.5t-70.5 267q0 143 70.5 263.5t191.5 190.5t264 70q92 0 169.5 -30.5t129.5 -80.5t88.5 -116.5t53 -138t16.5 -144.5q0 -63 -10 -122h-627q18 -59 72 -93t137 -34zM555 739
q-59 0 -103 -29.5t-61 -68.5h320q-5 39 -46.5 68.5t-109.5 29.5z" />
    <glyph glyph-name="f" unicode="f" horiz-adv-x="833" 
d="M178 1024v90q0 143 74.5 224t214.5 81h217v-278h-109q-44 0 -63.5 -14.5t-19.5 -53.5v-49h262v-285h-262v-739h-314v739h-133v285h133z" />
    <glyph glyph-name="g" unicode="g" horiz-adv-x="1245" 
d="M389 512q0 -92 63 -155.5t154 -63.5q92 0 154.5 63.5t62.5 155.5t-62.5 155.5t-154.5 63.5q-91 0 -154 -63.5t-63 -155.5zM190 -281l195 211q104 -84 197 -84q84 0 148.5 51.5t88.5 131.5q-105 -45 -213 -45q-106 0 -204 42t-169 113t-113 169t-42 204t42 204t113 169
t169 113t204 42q137 0 264 -69v59h269v-903q0 -152 -75 -282.5t-206 -207.5t-285 -77q-102 0 -203 42.5t-180 116.5z" />
    <glyph glyph-name="h" unicode="h" horiz-adv-x="1095" 
d="M389 1417v-401q70 24 146 24q218 0 338 -118.5t120 -337.5v-584h-313v580q0 61 -42.5 104t-102.5 43t-104 -43t-44 -104v-580h-309v1417h311z" />
    <glyph glyph-name="i" unicode="i" horiz-adv-x="462" 
d="M70 1217q0 62 46 108.5t111 46.5q61 0 109.5 -47.5t48.5 -107.5q0 -66 -47.5 -113t-110.5 -47q-66 0 -111.5 47t-45.5 113zM70 0v1024h313v-1024h-313z" />
    <glyph glyph-name="j" unicode="j" horiz-adv-x="462" 
d="M-31 -381v311h101v1094h313v-1155q0 -65 -21 -115t-56.5 -78.5t-75.5 -42.5t-83 -14h-178zM70 1217q0 62 46 108.5t111 46.5q60 0 108 -47.5t48 -107.5q0 -66 -47.5 -113t-108.5 -47q-66 0 -111.5 47t-45.5 113z" />
    <glyph glyph-name="k" unicode="k" horiz-adv-x="958" 
d="M389 1516v-844l221 352h344l-319 -510l326 -514h-353q-47 76 -97.5 156t-78.5 124.5t-43 69.5v-350h-313v1516h313z" />
    <glyph glyph-name="l" unicode="l" horiz-adv-x="462" 
d="M70 0v1415h313v-1415h-313z" />
    <glyph glyph-name="m" unicode="m" horiz-adv-x="1728" 
d="M82 0v1028h254v-39q77 51 205 51q179 0 303 -90q131 90 303 90q218 0 338.5 -118.5t120.5 -337.5v-584h-312v580q0 61 -43.5 104t-103.5 43q-58 0 -100 -39t-46 -98v-590h-313v580q0 62 -43 104.5t-104 42.5q-58 0 -100 -39t-46 -98v-590h-313z" />
    <glyph glyph-name="n" unicode="n" horiz-adv-x="1091" 
d="M76 0v1028h254v-39q75 51 205 51q218 0 338 -118.5t120 -337.5v-584h-313v580q0 61 -42.5 104t-102.5 43q-58 0 -101 -39t-47 -98v-590h-311z" />
    <glyph glyph-name="o" unicode="o" horiz-adv-x="1191" 
d="M373 514q0 -91 62 -153t153 -62q88 0 150.5 62.5t62.5 152.5q0 88 -62.5 150.5t-150.5 62.5q-90 0 -152.5 -62.5t-62.5 -150.5zM59 514q0 143 70 264t192 191.5t267 70.5q143 0 264 -70.5t191.5 -191.5t70.5 -264q0 -145 -70.5 -267t-191.5 -192.5t-264 -70.5
q-145 0 -267 70.5t-192 192.5t-70 267z" />
    <glyph glyph-name="p" unicode="p" horiz-adv-x="1230" 
d="M827 512q0 92 -63 155.5t-154 63.5q-92 0 -154.5 -63.5t-62.5 -155.5t62.5 -155.5t154.5 -63.5q91 0 154 63.5t63 155.5zM78 -401v1431h266v-59q131 69 266 69q142 0 264 -71t193.5 -193t71.5 -264t-71.5 -264t-193.5 -193t-264 -71q-115 0 -219 49v-434h-313z" />
    <glyph glyph-name="q" unicode="q" horiz-adv-x="1241" 
d="M389 512q0 -92 63 -155.5t154 -63.5q92 0 154.5 63.5t62.5 155.5t-62.5 155.5t-154.5 63.5q-91 0 -154 -63.5t-63 -155.5zM1139 1030v-1431h-314v434q-104 -49 -219 -49q-106 0 -204 42t-169 113t-113 169t-42 204t42 204t113 169t169 113t204 42q137 0 264 -69v59h269z
" />
    <glyph glyph-name="r" unicode="r" horiz-adv-x="757" 
d="M72 0v1028h254v-39q77 51 204 51h162v-315h-162q-60 0 -102.5 -38t-42.5 -95v-592h-313z" />
    <glyph glyph-name="s" unicode="s" horiz-adv-x="735" 
d="M37 229l213 129q9 -16 29 -36q37 -37 67 -37q11 0 21 10.5t10 23.5q0 25 -18 46t-46.5 37t-63 33t-69 41t-63 54.5t-46.5 79.5t-18 111q0 147 85 233t231 86q103 0 178.5 -73t116.5 -181l-224 -118q-11 37 -26 55t-39 18q-11 0 -20 -8.5t-9 -21.5q0 -20 24 -41t60 -38.5
t78 -47t78 -64.5t60 -93t24 -130q0 -131 -89 -222t-216 -91q-155 0 -254 122q-47 53 -74 123z" />
    <glyph glyph-name="t" unicode="t" horiz-adv-x="884" 
d="M283 1024v281h311v-281h225v-285h-225v-739h-311v739h-232v285h232z" />
    <glyph glyph-name="u" unicode="u" horiz-adv-x="1095" 
d="M993 1024v-1030h-254v41q-77 -51 -204 -51q-218 0 -338.5 118.5t-120.5 337.5v584h311v-580q0 -61 44 -104t104 -43q57 0 99 38.5t46 98.5v590h313z" />
    <glyph glyph-name="v" unicode="v" horiz-adv-x="978" 
d="M618 1024h336l-356 -1024h-238l-356 1024h334l141 -479z" />
    <glyph glyph-name="w" unicode="w" horiz-adv-x="1476" 
d="M1153 0h-260l-176 496q-21 -55 -62 -176.5t-72.5 -217t-35.5 -102.5h-262l-277 1024h330q119 -499 121 -508l139 506h244l145 -494q64 268 113 496h327z" />
    <glyph glyph-name="x" unicode="x" horiz-adv-x="1054" 
d="M1016 1024l-318 -512l328 -512h-379l-133 254l-131 -254h-377l326 512l-320 512h371l131 -252l131 252h371z" />
    <glyph glyph-name="y" unicode="y" horiz-adv-x="976" 
d="M948 1024l-485 -1430h-332l182 521v18l-309 891h336l139 -479l139 479h330z" />
    <glyph glyph-name="z" unicode="z" horiz-adv-x="874" 
d="M397 715h-334v309h730v-223l-340 -490h340v-311h-730v240z" />
    <glyph glyph-name="braceleft" unicode="{" horiz-adv-x="792" 
d="M94 573v232q102 7 147.5 64t45.5 175v248q0 73 5 121.5t20 94t41.5 72t71 47.5t108 29.5t151.5 8.5l2 -213q-90 -7 -118.5 -48.5t-28.5 -143.5v-252q0 -136 -34.5 -210t-129.5 -110q95 -39 129.5 -112.5t34.5 -208.5v-250q0 -103 28.5 -144.5t118.5 -48.5l-2 -213
q-88 0 -151.5 8.5t-108 29.5t-71 47.5t-41.5 72t-20 94t-5 121.5v248q0 117 -45 174t-148 67z" />
    <glyph glyph-name="bar" unicode="|" horiz-adv-x="466" 
d="M362 1513v-1513h-268v1513h268z" />
    <glyph glyph-name="braceright" unicode="}" horiz-adv-x="802" 
d="M686 805v-232q-102 -10 -147 -67t-45 -174v-248q0 -62 -3.5 -105.5t-13.5 -85.5t-28.5 -69t-48 -50.5t-72 -36t-99.5 -19.5t-133 -7l-2 213q91 7 119.5 48t28.5 145v250q0 136 33 209t128 112q-95 36 -128 109.5t-33 210.5v252q0 102 -28 143.5t-118 48.5v213
q76 0 133 -7t99.5 -19.5t72 -36t48 -50.5t28.5 -69t13.5 -85.5t3.5 -105.5v-248q0 -118 45 -175t147 -64z" />
    <glyph glyph-name="asciitilde" unicode="~" horiz-adv-x="1290" 
d="M96 319l2 295q1 0 29 11t55 20t66 19.5t82.5 17t83.5 6.5q77 0 232.5 -37t168.5 -37q84 0 225 45q53 18 121 46v-261q-37 -31 -138.5 -65.5t-213.5 -34.5q-58 0 -182 38t-207 38q-86 0 -215 -51q-45 -17 -109 -50z" />
    <glyph glyph-name="exclamdown" unicode="&#xa1;" horiz-adv-x="462" 
d="M385 1198v-1184h-313v1184h313zM385 1378q0 -66 -46.5 -111.5t-113.5 -45.5q-62 0 -108.5 46t-46.5 111q0 62 46.5 110t108.5 48q66 0 113 -47.5t47 -110.5z" />
    <glyph glyph-name="cent" unicode="&#xa2;" horiz-adv-x="1153" 
d="M696 1208v-182q104 -23 192.5 -86.5t145.5 -151.5l-225 -159l-31 30q-56 56 -82 70v-430q76 39 117 123l256 -127q-61 -117 -158.5 -195t-214.5 -104v-162h-268v172q-157 53 -264 197t-107 311q0 176 103 317t268 185v192h268zM348 514q0 -114 80 -182v364
q-80 -71 -80 -182z" />
    <glyph glyph-name="sterling" unicode="&#xa3;" horiz-adv-x="1327" 
d="M184 0v328h142q28 0 47.5 21.5t19.5 60.5v8q0 30 -37 100.5t-82 128.5h-174v281h88q-12 66 -12 110q0 211 139.5 350.5t350.5 139.5q229 0 393 -164l-242 -217q-53 53 -147 53q-71 0 -118.5 -43t-47.5 -104q0 -55 33 -125h409v-281h-293q68 -119 68 -213q0 -47 -2 -64.5
t-12 -39.5h41q149 0 149 125v37h303q0 -213 -143.5 -352.5t-360.5 -139.5h-512z" />
    <glyph glyph-name="currency" unicode="&#xa4;" horiz-adv-x="1443" 
d="M96 236l191 192q-78 122 -78 262q0 120 82 260l-199 195l154 153l196 -198q77 41 138 61.5t133 20.5q118 0 254 -80l194 194l152 -149l-193 -191q82 -137 82 -268q0 -124 -78 -260l193 -192l-150 -150l-190 190q-133 -83 -275 -83q-125 0 -266 83l-190 -190zM707 944
q-103 0 -177.5 -75.5t-74.5 -178.5t74.5 -177.5t177.5 -74.5q104 0 176.5 74.5t72.5 177.5q0 104 -73 179t-176 75z" />
    <glyph glyph-name="yen" unicode="&#xa5;" horiz-adv-x="1359" 
d="M1065 1092h168v-205h-256q-13 -30 -32 -71.5t-30 -65.5h318v-205h-404v-545h-327v545h-408v205h318l-60 137h-258v205h168l-180 421h358l224 -563l225 561h356z" />
    <glyph glyph-name="brokenbar" unicode="&#xa6;" horiz-adv-x="464" 
d="M94 -20v657h268v-657h-268zM94 889v663h268v-663h-268z" />
    <glyph glyph-name="section" unicode="&#xa7;" horiz-adv-x="1316" 
d="M631 1528q216 0 375 -144v-372q-49 55 -111 104q-128 107 -229 107q-49 0 -85 -31.5t-36 -79.5q0 -27 27.5 -52t73 -44.5t103.5 -43.5t118.5 -47t118.5 -57.5t103.5 -73.5t73 -96t27.5 -123q0 -114 -51 -196.5t-148 -155.5q39 -57 57.5 -100t18.5 -100q0 -118 -62 -206.5
t-159.5 -132.5t-214.5 -44q-287 0 -438 202q-69 90 -99 205h365q18 -31 37 -51q47 -51 100 -51q45 0 82 24.5t37 63.5q0 35 -28.5 62.5t-64.5 42t-98 39t-100 44.5q-54 19 -97.5 40.5t-87.5 54t-74 71t-48.5 92.5t-18.5 117q0 112 39.5 189.5t126.5 148.5q-45 51 -64.5 95
t-19.5 108q0 122 63.5 212.5t164.5 134.5t223 44zM524 520l238 -100q39 25 57.5 51.5t18.5 65.5q0 40 -33.5 68.5t-95.5 56.5l-203 81q-68 -54 -68 -114q0 -67 86 -109z" />
    <glyph glyph-name="dieresis" unicode="&#xa8;" horiz-adv-x="927" 
d="M500 1358q0 66 43.5 110.5t109.5 44.5t111 -44.5t45 -110.5t-45 -110t-111 -44t-109.5 44t-43.5 110zM96 1358q0 66 45 110.5t111 44.5t111 -44.5t45 -110.5t-45 -110t-111 -44t-111 44t-45 110z" />
    <glyph glyph-name="copyright" unicode="&#xa9;" horiz-adv-x="1710" 
d="M104 727q0 148 58.5 284t157 234t234 156.5t282.5 58.5q152 0 288 -58t232.5 -157t153.5 -234t57 -284q0 -148 -57 -283t-153.5 -233.5t-233 -156.5t-287.5 -58q-147 0 -282.5 58.5t-234 156.5t-157 233t-58.5 283zM258 727q0 -157 77.5 -290t210.5 -210t290 -77
q118 0 226 45.5t187.5 123t126.5 184.5t47 224q0 157 -79.5 290t-215 210.5t-292.5 77.5t-290 -77.5t-210.5 -210.5t-77.5 -290zM846 918q-77 0 -134 -56.5t-57 -130.5q0 -78 56.5 -135t134.5 -57q87 0 143 51l125 -154q-109 -96 -268 -96q-164 0 -277.5 113.5t-113.5 273.5
q0 164 113.5 277.5t277.5 113.5q152 0 268 -96l-125 -154q-55 50 -143 50z" />
    <glyph glyph-name="ordfeminine" unicode="&#xaa;" horiz-adv-x="860" 
d="M276 1102q0 -59 40 -99t98 -40q60 0 99.5 39.5t39.5 99.5t-39.5 99.5t-99.5 39.5q-58 0 -98 -40t-40 -99zM53 1102q0 149 106.5 255.5t254.5 106.5q83 0 155 -34v34h211v-719l-186 43q-83 -47 -180 -47q-148 0 -254.5 106.5t-106.5 254.5z" />
    <glyph glyph-name="guillemotleft" unicode="&#xab;" horiz-adv-x="1067" 
d="M756 106l-293 453l280 445l228 -162l-193 -283l185 -278zM369 106l-293 453l280 445l228 -162l-193 -283l184 -278z" />
    <glyph glyph-name="logicalnot" unicode="&#xac;" horiz-adv-x="1290" 
d="M86 866h1071v-714h-268v444h-803v270z" />
    <glyph glyph-name="registered" unicode="&#xae;" horiz-adv-x="1792" 
d="M104 756q0 155 61.5 297.5t165.5 246.5t246 166t297 62q159 0 303 -62t246.5 -166t163 -246.5t60.5 -297.5t-60.5 -297.5t-163 -246.5t-246.5 -166t-303 -62q-155 0 -297 62t-246 166t-165.5 246.5t-61.5 297.5zM264 756q0 -165 82 -306t222.5 -223t305.5 -82
q124 0 239 48.5t199 130.5t134.5 195.5t50.5 236.5q0 124 -50.5 237.5t-134.5 195.5t-199 130.5t-239 48.5q-165 0 -305.5 -82t-222.5 -223t-82 -307zM1221 295h-228q-61 102 -116.5 198t-59.5 103v-301h-196v919h284q131 0 206 -80.5t75 -203.5q0 -109 -50 -180.5
t-137 -90.5zM899 1032h-82v-211h82q40 0 63 32.5t23 76.5t-22.5 73t-63.5 29z" />
    <glyph glyph-name="macron" unicode="&#xaf;" horiz-adv-x="876" 
d="M96 1473h662v-269h-662v269z" />
    <glyph glyph-name="degree" unicode="&#xb0;" horiz-adv-x="884" 
d="M94 1124q0 140 98.5 239t239.5 99t239.5 -99t98.5 -239q0 -141 -98.5 -239.5t-239.5 -98.5t-239.5 98.5t-98.5 239.5zM274 1124q0 -66 46 -112.5t112 -46.5t112 46.5t46 112.5t-46 112t-112 46t-112 -46t-46 -112z" />
    <glyph glyph-name="plusminus" unicode="&#xb1;" horiz-adv-x="1306" 
d="M504 811v240h270v-240h406v-270h-406v-240h-270v240h-408v270h408zM96 281h1084v-269h-1084v269z" />
    <glyph glyph-name="twosuperior" unicode="&#xb2;" horiz-adv-x="735" 
d="M94 586l-2 237l350 322q16 13 25.5 34t9.5 40q0 38 -27 66t-65 28q-30 0 -57 -24.5t-41 -63.5l-201 71q36 102 117 167t182 65q129 0 219 -90t90 -219q0 -124 -100 -224q-23 -23 -111 -92t-135 -102h348v-215h-602z" />
    <glyph glyph-name="threesuperior" unicode="&#xb3;" horiz-adv-x="733" 
d="M207 1225l-86 172q36 61 93.5 97t125.5 36q102 0 174 -72t72 -174q0 -77 -49 -141q61 -43 96 -110.5t35 -145.5q0 -129 -92 -220.5t-222 -91.5q-119 0 -209 82t-90 211l199 25q10 -47 37.5 -74.5t64.5 -27.5q41 0 69 32.5t28 77.5q0 39 -28 71.5t-65 43.5l-98 26v164
l92 23q27 10 27 47q0 19 -12 31t-29 12q-31 0 -86 -47z" />
    <glyph glyph-name="acute" unicode="&#xb4;" horiz-adv-x="694" 
d="M78 1378l409 174l113 -252l-377 -153z" />
    <glyph glyph-name="mu" unicode="&#xb5;" horiz-adv-x="1191" 
d="M102 -426v1524h326v-621q0 -74 46 -116t112 -42t112.5 42t46.5 116v621h326v-1112l-295 129q-59 -123 -192 -123q-86 0 -156 49v-467h-326z" />
    <glyph glyph-name="mu" unicode="&#x3bc;" horiz-adv-x="1191" 
d="M102 -426v1524h326v-621q0 -74 46 -116t112 -42t112.5 42t46.5 116v621h326v-1112l-295 129q-59 -123 -192 -123q-86 0 -156 49v-467h-326z" />
    <glyph glyph-name="paragraph" unicode="&#xb6;" horiz-adv-x="1339" 
d="M528 -414v1123q-205 11 -319.5 105t-114.5 253q0 109 37 184t108 115t157 56t202 16h608v-1852h-270v1581h-137v-1581h-271z" />
    <glyph glyph-name="periodcentered" unicode="&#xb7;" horiz-adv-x="464" 
d="M90 758q0 56 40 99.5t101 43.5q56 0 95 -43.5t39 -99.5t-38.5 -94.5t-95.5 -38.5q-62 0 -101.5 38.5t-39.5 94.5z" />
    <glyph glyph-name="cedilla" unicode="&#xb8;" horiz-adv-x="630" 
d="M262 47h176l-71 -94q70 -5 114.5 -50t44.5 -122q0 -66 -38.5 -115t-91.5 -70.5t-109 -21.5q-33 0 -96.5 12.5t-96.5 30.5v170l58 -18q59 -19 90 -19h18q33 0 33 31q0 15 -7 22t-14 8t-22 1h-158z" />
    <glyph glyph-name="onesuperior" unicode="&#xb9;" horiz-adv-x="493" 
d="M-66 1307v206h357v-927h-215v721h-142z" />
    <glyph glyph-name="ordmasculine" unicode="&#xba;" horiz-adv-x="847" 
d="M55 1100q0 152 104.5 256t258.5 104q152 0 256 -104t104 -256q0 -154 -104 -258.5t-256 -104.5q-154 0 -258.5 104.5t-104.5 258.5zM281 1100q0 -57 40 -97t97 -40q56 0 95.5 40t39.5 97q0 56 -39.5 95.5t-95.5 39.5q-57 0 -97 -39.5t-40 -95.5z" />
    <glyph glyph-name="guillemotright" unicode="&#xbb;" horiz-adv-x="1067" 
d="M285 1006l293 -451l-281 -446l-225 163l190 283q-69 107 -184 276zM672 1006l293 -451l-281 -446l-227 163l192 283q-69 107 -184 276z" />
    <glyph glyph-name="onequarter" unicode="&#xbc;" horiz-adv-x="1683" 
d="M850 154v208l197 316q44 73 92.5 150.5t78 123t31.5 47.5h219v-620h91v-232h-91v-147h-227v154h-391zM629 -16l-168 20l436 1526l164 -37zM80 1294v219h379v-1003h-230v784h-149zM1108 369h133q0 25 -1 104.5t-1 118.5z" />
    <glyph glyph-name="onehalf" unicode="&#xbd;" horiz-adv-x="1712" 
d="M80 1294v219h379v-1003h-228v784h-151zM629 -16l-168 16l436 1530l164 -17zM956 0v250l371 342q39 39 39 80q0 42 -30 72t-72 30q-35 0 -64 -26t-41 -68l-211 74q37 108 124 176.5t192 68.5q137 0 233 -95.5t96 -231.5q0 -70 -26 -126t-82 -112q-28 -28 -129 -108
t-135 -99h374v-227h-639z" />
    <glyph glyph-name="threequarters" unicode="&#xbe;" horiz-adv-x="1884" 
d="M1014 154v208l196 316q44 72 93 150t78.5 123.5t31.5 47.5h219v-620h90v-232h-90v-147h-227v154h-391zM229 1192l-88 182q38 65 99 103.5t131 38.5q108 0 184 -77.5t76 -185.5q0 -74 -51 -151q65 -49 103 -119t38 -154q0 -138 -98 -236.5t-236 -98.5q-128 0 -223.5 87.5
t-95.5 223.5l211 29q11 -49 40.5 -80t69.5 -31q41 0 72 36t31 83q0 46 -28 79t-71 46l-102 30v170l96 25q31 12 31 53q0 19 -14 33t-31 14q-31 0 -94 -51q-29 -25 -50 -49zM793 -16l-168 20l436 1526l164 -37zM1272 369h133q0 25 -1 104.5t-1 118.5z" />
    <glyph glyph-name="questiondown" unicode="&#xbf;" horiz-adv-x="921" 
d="M342 1395q2 64 47 110.5t111 46.5q62 0 109.5 -48t47.5 -109q0 -65 -47.5 -111.5t-109.5 -46.5q-66 0 -112 46t-46 112zM338 1206l321 2q13 -39 21 -80q20 -98 20 -188q0 -60 -17 -114.5t-44 -95.5t-59.5 -78.5t-65.5 -68.5t-60 -59t-44 -58t-17 -58q0 -70 60 -70
q53 0 137 76q31 28 74 75l206 -208q-54 -67 -127 -131q-162 -134 -301 -134q-178 0 -280.5 96t-102.5 283q0 79 18 142t46.5 104t63 75t69 62.5t63 57t46.5 67t18 86.5q0 79 -23 146q-11 46 -22 71z" />
    <glyph glyph-name="Agrave" unicode="&#xc0;" horiz-adv-x="1536" 
d="M1491 0h-352l-121 276h-529l-114 -276h-355l611 1532h248zM756 948l-146 -360h285zM614 1962l408 -174l-145 -232l-377 154z" />
    <glyph glyph-name="Aacute" unicode="&#xc1;" horiz-adv-x="1536" 
d="M1491 0h-352l-121 276h-529l-114 -276h-355l611 1532h248zM756 948l-146 -360h285zM498 1788l409 174l113 -252l-377 -154z" />
    <glyph glyph-name="Acircumflex" unicode="&#xc2;" horiz-adv-x="1536" 
d="M1491 0h-352l-121 276h-529l-114 -276h-355l611 1532h248zM756 948l-146 -360h285zM426 1825l330 127l334 -140l-154 -229l-182 80q-25 -10 -88.5 -33t-90.5 -35z" />
    <glyph glyph-name="Atilde" unicode="&#xc3;" horiz-adv-x="1536" 
d="M1491 0h-352l-121 276h-529l-114 -276h-355l611 1532h248zM756 948l-146 -360h285zM408 1528l2 336q4 4 18 12l6 4q1 1 10 4q14 6 15 6q95 39 159 39q45 0 130.5 -23.5t111.5 -23.5q56 0 156 49q25 11 90 49v-268l-43 -31q-87 -69 -172 -69q-48 0 -141.5 25.5
t-124.5 25.5q-80 0 -160 -68q-32 -28 -57 -67z" />
    <glyph glyph-name="Adieresis" unicode="&#xc4;" horiz-adv-x="1536" 
d="M1491 0h-352l-121 276h-529l-114 -276h-355l611 1532h248zM756 948l-146 -360h285zM803 1767q0 66 43.5 111t109.5 45t111 -45t45 -111t-45 -109.5t-111 -43.5t-109.5 43.5t-43.5 109.5zM399 1767q0 66 45 111t111 45t111 -45t45 -111t-45 -109.5t-111 -43.5t-111 43.5
t-45 109.5z" />
    <glyph glyph-name="Aring" unicode="&#xc5;" horiz-adv-x="1536" 
d="M1491 0h-352l-121 276h-529l-114 -276h-355l611 1532h248zM756 948l-146 -360h285zM545 1757q0 92 62 154.5t153 62.5q92 0 154.5 -62.5t62.5 -154.5q0 -91 -62.5 -154t-154.5 -63t-153.5 62.5t-61.5 154.5zM659 1757q0 -41 30 -70.5t71 -29.5t71.5 29.5t30.5 70.5
t-30.5 72t-71.5 31t-71 -31t-30 -72z" />
    <glyph glyph-name="AE" unicode="&#xc6;" horiz-adv-x="1908" 
d="M1788 604h-533v-274h533v-330h-864v276h-402l-147 -276h-357l750 1532h1020v-330h-533v-268h533v-330zM659 588h265v536z" />
    <glyph glyph-name="Ccedilla" unicode="&#xc7;" horiz-adv-x="1460" 
d="M1382 1364l-200 -260q-140 112 -301 115q-193 -8 -324 -136.5t-131 -316.5q0 -122 59 -225t164 -164t232 -62q160 0 301 115l200 -262q-13 -13 -34.5 -30t-69.5 -46t-102 -51.5t-134 -39.5t-163 -17q-24 0 -74 4l-27 -35q70 -5 115 -50t45 -122q0 -50 -22.5 -91
t-58 -65.5t-77 -37.5t-82.5 -13q-33 0 -96 12.5t-96 30.5v170l57 -18q59 -19 90 -19h19q33 0 33 31q0 15 -7 22t-14 8t-22 1h-158l147 204q-244 73 -399.5 279.5t-155.5 470.5q0 160 62 305t166.5 249.5t249.5 166t305 61.5q103 0 197 -23.5t157.5 -59t96.5 -59t52 -42.5z
" />
    <glyph glyph-name="Egrave" unicode="&#xc8;" horiz-adv-x="1079" 
d="M961 604h-533v-274h533v-330h-863v1532h863v-330h-533v-268h533v-330zM385 1962l408 -174l-146 -232l-377 154z" />
    <glyph glyph-name="Eacute" unicode="&#xc9;" horiz-adv-x="1079" 
d="M961 604h-533v-274h533v-330h-863v1532h863v-330h-533v-268h533v-330zM268 1788l410 174l113 -252l-377 -154z" />
    <glyph glyph-name="Ecircumflex" unicode="&#xca;" horiz-adv-x="1079" 
d="M961 604h-533v-274h533v-330h-863v1532h863v-330h-533v-268h533v-330zM199 1825l329 127l334 -140l-153 -229l-183 80q-24 -10 -87.5 -33t-90.5 -35z" />
    <glyph glyph-name="Edieresis" unicode="&#xcb;" horiz-adv-x="1079" 
d="M961 604h-533v-274h533v-330h-863v1532h863v-330h-533v-268h533v-330zM575 1767q0 66 44 111t110 45t111 -45t45 -111t-45 -109.5t-111 -43.5t-110 43.5t-44 109.5zM172 1767q0 66 45 111t111 45t110.5 -45t44.5 -111t-44.5 -109.5t-110.5 -43.5t-111 43.5t-45 109.5z
" />
    <glyph glyph-name="Igrave" unicode="&#xcc;" horiz-adv-x="526" 
d="M94 1532h330v-1532h-330v1532zM113 1962l407 -174l-145 -232l-377 154z" />
    <glyph glyph-name="Iacute" unicode="&#xcd;" horiz-adv-x="526" 
d="M94 1532h330v-1532h-330v1532zM-4 1788l410 174l112 -252l-377 -154z" />
    <glyph glyph-name="Icircumflex" unicode="&#xce;" horiz-adv-x="526" 
d="M94 1532h330v-1532h-330v1532zM-76 1825l330 127l334 -140l-154 -229l-182 80q-24 -10 -87.5 -33t-90.5 -35z" />
    <glyph glyph-name="Idieresis" unicode="&#xcf;" horiz-adv-x="526" 
d="M94 1532h330v-1532h-330v1532zM301 1767q0 66 44 111t110 45t110.5 -45t44.5 -111t-44.5 -109.5t-110.5 -43.5t-110 43.5t-44 109.5zM-102 1767q0 66 44.5 111t110.5 45t111 -45t45 -111t-45 -109.5t-111 -43.5t-110.5 43.5t-44.5 109.5z" />
    <glyph glyph-name="Eth" unicode="&#xd0;" horiz-adv-x="1708" 
d="M297 0l2 592h-201v274h201v666h512q157 0 299.5 -61t245.5 -164t164 -244.5t61 -296.5t-61 -296.5t-164 -244.5t-245.5 -164t-299.5 -61h-514zM631 866h203v-274h-203v-262h180q191 0 314.5 121.5t123.5 314.5q0 194 -118 315t-310 121h-190v-336z" />
    <glyph glyph-name="Ntilde" unicode="&#xd1;" horiz-adv-x="1456" 
d="M100 1532h303l615 -885v883h313v-1530h-301l-616 887v-887h-314v1532zM379 1550l2 336q4 4 18 12l7 5q1 1 10 4l14 6q95 39 160 39q45 0 130 -23.5t111 -23.5q56 0 156 49q25 11 90 49v-268l-43 -31q-88 -70 -172 -70q-48 0 -141.5 26t-124.5 26q-80 0 -160 -68
q-30 -26 -57 -68z" />
    <glyph glyph-name="Ograve" unicode="&#xd2;" horiz-adv-x="1794" 
d="M100 766q0 160 62 305t166.5 249.5t249.5 166t305 61.5q159 0 304 -61.5t249.5 -166t166.5 -249.5t62 -305t-62 -305t-166.5 -249.5t-249.5 -166t-304 -61.5q-160 0 -305 61.5t-249.5 166t-166.5 249.5t-62 305zM430 766q0 -121 61 -225t165.5 -165t226.5 -61
q124 0 227.5 61t163 165t59.5 225q0 188 -131 320.5t-319 132.5q-186 0 -319.5 -133t-133.5 -320zM743 1962l408 -174l-145 -232l-377 154z" />
    <glyph glyph-name="Oacute" unicode="&#xd3;" horiz-adv-x="1794" 
d="M100 766q0 160 62 305t166.5 249.5t249.5 166t305 61.5q159 0 304 -61.5t249.5 -166t166.5 -249.5t62 -305t-62 -305t-166.5 -249.5t-249.5 -166t-304 -61.5q-160 0 -305 61.5t-249.5 166t-166.5 249.5t-62 305zM430 766q0 -121 61 -225t165.5 -165t226.5 -61
q124 0 227.5 61t163 165t59.5 225q0 188 -131 320.5t-319 132.5q-186 0 -319.5 -133t-133.5 -320zM627 1788l409 174l113 -252l-377 -154z" />
    <glyph glyph-name="Ocircumflex" unicode="&#xd4;" horiz-adv-x="1794" 
d="M100 766q0 160 62 305t166.5 249.5t249.5 166t305 61.5q159 0 304 -61.5t249.5 -166t166.5 -249.5t62 -305t-62 -305t-166.5 -249.5t-249.5 -166t-304 -61.5q-160 0 -305 61.5t-249.5 166t-166.5 249.5t-62 305zM430 766q0 -121 61 -225t165.5 -165t226.5 -61
q124 0 227.5 61t163 165t59.5 225q0 188 -131 320.5t-319 132.5q-186 0 -319.5 -133t-133.5 -320zM555 1825l330 127l334 -140l-154 -229l-182 80q-24 -10 -87.5 -33t-90.5 -35z" />
    <glyph glyph-name="Otilde" unicode="&#xd5;" horiz-adv-x="1794" 
d="M100 766q0 160 62 305t166.5 249.5t249.5 166t305 61.5q159 0 304 -61.5t249.5 -166t166.5 -249.5t62 -305t-62 -305t-166.5 -249.5t-249.5 -166t-304 -61.5q-160 0 -305 61.5t-249.5 166t-166.5 249.5t-62 305zM430 766q0 -121 61 -225t165.5 -165t226.5 -61
q124 0 227.5 61t163 165t59.5 225q0 188 -131 320.5t-319 132.5q-186 0 -319.5 -133t-133.5 -320zM537 1528l2 336q4 4 18 12l6 4q1 1 10 4q14 6 15 6q95 39 160 39q45 0 130 -23.5t111 -23.5q56 0 156 49q25 11 90 49v-268l-43 -31q-87 -69 -172 -69q-48 0 -141.5 25.5
t-124.5 25.5q-80 0 -160 -68q-32 -28 -57 -67z" />
    <glyph glyph-name="Odieresis" unicode="&#xd6;" horiz-adv-x="1794" 
d="M100 766q0 160 62 305t166.5 249.5t249.5 166t305 61.5q159 0 304 -61.5t249.5 -166t166.5 -249.5t62 -305t-62 -305t-166.5 -249.5t-249.5 -166t-304 -61.5q-160 0 -305 61.5t-249.5 166t-166.5 249.5t-62 305zM430 766q0 -121 61 -225t165.5 -165t226.5 -61
q124 0 227.5 61t163 165t59.5 225q0 188 -131 320.5t-319 132.5q-186 0 -319.5 -133t-133.5 -320zM932 1767q0 66 43.5 111t109.5 45t111 -45t45 -111t-45 -109.5t-111 -43.5t-109.5 43.5t-43.5 109.5zM528 1767q0 66 45 111t111 45t111 -45t45 -111t-45 -109.5t-111 -43.5
t-111 43.5t-45 109.5z" />
    <glyph glyph-name="multiply" unicode="&#xd7;" horiz-adv-x="1175" 
d="M412 522l-265 264l191 185l260 -260l266 266l189 -189l-265 -266l263 -262l-187 -192l-266 266l-266 -268l-189 190z" />
    <glyph glyph-name="Oslash" unicode="&#xd8;" horiz-adv-x="1794" 
d="M713 -92h-191l45 141q-213 86 -340 281.5t-127 435.5q0 160 62 305t166.5 249.5t249.5 166t305 61.5q61 0 116 -8l27 92h186l-36 -141q224 -87 356.5 -281t132.5 -444q0 -160 -62 -305t-166.5 -249.5t-249.5 -166t-304 -61.5q-79 0 -144 12q-7 -19 -24 -82q0 -1 -1 -3
t-1 -3zM883 315q124 0 227.5 61t163 165t59.5 225q0 128 -70 237t-182 166l-243 -852q14 -2 45 -2zM430 766q0 -125 62 -229t167 -162q38 133 120.5 411t125.5 433h-22q-186 0 -319.5 -133t-133.5 -320z" />
    <glyph glyph-name="Ugrave" unicode="&#xd9;" horiz-adv-x="1243" 
d="M98 446v1084h330v-1045q0 -71 59 -117t129 -46q73 0 126 45t53 110v1053h329v-1084q0 -130 -73 -236t-189 -163t-246 -57q-132 0 -250.5 57t-193 163t-74.5 236zM467 1962l407 -174l-145 -232l-377 154z" />
    <glyph glyph-name="Uacute" unicode="&#xda;" horiz-adv-x="1243" 
d="M98 446v1084h330v-1045q0 -71 59 -117t129 -46q73 0 126 45t53 110v1053h329v-1084q0 -130 -73 -236t-189 -163t-246 -57q-132 0 -250.5 57t-193 163t-74.5 236zM350 1788l410 174l112 -252l-376 -154z" />
    <glyph glyph-name="Ucircumflex" unicode="&#xdb;" horiz-adv-x="1243" 
d="M98 446v1084h330v-1045q0 -71 59 -117t129 -46q73 0 126 45t53 110v1053h329v-1084q0 -130 -73 -236t-189 -163t-246 -57q-132 0 -250.5 57t-193 163t-74.5 236zM281 1825l329 127l334 -140l-153 -229l-183 80q-24 -10 -87.5 -33t-90.5 -35z" />
    <glyph glyph-name="Udieresis" unicode="&#xdc;" horiz-adv-x="1243" 
d="M98 446v1084h330v-1045q0 -71 59 -117t129 -46q73 0 126 45t53 110v1053h329v-1084q0 -130 -73 -236t-189 -163t-246 -57q-132 0 -250.5 57t-193 163t-74.5 236zM657 1767q0 66 44 111t110 45t111 -45t45 -111t-45 -109.5t-111 -43.5t-110 43.5t-44 109.5zM254 1767
q0 66 45 111t111 45t110.5 -45t44.5 -111t-44.5 -109.5t-110.5 -43.5t-111 43.5t-45 109.5z" />
    <glyph glyph-name="Yacute" unicode="&#xdd;" horiz-adv-x="1216" 
d="M6 1532h365l227 -569l229 567h361l-424 -977v-553h-330v553zM338 1788l410 174l112 -252l-377 -154z" />
    <glyph glyph-name="Thorn" unicode="&#xde;" horiz-adv-x="1787" 
d="M98 0v1532h332v-275q29 0 64.5 0.5t59 1.5t24.5 1q200 0 328 -134.5t128 -334.5q0 -203 -128 -341.5t-326 -138.5h-150v-311h-332zM580 928h-150v-287h150q64 0 94.5 48.5t30.5 101.5q0 49 -30.5 93t-94.5 44z" />
    <glyph glyph-name="germandbls" unicode="&#xdf;" horiz-adv-x="1146" 
d="M518 1513h35q8 0 12 -2q168 -17 282 -136t114 -283q0 -147 -76 -254q76 -68 119 -160.5t43 -198.5q0 -130 -57.5 -239.5t-161.5 -174.5t-232 -65h-104v326h92q63 0 100 48.5t37 117.5q0 63 -57.5 112t-126.5 49v285q56 4 83 40.5t27 88.5q0 49 -34 84t-87 35
q-26 0 -46 -8.5t-29.5 -19t-15 -24.5t-6.5 -21t-1 -11v-1102h-326v1102q0 104 54 198.5t151 153.5t211 59z" />
    <glyph glyph-name="agrave" unicode="&#xe0;" horiz-adv-x="1202" 
d="M352 512q0 -92 62 -155.5t153 -63.5q93 0 155 63t62 156t-62 156t-155 63q-91 0 -153 -63.5t-62 -155.5zM41 512q0 107 41.5 204.5t112 168.5t168 113t204.5 42q133 0 242 -59v43h289v-1034h-267v65q-121 -71 -264 -71q-107 0 -204.5 42t-168 113t-112 168.5t-41.5 204.5
zM446 1552l408 -174l-145 -231l-377 153z" />
    <glyph glyph-name="aacute" unicode="&#xe1;" horiz-adv-x="1202" 
d="M352 512q0 -92 62 -155.5t153 -63.5q93 0 155 63t62 156t-62 156t-155 63q-91 0 -153 -63.5t-62 -155.5zM41 512q0 107 41.5 204.5t112 168.5t168 113t204.5 42q133 0 242 -59v43h289v-1034h-267v65q-121 -71 -264 -71q-107 0 -204.5 42t-168 113t-112 168.5t-41.5 204.5
zM330 1378l409 174l113 -252l-377 -153z" />
    <glyph glyph-name="acircumflex" unicode="&#xe2;" horiz-adv-x="1202" 
d="M352 512q0 -92 62 -155.5t153 -63.5q93 0 155 63t62 156t-62 156t-155 63q-91 0 -153 -63.5t-62 -155.5zM41 512q0 107 41.5 204.5t112 168.5t168 113t204.5 42q133 0 242 -59v43h289v-1034h-267v65q-121 -71 -264 -71q-107 0 -204.5 42t-168 113t-112 168.5t-41.5 204.5
zM260 1415l330 127l334 -139l-154 -229l-182 79q-25 -10 -88 -32.5t-90 -34.5z" />
    <glyph glyph-name="atilde" unicode="&#xe3;" horiz-adv-x="1202" 
d="M352 512q0 -92 62 -155.5t153 -63.5q93 0 155 63t62 156t-62 156t-155 63q-91 0 -153 -63.5t-62 -155.5zM41 512q0 107 41.5 204.5t112 168.5t168 113t204.5 42q133 0 242 -59v43h289v-1034h-267v65q-121 -71 -264 -71q-107 0 -204.5 42t-168 113t-112 168.5t-41.5 204.5
zM242 1118l2 336q4 4 18 12l6 4q2 2 11 5q7 3 11 5q2 1 3 1q95 39 160 39q45 0 130 -23.5t111 -23.5q56 0 156 49q25 11 90 49v-268l-43 -31q-88 -70 -172 -70q-48 0 -141.5 25.5t-124.5 25.5q-81 0 -160 -67q-30 -26 -57 -68z" />
    <glyph glyph-name="adieresis" unicode="&#xe4;" horiz-adv-x="1202" 
d="M352 512q0 -92 62 -155.5t153 -63.5q93 0 155 63t62 156t-62 156t-155 63q-91 0 -153 -63.5t-62 -155.5zM41 512q0 107 41.5 204.5t112 168.5t168 113t204.5 42q133 0 242 -59v43h289v-1034h-267v65q-121 -71 -264 -71q-107 0 -204.5 42t-168 113t-112 168.5t-41.5 204.5
zM637 1358q0 66 44 110.5t110 44.5t110.5 -44.5t44.5 -110.5t-44.5 -110t-110.5 -44t-110 44t-44 110zM233 1358q0 66 45 110.5t111 44.5t111 -44.5t45 -110.5t-45 -110t-111 -44t-111 44t-45 110z" />
    <glyph glyph-name="aring" unicode="&#xe5;" horiz-adv-x="1202" 
d="M352 512q0 -92 62 -155.5t153 -63.5q93 0 155 63t62 156t-62 156t-155 63q-91 0 -153 -63.5t-62 -155.5zM41 512q0 107 41.5 204.5t112 168.5t168 113t204.5 42q133 0 242 -59v43h289v-1034h-267v65q-121 -71 -264 -71q-107 0 -204.5 42t-168 113t-112 168.5t-41.5 204.5
zM377 1348q0 92 62 154.5t153 62.5q92 0 154.5 -62.5t62.5 -154.5q0 -91 -62.5 -154.5t-154.5 -63.5t-153.5 62.5t-61.5 155.5zM492 1348q0 -41 29.5 -71t70.5 -30t71.5 30t30.5 71t-30.5 71.5t-71.5 30.5t-70.5 -30.5t-29.5 -71.5z" />
    <glyph glyph-name="ae" unicode="&#xe6;" horiz-adv-x="1896" 
d="M1356 279q128 0 268 67l102 -246q-102 -68 -194.5 -92t-200.5 -24q-127 0 -233 53v-47h-267v65q-121 -71 -264 -71q-107 0 -204.5 42t-168 113t-112 168.5t-41.5 204.5t41.5 204.5t112 168.5t168 113t204.5 42q133 0 242 -59v43h289v-39q106 53 229 53q92 0 169.5 -30.5
t129.5 -80.5t88.5 -116.5t53 -138t16.5 -144.5q0 -63 -10 -122h-627q18 -59 72 -93t137 -34zM352 512q0 -92 62 -155.5t153 -63.5q93 0 155 63t62 156t-62 156t-155 63q-91 0 -153 -63.5t-62 -155.5zM1313 739q-59 0 -103 -29.5t-61 -68.5h319q-5 39 -46.5 68.5t-108.5 29.5
z" />
    <glyph glyph-name="ccedilla" unicode="&#xe7;" horiz-adv-x="1126" 
d="M588 1040q131 0 252 -72t194 -180l-229 -170l-43 37q-79 72 -170 72q-90 0 -152.5 -62.5t-62.5 -150.5q0 -91 62 -153t153 -62q58 0 106 32.5t97 100.5l274 -137q-69 -130 -183.5 -213t-250.5 -96l-25 -33q70 -5 115 -50t45 -122q0 -50 -22.5 -91t-58 -65.5t-77 -37.5
t-82.5 -13q-33 0 -96 12.5t-96 30.5v170l57 -18q59 -19 90 -19h19q33 0 33 31q0 15 -7 22t-14 8t-22 1h-158l133 186q-180 39 -296 183t-116 333q0 143 70.5 264t193 191.5t267.5 70.5z" />
    <glyph glyph-name="egrave" unicode="&#xe8;" horiz-adv-x="1091" 
d="M598 279q128 0 268 67l103 -246q-102 -68 -195 -92t-201 -24q-145 0 -267 70.5t-192.5 192.5t-70.5 267q0 143 70.5 263.5t191.5 190.5t264 70q92 0 169.5 -30.5t129.5 -80.5t88.5 -116.5t53 -138t16.5 -144.5q0 -63 -10 -122h-627q18 -59 72 -93t137 -34zM555 739
q-59 0 -103 -29.5t-61 -68.5h320q-5 39 -46.5 68.5t-109.5 29.5zM391 1552l408 -174l-146 -231l-377 153z" />
    <glyph glyph-name="eacute" unicode="&#xe9;" horiz-adv-x="1091" 
d="M598 279q128 0 268 67l103 -246q-102 -68 -195 -92t-201 -24q-145 0 -267 70.5t-192.5 192.5t-70.5 267q0 143 70.5 263.5t191.5 190.5t264 70q92 0 169.5 -30.5t129.5 -80.5t88.5 -116.5t53 -138t16.5 -144.5q0 -63 -10 -122h-627q18 -59 72 -93t137 -34zM555 739
q-59 0 -103 -29.5t-61 -68.5h320q-5 39 -46.5 68.5t-109.5 29.5zM274 1378l410 174l113 -252l-377 -153z" />
    <glyph glyph-name="ecircumflex" unicode="&#xea;" horiz-adv-x="1091" 
d="M598 279q128 0 268 67l103 -246q-102 -68 -195 -92t-201 -24q-145 0 -267 70.5t-192.5 192.5t-70.5 267q0 143 70.5 263.5t191.5 190.5t264 70q92 0 169.5 -30.5t129.5 -80.5t88.5 -116.5t53 -138t16.5 -144.5q0 -63 -10 -122h-627q18 -59 72 -93t137 -34zM555 739
q-59 0 -103 -29.5t-61 -68.5h320q-5 39 -46.5 68.5t-109.5 29.5zM205 1415l330 127l333 -139l-153 -229l-183 79q-25 -10 -88 -32.5t-90 -34.5z" />
    <glyph glyph-name="edieresis" unicode="&#xeb;" horiz-adv-x="1091" 
d="M598 279q128 0 268 67l103 -246q-102 -68 -195 -92t-201 -24q-145 0 -267 70.5t-192.5 192.5t-70.5 267q0 143 70.5 263.5t191.5 190.5t264 70q92 0 169.5 -30.5t129.5 -80.5t88.5 -116.5t53 -138t16.5 -144.5q0 -63 -10 -122h-627q18 -59 72 -93t137 -34zM555 739
q-59 0 -103 -29.5t-61 -68.5h320q-5 39 -46.5 68.5t-109.5 29.5zM582 1358q0 66 43.5 110.5t109.5 44.5t111 -44.5t45 -110.5t-45 -110t-111 -44t-109.5 44t-43.5 110zM178 1358q0 66 45 110.5t111 44.5t110.5 -44.5t44.5 -110.5t-44.5 -110t-110.5 -44t-111 44t-45 110z
" />
    <glyph glyph-name="igrave" unicode="&#xec;" horiz-adv-x="430" 
d="M55 0v1024h314v-1024h-314zM72 1552l407 -174l-145 -231l-377 153z" />
    <glyph glyph-name="iacute" unicode="&#xed;" horiz-adv-x="430" 
d="M55 0v1024h314v-1024h-314zM-43 1378l410 174l112 -252l-377 -153z" />
    <glyph glyph-name="icircumflex" unicode="&#xee;" horiz-adv-x="430" 
d="M55 0v1024h314v-1024h-314zM-115 1415l330 127l334 -139l-154 -229l-182 79q-25 -10 -88 -32.5t-90 -34.5z" />
    <glyph glyph-name="idieresis" unicode="&#xef;" horiz-adv-x="430" 
d="M55 0v1024h314v-1024h-314zM264 1358q0 66 44 110.5t110 44.5t110.5 -44.5t44.5 -110.5t-44.5 -110t-110.5 -44t-110 44t-44 110zM-139 1358q0 66 44.5 110.5t110.5 44.5t111 -44.5t45 -110.5t-45 -110t-111 -44t-110.5 44t-44.5 110z" />
    <glyph glyph-name="eth" unicode="&#xf0;" horiz-adv-x="1310" 
d="M889 528q0 100 -66 167t-168 67q-100 0 -166.5 -67t-66.5 -167q0 -102 66.5 -167.5t166.5 -65.5q103 0 168.5 65t65.5 168zM928 1370l-113 -78l311 -489q74 -116 74 -275q0 -148 -73 -273.5t-198.5 -198t-273.5 -72.5q-111 0 -211.5 43t-173.5 116t-116 173.5t-43 211.5
q0 215 146 358.5t366 164.5q4 0 4 4t-2 6l-43 63l-103 -73l-135 192l105 76l-56 80l230 170l65 -80l107 74z" />
    <glyph glyph-name="ntilde" unicode="&#xf1;" horiz-adv-x="1091" 
d="M76 0v1028h254v-39q75 51 205 51q218 0 338 -118.5t120 -337.5v-584h-313v580q0 61 -42.5 104t-102.5 43q-58 0 -101 -39t-47 -98v-590h-311zM186 1118l2 336q4 4 19 12l6 4q3 2 10 5q14 6 15 6q95 39 159 39q45 0 130.5 -23.5t111.5 -23.5q56 0 156 49q25 11 90 49v-268
l-43 -31q-88 -70 -172 -70q-48 0 -142 25.5t-125 25.5q-80 0 -159 -67q-33 -28 -58 -68z" />
    <glyph glyph-name="ograve" unicode="&#xf2;" horiz-adv-x="1191" 
d="M373 514q0 -91 62 -153t153 -62q88 0 150.5 62.5t62.5 152.5q0 88 -62.5 150.5t-150.5 62.5q-90 0 -152.5 -62.5t-62.5 -150.5zM59 514q0 143 70 264t192 191.5t267 70.5q143 0 264 -70.5t191.5 -191.5t70.5 -264q0 -145 -70.5 -267t-191.5 -192.5t-264 -70.5
q-145 0 -267 70.5t-192 192.5t-70 267zM442 1552l408 -174l-145 -231l-377 153z" />
    <glyph glyph-name="oacute" unicode="&#xf3;" horiz-adv-x="1191" 
d="M373 514q0 -91 62 -153t153 -62q88 0 150.5 62.5t62.5 152.5q0 88 -62.5 150.5t-150.5 62.5q-90 0 -152.5 -62.5t-62.5 -150.5zM59 514q0 143 70 264t192 191.5t267 70.5q143 0 264 -70.5t191.5 -191.5t70.5 -264q0 -145 -70.5 -267t-191.5 -192.5t-264 -70.5
q-145 0 -267 70.5t-192 192.5t-70 267zM326 1378l409 174l113 -252l-377 -153z" />
    <glyph glyph-name="ocircumflex" unicode="&#xf4;" horiz-adv-x="1191" 
d="M373 514q0 -91 62 -153t153 -62q88 0 150.5 62.5t62.5 152.5q0 88 -62.5 150.5t-150.5 62.5q-90 0 -152.5 -62.5t-62.5 -150.5zM59 514q0 143 70 264t192 191.5t267 70.5q143 0 264 -70.5t191.5 -191.5t70.5 -264q0 -145 -70.5 -267t-191.5 -192.5t-264 -70.5
q-145 0 -267 70.5t-192 192.5t-70 267zM254 1415l330 127l334 -139l-154 -229l-182 79q-25 -10 -88.5 -32.5t-90.5 -34.5z" />
    <glyph glyph-name="otilde" unicode="&#xf5;" horiz-adv-x="1191" 
d="M373 514q0 -91 62 -153t153 -62q88 0 150.5 62.5t62.5 152.5q0 88 -62.5 150.5t-150.5 62.5q-90 0 -152.5 -62.5t-62.5 -150.5zM59 514q0 143 70 264t192 191.5t267 70.5q143 0 264 -70.5t191.5 -191.5t70.5 -264q0 -145 -70.5 -267t-191.5 -192.5t-264 -70.5
q-145 0 -267 70.5t-192 192.5t-70 267zM236 1118l2 336q4 4 18 12l6 4q2 2 10 5q14 6 15 6q95 39 159 39q45 0 130.5 -23.5t111.5 -23.5q56 0 156 49q25 11 90 49v-268l-43 -31q-88 -70 -172 -70q-48 0 -141.5 25.5t-124.5 25.5q-81 0 -160 -67q-30 -26 -57 -68z" />
    <glyph glyph-name="odieresis" unicode="&#xf6;" horiz-adv-x="1191" 
d="M373 514q0 -91 62 -153t153 -62q88 0 150.5 62.5t62.5 152.5q0 88 -62.5 150.5t-150.5 62.5q-90 0 -152.5 -62.5t-62.5 -150.5zM59 514q0 143 70 264t192 191.5t267 70.5q143 0 264 -70.5t191.5 -191.5t70.5 -264q0 -145 -70.5 -267t-191.5 -192.5t-264 -70.5
q-145 0 -267 70.5t-192 192.5t-70 267zM631 1358q0 66 43.5 110.5t109.5 44.5t111 -44.5t45 -110.5t-45 -110t-111 -44t-109.5 44t-43.5 110zM227 1358q0 66 45 110.5t111 44.5t111 -44.5t45 -110.5t-45 -110t-111 -44t-111 44t-45 110z" />
    <glyph glyph-name="divide" unicode="&#xf7;" 
d="M88 659h1024v-270h-1024v270zM422 848q0 74 51 125t125 51t125 -51t51 -125t-51 -125t-125 -51t-125 51t-51 125zM422 199q0 73 51 124.5t125 51.5t125 -51.5t51 -124.5q0 -72 -51.5 -124t-124.5 -52t-124.5 52t-51.5 124z" />
    <glyph glyph-name="oslash" unicode="&#xf8;" horiz-adv-x="1191" 
d="M487 -121h-170l41 156q-136 64 -217.5 192.5t-81.5 286.5q0 143 70 264t192 191.5t267 70.5q41 0 59 -2l31 105h176l-43 -154q135 -62 219 -191t84 -284q0 -145 -70.5 -267t-191.5 -192.5t-264 -70.5q-55 0 -70 4q-31 -107 -31 -109zM829 514q0 125 -100 193
q-66 -218 -129 -433q95 5 162 74t67 166zM348 514q0 -123 92 -192l125 430q-91 -8 -154 -76.5t-63 -161.5z" />
    <glyph glyph-name="ugrave" unicode="&#xf9;" horiz-adv-x="1095" 
d="M993 1024v-1030h-254v41q-77 -51 -204 -51q-218 0 -338.5 118.5t-120.5 337.5v584h311v-580q0 -61 44 -104t104 -43q57 0 99 38.5t46 98.5v590h313zM393 1552l408 -174l-146 -231l-376 153z" />
    <glyph glyph-name="uacute" unicode="&#xfa;" horiz-adv-x="1095" 
d="M993 1024v-1030h-254v41q-77 -51 -204 -51q-218 0 -338.5 118.5t-120.5 337.5v584h311v-580q0 -61 44 -104t104 -43q57 0 99 38.5t46 98.5v590h313zM276 1378l410 174l113 -252l-377 -153z" />
    <glyph glyph-name="ucircumflex" unicode="&#xfb;" horiz-adv-x="1095" 
d="M993 1024v-1030h-254v41q-77 -51 -204 -51q-218 0 -338.5 118.5t-120.5 337.5v584h311v-580q0 -61 44 -104t104 -43q57 0 99 38.5t46 98.5v590h313zM207 1415l330 127l333 -139l-153 -229l-182 79q-25 -10 -88.5 -32.5t-90.5 -34.5z" />
    <glyph glyph-name="udieresis" unicode="&#xfc;" horiz-adv-x="1095" 
d="M993 1024v-1030h-254v41q-77 -51 -204 -51q-218 0 -338.5 118.5t-120.5 337.5v584h311v-580q0 -61 44 -104t104 -43q57 0 99 38.5t46 98.5v590h313zM584 1358q0 66 43.5 110.5t109.5 44.5t111 -44.5t45 -110.5t-45 -110t-111 -44t-109.5 44t-43.5 110zM180 1358
q0 66 45 110.5t111 44.5t111 -44.5t45 -110.5t-45 -110t-111 -44t-111 44t-45 110z" />
    <glyph glyph-name="yacute" unicode="&#xfd;" horiz-adv-x="976" 
d="M948 1024l-485 -1430h-332l182 521v18l-309 891h336l139 -479l139 479h330zM217 1378l410 174l112 -252l-377 -153z" />
    <glyph glyph-name="thorn" unicode="&#xfe;" horiz-adv-x="1230" 
d="M827 512q0 92 -63 155.5t-154 63.5q-92 0 -154.5 -63.5t-62.5 -155.5t62.5 -155.5t154.5 -63.5q91 0 154 63.5t63 155.5zM78 -406v1821h313v-420q105 45 219 45q142 0 264 -71t193.5 -193t71.5 -264t-71.5 -264t-193.5 -193t-264 -71q-115 0 -219 49v-439h-313z" />
    <glyph glyph-name="ydieresis" unicode="&#xff;" horiz-adv-x="976" 
d="M948 1024l-485 -1430h-332l182 521v18l-309 891h336l139 -479l139 479h330zM524 1358q0 66 44 110.5t110 44.5t111 -44.5t45 -110.5t-45 -110t-111 -44t-110 44t-44 110zM121 1358q0 66 44.5 110.5t110.5 44.5t111 -44.5t45 -110.5t-45 -110t-111 -44t-110.5 44
t-44.5 110z" />
    <glyph glyph-name="dotlessi" unicode="&#x131;" horiz-adv-x="430" 
d="M55 0v1024h314v-1024h-314z" />
    <glyph glyph-name="Lslash" unicode="&#x141;" horiz-adv-x="1224" 
d="M616 330h498v-330h-827v453l-103 -103l-192 193l295 295v694h329v-365l146 146l192 -193l-338 -336v-454z" />
    <glyph glyph-name="lslash" unicode="&#x142;" horiz-adv-x="913" 
d="M289 817v598h311v-285l92 91l191 -189l-283 -282v-750h-311v438l-92 -92l-191 189z" />
    <glyph glyph-name="OE" unicode="&#x152;" horiz-adv-x="2314" 
d="M2202 604h-533v-274h533v-330h-863v129q-203 -145 -456 -145q-160 0 -305 61.5t-249.5 166t-166.5 249.5t-62 305t62 305t166.5 249.5t249.5 166t305 61.5q250 0 456 -147v131h863v-330h-533v-268h533v-330zM430 766q0 -121 61 -225t165.5 -165t226.5 -61q124 0 227.5 61
t163 165t59.5 225q0 188 -131 320.5t-319 132.5q-186 0 -319.5 -133t-133.5 -320z" />
    <glyph glyph-name="oe" unicode="&#x153;" horiz-adv-x="1849" 
d="M1364 279q128 0 268 67l103 -246q-102 -68 -195 -92t-201 -24q-223 0 -378 155q-72 -73 -169 -114t-204 -41q-145 0 -267 70.5t-192 192.5t-70 267q0 143 70 264t192 191.5t267 70.5q107 0 204.5 -41t170.5 -114q72 72 168.5 112.5t203.5 40.5q92 0 169.5 -30.5
t129.5 -80.5t88.5 -116.5t53 -138t16.5 -144.5q0 -63 -10 -122h-627q18 -59 72 -93t137 -34zM373 514q0 -91 62 -153t153 -62q88 0 150.5 62.5t62.5 152.5q0 88 -62.5 150.5t-150.5 62.5q-90 0 -152.5 -62.5t-62.5 -150.5zM1321 739q-59 0 -103 -29.5t-61 -68.5h320
q-5 39 -46.5 68.5t-109.5 29.5z" />
    <glyph glyph-name="Scaron" unicode="&#x160;" horiz-adv-x="1103" 
d="M88 334l266 115q74 -136 185 -136q53 0 88 37.5t35 89.5q0 44 -12 74t-39 50t-53.5 32t-71.5 28q-10 3 -15 5q-165 52 -270 170.5t-105 279.5q0 211 124 338t333 127q124 0 239 -75t158 -207l-295 -142q-48 92 -118 92q-44 0 -77.5 -36.5t-33.5 -83.5q0 -30 15.5 -55.5
t44 -44.5t53 -31t57.5 -25l27 -10q131 -57 209 -119.5t118.5 -152t40.5 -214.5q0 -191 -128 -323.5t-314 -132.5h-17q-223 0 -354 174q-61 79 -90 176zM541 1585l-330 127l149 230l179 -66q142 59 184 80l151 -232z" />
    <glyph glyph-name="scaron" unicode="&#x161;" horiz-adv-x="735" 
d="M37 229l213 129q9 -16 29 -36q37 -37 67 -37q11 0 21 10.5t10 23.5q0 25 -18 46t-46.5 37t-63 33t-69 41t-63 54.5t-46.5 79.5t-18 111q0 147 85 233t231 86q103 0 178.5 -73t116.5 -181l-224 -118q-11 37 -26 55t-39 18q-11 0 -20 -8.5t-9 -21.5q0 -20 24 -41t60 -38.5
t78 -47t78 -64.5t60 -93t24 -130q0 -131 -89 -222t-216 -91q-155 0 -254 122q-47 53 -74 123zM369 1176l-330 127l149 229l179 -66q142 59 184 80l151 -231z" />
    <glyph glyph-name="Ydieresis" unicode="&#x178;" horiz-adv-x="1216" 
d="M6 1532h365l227 -569l229 567h361l-424 -977v-553h-330v553zM643 1767q0 66 44 111t110 45t110.5 -45t44.5 -111t-44.5 -109.5t-110.5 -43.5t-110 43.5t-44 109.5zM240 1767q0 66 44.5 111t110.5 45t111 -45t45 -111t-45 -109.5t-111 -43.5t-110.5 43.5t-44.5 109.5z" />
    <glyph glyph-name="Zcaron" unicode="&#x17d;" horiz-adv-x="1200" 
d="M96 248l590 954h-590v330h983v-244l-587 -960q2 2 8 2h579v-330h-983v248zM588 1585l-330 127l150 230l178 -66q142 59 184 80l152 -232z" />
    <glyph glyph-name="zcaron" unicode="&#x17e;" horiz-adv-x="874" 
d="M397 715h-334v309h730v-223l-340 -490h340v-311h-730v240zM426 1176l-330 127l150 229l178 -66q142 59 184 80l152 -231z" />
    <glyph glyph-name="florin" unicode="&#x192;" horiz-adv-x="972" 
d="M575 739v-696q0 -143 -73.5 -224t-212.5 -81h-287v278h176q44 0 64 14.5t20 53.5v655h-211v285h211v90q0 143 74 224t213 81h291v-278h-181q-44 0 -64 -14.5t-20 -53.5v-49h318v-285h-318z" />
    <glyph glyph-name="circumflex" unicode="&#x2c6;" horiz-adv-x="815" 
d="M68 1415l329 127l334 -139l-153 -229l-183 79q-25 -10 -88 -32.5t-90 -34.5z" />
    <glyph glyph-name="caron" unicode="&#x2c7;" horiz-adv-x="813" 
d="M397 1176l-329 127l149 229l178 -66q148 62 185 80l151 -231z" />
    <glyph glyph-name="breve" unicode="&#x2d8;" horiz-adv-x="860" 
d="M35 1370l207 164l30 -29q38 -36 71.5 -55.5t76.5 -19.5q18 0 33.5 4t29 13.5t21.5 16t22 21t19 18.5l37 35l206 -174q-42 -83 -145 -143t-223 -60q-128 0 -235.5 60t-149.5 149z" />
    <glyph glyph-name="dotaccent" unicode="&#x2d9;" horiz-adv-x="505" 
d="M90 1348q0 66 43 110.5t109 44.5t110.5 -44.5t44.5 -110.5t-44.5 -109t-110.5 -43t-109 43t-43 109z" />
    <glyph glyph-name="ring" unicode="&#x2da;" horiz-adv-x="630" 
d="M92 1348q0 92 62 154.5t153 62.5q92 0 154.5 -62.5t62.5 -154.5q0 -91 -62.5 -154.5t-154.5 -63.5t-153.5 62.5t-61.5 155.5zM207 1348q0 -41 29.5 -71t70.5 -30t72 30t31 71t-31 71.5t-72 30.5t-70.5 -30.5t-29.5 -71.5z" />
    <glyph glyph-name="ogonek" unicode="&#x2db;" horiz-adv-x="612" 
d="M324 47h149l10 -39q-54 -27 -106.5 -90t-52.5 -115q0 -51 47 -51q19 0 84 21q39 13 55 22v-147q-34 -26 -101.5 -50t-115.5 -24q-92 0 -148.5 50.5t-56.5 137.5q0 89 76 169.5t160 115.5z" />
    <glyph glyph-name="tilde" unicode="&#x2dc;" horiz-adv-x="909" 
d="M94 1118l2 336q4 4 19 12l6 4q3 2 10 5l14 6q95 39 160 39q45 0 130.5 -23.5t111.5 -23.5q55 0 155 49q30 13 91 49v-268l-43 -31q-88 -70 -172 -70q-48 0 -142 25.5t-125 25.5q-80 0 -159 -67q-33 -28 -58 -68z" />
    <glyph glyph-name="hungarumlaut" unicode="&#x2dd;" horiz-adv-x="1226" 
d="M84 1409l410 174l112 -250l-377 -155zM594 1409l410 174l112 -250l-377 -155z" />
    <glyph glyph-name="endash" unicode="&#x2013;" horiz-adv-x="1257" 
d="M100 719h1026v-270h-1026v270z" />
    <glyph glyph-name="emdash" unicode="&#x2014;" horiz-adv-x="1617" 
d="M106 719h1369v-270h-1369v270z" />
    <glyph glyph-name="quoteleft" unicode="&#x2018;" horiz-adv-x="460" 
d="M51 1513h281l39 -403l-199 -23z" />
    <glyph glyph-name="quoteright" unicode="&#x2019;" horiz-adv-x="460" 
d="M96 1513h281l-121 -426l-199 23z" />
    <glyph glyph-name="quotesinglbase" unicode="&#x201a;" horiz-adv-x="460" 
d="M96 276h281l-121 -426l-199 23z" />
    <glyph glyph-name="quotedblleft" unicode="&#x201c;" horiz-adv-x="790" 
d="M55 1513h281l39 -403l-199 -23zM362 1513h279l39 -403l-197 -23z" />
    <glyph glyph-name="quotedblright" unicode="&#x201d;" horiz-adv-x="790" 
d="M408 1513h278l-121 -426l-196 23zM100 1513h281l-123 -426l-197 23z" />
    <glyph glyph-name="quotedblbase" unicode="&#x201e;" horiz-adv-x="790" 
d="M408 276h278l-121 -426l-196 23zM100 276h281l-123 -426l-197 23z" />
    <glyph glyph-name="dagger" unicode="&#x2020;" horiz-adv-x="1376" 
d="M520 -365v1162h-434v282h434v432h305v-432h432v-282h-432v-1162h-305z" />
    <glyph glyph-name="daggerdbl" unicode="&#x2021;" horiz-adv-x="1380" 
d="M522 -360v780h-434v282h434v95h-434v282h434v434h305v-434h433v-282h-433v-95h433v-282h-433v-780h-305z" />
    <glyph glyph-name="bullet" unicode="&#x2022;" horiz-adv-x="716" 
d="M92 610q0 106 76 182t182 76t182 -76t76 -182t-76 -182t-182 -76t-182 76t-76 182z" />
    <glyph glyph-name="ellipsis" unicode="&#x2026;" horiz-adv-x="1501" 
d="M104 125q0 56 41.5 99.5t102.5 43.5q54 0 93.5 -44t39.5 -99t-38.5 -94t-94.5 -39q-62 0 -103 38.5t-41 94.5zM596 125q0 56 40 99.5t101 43.5q55 0 94 -43.5t39 -99.5t-38 -94.5t-95 -38.5q-62 0 -101.5 38.5t-39.5 94.5zM1085 125q0 56 41.5 99.5t102.5 43.5
q54 0 93.5 -44t39.5 -99t-39 -94t-94 -39q-62 0 -103 38.5t-41 94.5z" />
    <glyph glyph-name="perthousand" unicode="&#x2030;" horiz-adv-x="2660" 
d="M1229 375q0 -56 39 -95.5t96 -39.5q56 0 95.5 40t39.5 95t-39.5 95t-95.5 40q-57 0 -96 -39.5t-39 -95.5zM987 375q0 155 111 265t266 110t265 -110t110 -265t-110 -265t-265 -110t-266 110t-111 265zM354 1137q0 -55 39.5 -94t95.5 -39t96 39t40 94q0 57 -40 96t-96 39
t-95.5 -39t-39.5 -96zM115 1137q0 155 109.5 265.5t264.5 110.5t265 -110.5t110 -265.5t-110 -265t-265 -110t-264.5 110t-109.5 265zM1980 375q0 -55 40 -95t96 -40t95.5 40t39.5 95t-39.5 95t-95.5 40t-96 -40t-40 -95zM1741 375q0 155 110 265t265 110t264.5 -110
t109.5 -265t-109.5 -265t-264.5 -110t-265 110t-110 265zM612 -31l-153 94l749 1465l160 -80q-368 -718 -652 -1278q-100 -197 -104 -201z" />
    <glyph glyph-name="guilsinglleft" unicode="&#x2039;" horiz-adv-x="655" 
d="M72 555l288 451l211 -175l-184 -276q30 -48 97.5 -145.5t93.5 -137.5l-226 -163z" />
    <glyph glyph-name="guilsinglright" unicode="&#x203a;" horiz-adv-x="655" 
d="M281 1006l290 -451l-278 -446l-227 163l192 283q-69 107 -184 276z" />
    <glyph glyph-name="fraction" unicode="&#x2044;" horiz-adv-x="1110" 
d="M193 -63l-148 79l834 1536l147 -82z" />
    <glyph glyph-name="Euro" unicode="&#x20ac;" horiz-adv-x="1232" 
d="M639 319q24 -6 57 -6q21 0 39.5 4t37.5 16t27.5 18t31 25t26.5 23l242 -229q-58 -82 -177 -134t-227 -52q-63 0 -125 16q-151 38 -258 154l-14 16q-54 66 -82.5 130.5t-40.5 150.5h-110v262l108 4v61h-108v264l110 5q9 87 46.5 170.5t100.5 154t160 113.5t213 43
q109 0 230.5 -54.5t177.5 -138.5l-246 -223q-7 6 -27 23.5t-30 25t-28.5 19t-37 16t-39.5 4.5q-70 0 -121 -37.5t-69 -107.5l-2 -8h360v-269h-364v-59h366v-275h-356q12 -43 50 -78.5t79 -46.5z" />
    <glyph glyph-name="trademark" unicode="&#x2122;" horiz-adv-x="1773" 
d="M299 584v716h-197v216h611v-216h-199v-716h-215zM752 1516h264l205 -582l206 582h267v-930h-213v522l-111 -317q-54 -155 -70 -205l-153 8q-10 27 -32 88.5t-34 93.5q-21 55 -58 162.5t-50 142.5v-493h-221v928zM1135 885l2 6q-2 -2 -2 -6z" />
    <glyph glyph-name="minus" unicode="&#x2212;" horiz-adv-x="1167" 
d="M100 659h940v-270h-940v270z" />
    <glyph glyph-name="fi" unicode="&#xfb01;" horiz-adv-x="1382" 
d="M262 1024v90q0 143 74.5 224t214.5 81h217v-278h-109q-44 0 -64 -14.5t-20 -53.5v-49h263v-285h-263v-739h-313v739h-133v285h133zM991 1217q0 62 46.5 108.5t111.5 46.5q61 0 109.5 -47.5t48.5 -107.5q0 -66 -47.5 -113t-110.5 -47q-66 0 -112 47t-46 113zM991 0v1024
h314v-1024h-314z" />
    <glyph glyph-name="fl" unicode="&#xfb02;" horiz-adv-x="1435" 
d="M262 1024v90q0 143 74.5 224t214.5 81h217v-278h-109q-44 0 -64 -14.5t-20 -53.5v-49h263v-285h-263v-739h-313v739h-133v285h133zM1042 0v1415h314v-1415h-314z" />
    <glyph glyph-name="CR" horiz-adv-x="593" 
 />
    <glyph glyph-name="_163" horiz-adv-x="0" 
 />
    </font>
</defs>
</svg>
