<?xml version="1.0" standalone="no"?>
<!DOCTYPE svg PUBLIC "-//W3C//DTD SVG 1.1//EN" "http://www.w3.org/Graphics/SVG/1.1/DTD/svg11.dtd" >
<svg xmlns="http://www.w3.org/2000/svg" xmlns:xlink="http://www.w3.org/1999/xlink" version="1.1">
<metadata>
Created by FontForge 20201107 at Fri Mar  7 09:05:12 2025
 By 
Copyright (c) 2013 by Thinkdust. All rights reserved.
</metadata>
<defs>
<font id="Nanami" horiz-adv-x="1228" >
  <font-face 
    font-family="Nanami"
    font-weight="400"
    font-stretch="normal"
    units-per-em="2048"
    panose-1="2 0 0 0 0 0 0 0 0 0"
    ascent="1536"
    descent="-512"
    x-height="1024"
    cap-height="1536"
    bbox="-131 -461 2554 2001"
    underline-thickness="102"
    underline-position="-204"
    unicode-range="U+0020-FB02"
  />
<missing-glyph horiz-adv-x="593" 
 />
    <glyph glyph-name=".notdef" horiz-adv-x="593" 
 />
    <glyph glyph-name=".null" horiz-adv-x="0" 
 />
    <glyph glyph-name="nonmarkingreturn" horiz-adv-x="682" 
 />
    <glyph glyph-name="space" unicode=" " horiz-adv-x="593" 
 />
    <glyph glyph-name="exclam" unicode="!" horiz-adv-x="462" 
d="M373 1536v-1190h-279v1190h279zM373 131q0 -56 -41.5 -97.5t-100.5 -41.5q-55 0 -97 42t-42 97q0 59 41.5 100t97.5 41q60 0 101 -40.5t41 -100.5z" />
    <glyph glyph-name="quotedbl" unicode="&#x22;" horiz-adv-x="843" 
d="M494 944v592h233v-592h-233zM117 944v592h233v-592h-233z" />
    <glyph glyph-name="numbersign" unicode="#" horiz-adv-x="1441" 
d="M410 612l32 234h-274v196h303l59 426h197l-59 -426h196l60 426h196l-59 -426h276v-196h-305l-33 -234h277v-196h-305l-60 -416h-196q0 12 5 43.5t20.5 134t33.5 238.5h-196l-60 -416h-196q0 12 5 43.5t20.5 134t33.5 238.5h-275v196h304zM641 846l-33 -234h195l33 234
h-195z" />
    <glyph glyph-name="dollar" unicode="$" horiz-adv-x="1095" 
d="M109 307l270 45q47 -78 164 -78q65 0 108 46.5t43 109.5q0 31 -5.5 56t-13 43.5t-23 34t-29 26t-38.5 21t-42.5 17t-49.5 17.5q-8 3 -12 4q-167 55 -268.5 169t-101.5 274q0 180 89 296.5t249 147.5v193h233v-199q92 -28 161 -88t97 -148l-264 -127q-43 86 -135 86
q-56 0 -97 -45.5t-41 -103.5q0 -19 4 -36t14.5 -32t19.5 -27t27 -24t28.5 -19.5t33 -17.5t31 -14t32.5 -13.5t28 -11.5q58 -23 110 -51q136 -73 196 -171.5t60 -256.5q0 -150 -85.5 -268t-219.5 -160v-190h-233v182q-141 9 -231 91t-109 222z" />
    <glyph glyph-name="percent" unicode="%" horiz-adv-x="1873" 
d="M610 -25l-118 76l761 1493l125 -61q-440 -865 -710 -1393q-58 -113 -58 -115zM1229 369q0 -69 48.5 -117.5t117.5 -48.5t117.5 48.5t48.5 117.5t-48.5 117.5t-117.5 48.5t-117.5 -48.5t-48.5 -117.5zM1026 369q0 154 107.5 261t261.5 107t261 -107t107 -261t-107 -261.5
t-261 -107.5t-261.5 107.5t-107.5 261.5zM313 1167q0 -69 48.5 -117.5t117.5 -48.5t117.5 48.5t48.5 117.5t-48.5 117.5t-117.5 48.5t-117.5 -48.5t-48.5 -117.5zM111 1167q0 154 107 261.5t261 107.5t261.5 -107.5t107.5 -261.5t-107.5 -261t-261.5 -107t-261 107t-107 261
z" />
    <glyph glyph-name="ampersand" unicode="&#x26;" horiz-adv-x="1480" 
d="M1292 905l-194 -377q-6 -9 -6 -18q0 -10 6 -16l317 -293l-178 -201q-53 47 -154.5 140t-126.5 116l-18 -39q-60 -107 -166 -170t-227 -63q-97 0 -184.5 36t-150.5 97.5t-100.5 147t-37.5 179.5q0 134 67 244t193 189q-154 118 -154 311q0 149 113 256.5t266 107.5
q149 0 256 -107.5t107 -256.5q0 -203 -201 -334l164 -160l170 330zM338 453q0 -86 58.5 -144.5t144.5 -58.5q40 0 74.5 19t61 53t40 56.5t28.5 53.5l7 12l-256 240q-65 -37 -111.5 -98t-46.5 -133zM444 1178q-1 -35 25 -72.5t52 -60t26 -19.5q38 7 73 59t35 93
q0 43 -30.5 73.5t-73.5 30.5q-44 0 -75.5 -30.5t-31.5 -73.5z" />
    <glyph glyph-name="quotesingle" unicode="'" horiz-adv-x="462" 
d="M115 944v592h233v-592h-233z" />
    <glyph glyph-name="parenleft" unicode="(" horiz-adv-x="702" 
d="M113 346v752q0 329 247 524l189 -205q-91 -91 -117 -169.5t-26 -221.5v-608q0 -143 26 -221.5t117 -169.5l-189 -205q-247 195 -247 524z" />
    <glyph glyph-name="parenright" unicode=")" horiz-adv-x="702" 
d="M590 1098v-752q0 -328 -248 -524l-188 205q90 91 116.5 169.5t26.5 221.5v608q0 143 -26.5 221.5t-116.5 169.5l188 205q248 -196 248 -524z" />
    <glyph glyph-name="asterisk" unicode="*" horiz-adv-x="903" 
d="M82 977v223l223 -51l-192 123l155 155l123 -194l-51 225h223l-51 -225l123 194l156 -155l-195 -123l225 51v-223l-225 51l195 -123l-156 -155l-123 192l51 -223h-223l51 225l-123 -194l-155 155l194 123z" />
    <glyph glyph-name="plus" unicode="+" 
d="M498 639v387h233v-387h393v-233h-393v-390h-233v390h-396v233h396z" />
    <glyph glyph-name="comma" unicode="," horiz-adv-x="460" 
d="M94 199l228 47l34 -383l-161 -21z" />
    <glyph glyph-name="hyphen" unicode="-" horiz-adv-x="878" 
d="M115 705h649v-234h-649v234z" />
    <glyph glyph-name="period" unicode="." horiz-adv-x="464" 
d="M113 106q0 49 35.5 87t89.5 38q46 0 80 -38.5t34 -86.5q0 -47 -33.5 -80.5t-80.5 -33.5q-55 0 -90 33t-35 81z" />
    <glyph glyph-name="slash" unicode="/" horiz-adv-x="735" 
d="M209 -14l-125 16l442 1548l123 -28z" />
    <glyph glyph-name="zero" unicode="0" 
d="M1137 1030v-524q0 -138 -70 -258t-191 -192t-262 -72t-262 72t-190.5 192t-69.5 258v524q0 138 69.5 258t190.5 192t262 72t262 -72t191 -192t70 -258zM383 1026v-516q0 -91 69 -161t162 -70t161.5 69.5t68.5 161.5v516q0 92 -68.5 161.5t-161.5 69.5t-162 -70t-69 -161z
" />
    <glyph glyph-name="one" unicode="1" 
d="M309 1262v276h537v-1538h-293v1249q0 13 -12 13h-232z" />
    <glyph glyph-name="two" unicode="2" 
d="M176 0l-88 205l543 522q115 102 162 185.5t47 164.5q0 76 -54 136.5t-145 60.5q-82 0 -155.5 -62.5t-114.5 -150.5l-203 182q178 309 479 309q225 0 356.5 -136.5t131.5 -344.5q0 -133 -76.5 -261t-245.5 -284l-252 -231q-4 -4 -4 -6q0 -4 6 -4h570v-285h-957z" />
    <glyph glyph-name="three" unicode="3" 
d="M354 1153l-114 236q166 163 376 163q188 0 301 -109.5t113 -271.5q0 -88 -42.5 -166.5t-110.5 -132.5q-7 -7 -7 -10q0 -1 11 -8q113 -55 174 -157.5t61 -231.5q0 -201 -137 -339t-350 -138q-230 0 -410 172l139 252q134 -138 263 -138q87 0 146.5 54t59.5 143
q0 96 -72 156t-180 73l-106 5v251l70 5q85 6 143.5 58t58.5 126q0 49 -39 89t-104 40q-120 0 -244 -121z" />
    <glyph glyph-name="four" unicode="4" 
d="M94 248v289q207 333 307 491q65 104 146 233t125.5 199t46.5 74h299v-999h143v-297h-143v-238h-293v236q0 12 -12 12h-619zM717 1049l-299 -514q-2 -2 -2 -7q0 -8 6 -8h291q12 0 12 12q0 521 -2 521t-6 -4z" />
    <glyph glyph-name="five" unicode="5" 
d="M289 1536h725v-289h-502q-11 0 -14 -12l-47 -231q0 -5 2 -7h8q94 25 178 25q150 0 264.5 -68t173 -182t58.5 -254q0 -144 -69.5 -266.5t-192.5 -195t-271 -72.5q-130 0 -223 36.5t-199 122.5l103 279q75 -69 157.5 -107.5t155.5 -38.5q113 0 181.5 69.5t68.5 166.5
q0 94 -69 165t-171 71q-105 0 -198 -54q-37 -20 -78 -49l-170 176q0 11 4 39z" />
    <glyph glyph-name="six" unicode="6" 
d="M70 528q0 160 73 275l478 760l247 -158l-223 -344q-2 -2 -2 -6t4 -4q220 -21 366 -164.5t146 -358.5q0 -148 -73 -273.5t-198.5 -198t-273.5 -72.5q-111 0 -211.5 43t-173.5 116t-116 173.5t-43 211.5zM362 528q0 -110 71 -181t181 -71q107 0 179.5 71.5t72.5 180.5
q0 106 -73 179t-179 73q-109 0 -180.5 -72.5t-71.5 -179.5z" />
    <glyph glyph-name="seven" unicode="7" 
d="M170 1249v287h868l62 -195l-602 -1366l-269 117l506 1149q0 8 -8 8h-557z" />
    <glyph glyph-name="eight" unicode="8" 
d="M182 1118q0 178 127 305t305 127q179 0 306 -127t127 -305q0 -75 -31.5 -136t-89.5 -126q84 -71 139 -165.5t55 -203.5q0 -137 -68 -253.5t-184.5 -184t-253.5 -67.5q-209 0 -357 148t-148 357q0 109 54.5 205t137.5 164q-57 64 -88 125.5t-31 136.5zM399 487
q0 -91 62 -153t153 -62t152 62t61 153t-61 152t-152 61t-153 -61t-62 -152zM471 1118q0 -60 41.5 -101.5t101.5 -41.5t101 41.5t41 101.5t-41 101t-101 41t-101.5 -41t-41.5 -101z" />
    <glyph glyph-name="nine" unicode="9" 
d="M1159 1001q0 -158 -74 -274l-477 -752l-248 158l224 336q2 2 2 6t-4 4q-144 14 -259.5 81t-184 182.5t-68.5 258.5q0 148 72.5 273.5t198 198.5t273.5 73t273.5 -73t198.5 -198.5t73 -273.5zM866 1001q0 110 -71 181t-181 71q-107 0 -179.5 -71.5t-72.5 -180.5
q0 -106 73 -178.5t179 -72.5q109 0 180.5 72t71.5 179z" />
    <glyph glyph-name="colon" unicode=":" horiz-adv-x="468" 
d="M115 106q0 49 35.5 87t89.5 38q46 0 80 -38.5t34 -86.5q0 -47 -33.5 -80.5t-80.5 -33.5q-55 0 -90 33t-35 81zM115 825q0 55 34.5 90t90.5 35q48 0 81 -35t33 -90q0 -47 -33.5 -80.5t-80.5 -33.5q-55 0 -90 33t-35 81z" />
    <glyph glyph-name="semicolon" unicode=";" horiz-adv-x="462" 
d="M111 829q0 53 33 88t81 35q54 0 88.5 -34.5t34.5 -88.5q0 -48 -35 -81t-88 -33q-47 0 -80.5 33.5t-33.5 80.5zM94 199l228 47l34 -383l-161 -21z" />
    <glyph glyph-name="less" unicode="&#x3c;" horiz-adv-x="1372" 
d="M117 430l2 174l1081 449v-183l-840 -358q0 -3 838 -348v-182z" />
    <glyph glyph-name="equal" unicode="=" horiz-adv-x="1169" 
d="M117 471h936v-233h-936v233zM117 815h936v-233h-936v233z" />
    <glyph glyph-name="greater" unicode="&#x3e;" horiz-adv-x="1370" 
d="M1198 604l2 -174l-1081 -448v182q837 344 837 348l-839 358v183z" />
    <glyph glyph-name="question" unicode="?" horiz-adv-x="921" 
d="M551 131q0 -56 -41 -97.5t-100 -41.5q-56 0 -98 42t-42 97q0 59 42 100t98 41q60 0 100.5 -40.5t40.5 -100.5zM545 354l-287 -2q-35 154 -35 256q0 62 18 117.5t46.5 97t63 79t69 70t63 62.5t46.5 64t18 69q0 97 -88 97q-32 0 -63.5 -13t-64 -40.5t-48.5 -43.5t-47 -49
l-181 185q47 63 121 124q151 125 293 125q178 0 277.5 -93.5t99.5 -278.5q0 -81 -18.5 -145t-48.5 -105t-66 -75.5t-72 -63.5t-66 -60t-48.5 -75t-18.5 -99q0 -75 37 -203z" />
    <glyph glyph-name="at" unicode="@" horiz-adv-x="1863" 
d="M1065 678l37 145q6 30 6 60q0 74 -44 113.5t-108 39.5q-112 0 -190 -114.5t-78 -272.5q0 -92 38 -140t112 -48q75 0 139 60t88 157zM1065 500q-53 -76 -115.5 -113t-150.5 -37q-134 0 -206.5 78.5t-72.5 220.5q0 212 121.5 354t294.5 142q85 0 137.5 -31t81.5 -98l49 100
h139l-129 -516q-10 -39 -10 -51q0 -30 22 -50t58 -20q106 0 189 101q129 129 129 348q0 217 -160.5 348t-435.5 131q-148 0 -284.5 -54t-237.5 -146.5t-161.5 -224.5t-60.5 -280q0 -164 89 -296t243 -205.5t342 -73.5q344 0 547 145l59 -79q-268 -209 -596 -209
q-129 0 -250 30t-227 91t-185.5 147t-125 206.5t-45.5 260.5q0 177 72 332.5t194 265t288 172.5t349 63q109 0 214.5 -24.5t200 -76t165.5 -124.5t113 -176t42 -223q0 -141 -57 -263t-162 -214q-137 -101 -277 -101q-81 0 -133.5 35t-56.5 115z" />
    <glyph glyph-name="A" unicode="A" horiz-adv-x="1536" 
d="M1495 0h-313l-121 276q-4 11 -17 11h-555q-12 0 -16 -11l-115 -276h-315l612 1536h224zM772 1010l-4 4q-4 0 -4 -4q-2 -2 -2 -4l-172 -433q-2 -2 -2 -8t8 -6h342q8 0 8 8q0 4 -2 6l-170 433q-2 2 -2 4z" />
    <glyph glyph-name="B" unicode="B" horiz-adv-x="1169" 
d="M592 0h-475v1536h440q14 0 18 -2q170 -12 282 -130.5t112 -283.5q0 -152 -88 -270q84 -68 131 -164t47 -209q0 -196 -136 -334t-331 -143zM422 293h160q77 0 130.5 58.5t53.5 137.5q0 80 -53.5 137.5t-130.5 57.5h-160q-12 0 -12 -12v-367q0 -12 12 -12zM688 1094
q0 61 -43 105t-108 44h-115q-12 0 -12 -12v-283q0 -12 12 -12h127q60 4 99.5 50.5t39.5 107.5z" />
    <glyph glyph-name="C" unicode="C" horiz-adv-x="1460" 
d="M895 1260q-210 -8 -351 -148.5t-141 -343.5q0 -99 41 -189t109.5 -153.5t157.5 -103.5t184 -46q174 0 309 109l180 -233q-17 -17 -48.5 -39t-92 -54t-153 -53.5t-195.5 -21.5q-160 0 -305 62t-250 167t-167 250t-62 305t62 305t167 250t250 167t305 62q284 0 483 -164
q5 -3 6 -4l-180 -233q-135 109 -309 109z" />
    <glyph glyph-name="D" unicode="D" horiz-adv-x="1503" 
d="M422 293h199q210 0 344.5 132.5t134.5 342.5q0 211 -129 343t-338 132h-211q-12 0 -12 -12v-926q0 -12 12 -12zM117 0v1536h504q157 0 300.5 -61.5t246.5 -165t164 -245.5t61 -296t-61 -296t-164 -245.5t-246.5 -165t-300.5 -61.5h-504z" />
    <glyph glyph-name="E" unicode="E" horiz-adv-x="1079" 
d="M410 612v-307q0 -12 12 -12h539v-293h-844v1536h844v-293h-539q-12 0 -12 -12v-301q0 -12 12 -12h539v-293h-539q-12 0 -12 -13z" />
    <glyph glyph-name="F" unicode="F" horiz-adv-x="1064" 
d="M117 0v1536h846v-293h-541q-12 0 -12 -12v-301q0 -12 12 -12h541v-293h-541q-12 0 -12 -13v-612h-293z" />
    <glyph glyph-name="G" unicode="G" horiz-adv-x="1677" 
d="M864 836h670v-580q-101 -121 -259.5 -196.5t-377.5 -75.5q-160 0 -305 62t-250 167t-167 250t-62 305t62 305t167 250t250 167t305 62q104 0 203.5 -24.5t169.5 -61t108.5 -61.5t59.5 -43l-181 -234q-66 54 -168.5 93t-191.5 39q-133 0 -246 -66t-179 -179.5t-66 -246.5
q0 -100 39.5 -191t107.5 -157.5t163.5 -106t203.5 -39.5q206 0 317 97v176q0 6 -8 6h-365v283z" />
    <glyph glyph-name="H" unicode="H" horiz-adv-x="1343" 
d="M934 930v606h293v-1536h-293v612q0 13 -12 13h-500q-12 0 -12 -13v-612h-293v1536h293v-606q0 -12 12 -12h500q12 0 12 12z" />
    <glyph glyph-name="I" unicode="I" horiz-adv-x="526" 
d="M117 1536h293v-1536h-293v1536z" />
    <glyph glyph-name="J" unicode="J" horiz-adv-x="964" 
d="M74 195l256 151q10 -34 40 -53t68 -19q54 0 91.5 39t37.5 95v1128h293v-1128q0 -178 -122.5 -301t-299.5 -123q-117 0 -213.5 56t-150.5 155z" />
    <glyph glyph-name="K" unicode="K" horiz-adv-x="1193" 
d="M117 0v1536h293q0 -666 2 -666t6 4l411 662h334l-463 -756q-4 -8 -4 -12q0 -8 4 -12l471 -756h-344q-414 668 -417 668v-668h-293z" />
    <glyph glyph-name="L" unicode="L" horiz-adv-x="1024" 
d="M434 293h490v-293h-807v1538h293v-1221q0 -24 24 -24z" />
    <glyph glyph-name="M" unicode="M" horiz-adv-x="1789" 
d="M893 463l391 1073h391v-1536h-289v1010l-6 -9q-39 -91 -376 -1001h-224l-362 1018v-1018h-301v1536h385z" />
    <glyph glyph-name="N" unicode="N" horiz-adv-x="1456" 
d="M117 1534l274 2l656 -973v971h292v-1534h-272l-657 973v-973h-293v1534z" />
    <glyph glyph-name="O" unicode="O" horiz-adv-x="1794" 
d="M113 768q0 160 62 305t167 250t250 167t305 62t305 -62t250 -167t167 -250t62 -305t-62 -305t-167 -250t-250 -167t-305 -62t-305 62t-250 167t-167 250t-62 305zM406 768q0 -133 66 -246.5t179 -179.5t246 -66q99 0 190.5 39t157.5 105t105 157.5t39 190.5t-39 190.5
t-105 157.5t-157.5 105t-190.5 39q-133 0 -246 -66t-179 -179.5t-66 -246.5z" />
    <glyph glyph-name="P" unicode="P" horiz-adv-x="1138" 
d="M410 1231v-322q0 -12 12 -12h168q43 0 74.5 18t47.5 46.5t23.5 57t7.5 56.5q0 26 -7.5 53t-23.5 54t-47.5 44t-74.5 17h-168q-12 0 -12 -12zM117 0l2 1536h471q195 0 320.5 -132t125.5 -329q0 -129 -56 -236.5t-159 -171t-231 -63.5h-168q-12 0 -12 -12v-592h-293z" />
    <glyph glyph-name="Q" unicode="Q" horiz-adv-x="1794" 
d="M113 768q0 160 62 305t167 250t250 167t305 62t305 -62t250 -167t167 -250t62 -305q0 -270 -165 -481l118 -113l-217 -194l-119 112q-182 -108 -401 -108q-160 0 -305 62t-250 167t-167 250t-62 305zM406 768q0 -133 66 -246.5t179 -179.5t246 -66q99 0 190 39l-131 136
l205 194l144 -149q84 122 84 272q0 99 -39 190.5t-105 157.5t-157.5 105t-190.5 39q-133 0 -246 -66t-179 -179.5t-66 -246.5z" />
    <glyph glyph-name="R" unicode="R" horiz-adv-x="1218" 
d="M410 1231v-354q0 -13 12 -13h176q79 0 125.5 55.5t46.5 135.5q0 79 -46.5 133.5t-125.5 54.5h-176q-12 0 -12 -12zM836 0l-318 590q-6 12 -18 12h-78q-12 0 -12 -12v-590h-293v1536h481q139 0 246 -66.5t162 -175t55 -239.5q0 -104 -33 -182.5t-104 -149.5
q-29 -29 -105 -74q-7 0 0 -10l352 -639h-335z" />
    <glyph glyph-name="S" unicode="S" horiz-adv-x="1103" 
d="M113 307l233 101q38 -63 82.5 -98.5t118.5 -35.5q65 0 108 46.5t43 109.5q0 50 -14 85t-49 60.5t-58.5 37t-78.5 32.5l-15 6q-84 32 -146.5 69.5t-115 89.5t-79.5 123t-27 159q0 207 122 331.5t326 124.5q122 0 232.5 -67.5t148.5 -186.5l-264 -127q-39 86 -135 86
q-56 0 -96.5 -45.5t-40.5 -103.5q0 -52 44.5 -97t114.5 -75q156 -65 205 -96q116 -69 167.5 -164t51.5 -242q0 -186 -126 -316t-306 -130h-18q-154 0 -269 90.5t-159 232.5z" />
    <glyph glyph-name="T" unicode="T" horiz-adv-x="1193" 
d="M741 0h-292v1233q0 1 -3 4q-6 6 -8 6h-329v293h976v-293h-331l-13 -10v-1233z" />
    <glyph glyph-name="U" unicode="U" horiz-adv-x="1243" 
d="M115 436v1098h293v-1057q0 -85 69 -139.5t150 -54.5q83 0 146 54.5t63 131.5v1065h292v-1098q0 -127 -71 -230.5t-185.5 -159.5t-244.5 -56q-131 0 -248 56t-190.5 159.5t-73.5 230.5z" />
    <glyph glyph-name="V" unicode="V" horiz-adv-x="1413" 
d="M1047 1536h317l-547 -1536h-223l-539 1536h314l331 -1012q0 -2 2 -4q0 -4 5 -4l4 4q0 2 2 4z" />
    <glyph glyph-name="W" unicode="W" horiz-adv-x="1912" 
d="M1413 0h-233q-225 868 -228 868l-223 -868h-229l-414 1536h305q118 -462 199 -786q21 -84 22 -84q2 0 6 4l228 866h229q118 -462 199 -786q21 -84 22 -84q3 0 7 4l221 866h305z" />
    <glyph glyph-name="X" unicode="X" horiz-adv-x="1347" 
d="M854 756l471 -756h-348l-293 477q-3 6 -10 6t-10 -6l-297 -477h-342l469 756l4 12l-4 12l-467 758h344l295 -481q3 -6 8 -6t8 6l295 479h348l-471 -756q-4 -8 -4 -12q0 -8 4 -12z" />
    <glyph glyph-name="Y" unicode="Y" horiz-adv-x="1216" 
d="M33 1536h323l246 -614q4 -7 6 -7t6 7l248 612h320l-426 -981v-553h-293v553z" />
    <glyph glyph-name="Z" unicode="Z" horiz-adv-x="1200" 
d="M721 1208q6 12 6 19q0 16 -35 16h-577v293h966v-227q1 -1 -151 -243.5t-305 -492t-154 -264.5q0 -16 35 -16h575v-293h-966v225q162 257 305 492z" />
    <glyph glyph-name="bracketleft" unicode="[" horiz-adv-x="727" 
d="M121 -301l-4 1972h499v-246h-196q-10 0 -10 -12v-1456q0 -12 10 -12h196v-246h-495z" />
    <glyph glyph-name="backslash" unicode="\" horiz-adv-x="737" 
d="M651 16l-121 -34l-446 1540l121 37z" />
    <glyph glyph-name="bracketright" unicode="]" horiz-adv-x="727" 
d="M616 1671l-4 -1972h-495v246h196q11 0 11 12v1456q0 12 -11 12h-196v246h499z" />
    <glyph glyph-name="asciicircum" unicode="^" horiz-adv-x="1146" 
d="M573 1241l-280 -518h-248l447 813h163l447 -813h-244z" />
    <glyph glyph-name="underscore" unicode="_" horiz-adv-x="1372" 
d="M0 -131h1372v-145h-1372v145z" />
    <glyph glyph-name="grave" unicode="`" horiz-adv-x="694" 
d="M207 1569l381 -162l-127 -199l-352 144z" />
    <glyph glyph-name="a" unicode="a" horiz-adv-x="1202" 
d="M330 512q0 -107 73 -180.5t179 -73.5t179 73.5t73 180.5t-73 180.5t-179 73.5t-179 -73.5t-73 -180.5zM858 1024h254v-1024h-254v59q-121 -75 -276 -75q-142 0 -264 71t-193.5 193t-71.5 264t71.5 264t193.5 193t264 71q150 0 276 -77v61z" />
    <glyph glyph-name="b" unicode="b" horiz-adv-x="1232" 
d="M877 512q0 107 -73 180.5t-179 73.5t-179 -73.5t-73 -180.5t73 -180.5t179 -73.5t179 73.5t73 180.5zM356 0h-264v1436h279v-461q117 65 254 65q106 0 204 -42t169 -113t113 -169t42 -204t-42 -204t-113 -169t-169 -113t-204 -42q-142 0 -269 67v-51z" />
    <glyph glyph-name="c" unicode="c" horiz-adv-x="1126" 
d="M602 1040q130 0 250 -66.5t184 -164.5l-207 -154q-3 2 -25 22.5t-29.5 26t-30 21t-39 21t-43.5 11t-56 5.5q-104 0 -177 -72.5t-73 -175.5q0 -104 73 -177t177 -73q70 0 121 32t100 101l244 -123q-69 -132 -193.5 -211t-275.5 -79q-145 0 -267 70.5t-192.5 192.5
t-70.5 267q0 143 70.5 264t192.5 191.5t267 70.5z" />
    <glyph glyph-name="d" unicode="d" horiz-adv-x="1241" 
d="M369 512q0 -107 73 -180.5t179 -73.5t178.5 73.5t72.5 180.5t-72.5 180.5t-178.5 73.5t-179 -73.5t-73 -180.5zM889 0v57q-132 -73 -268 -73q-142 0 -264 71t-193.5 193t-71.5 264t71.5 264t193.5 193t264 71q136 0 253 -65v459h279v-1434h-264z" />
    <glyph glyph-name="e" unicode="e" horiz-adv-x="1091" 
d="M614 238q71 0 135 20t142 61l113 -198q-104 -74 -197.5 -105.5t-218.5 -31.5q-230 0 -380.5 150t-150.5 380q0 219 149.5 371.5t366.5 152.5q223 0 346 -138t123 -365q0 -55 -6 -117h-669q-7 0 -7 -10q24 -76 92.5 -123t161.5 -47zM563 795q-83 0 -147 -64
q-28 -28 -44 -58.5t-16 -43.5q0 -6 9 -6h387q8 0 8 4q0 26 -11 57.5t-34 54.5q-56 56 -152 56z" />
    <glyph glyph-name="f" unicode="f" horiz-adv-x="870" 
d="M227 1024v98q0 143 84.5 229.5t233.5 86.5h182v-242h-109q-112 0 -112 -117v-55h297v-250h-297v-774h-279v774h-166v250h166z" />
    <glyph glyph-name="g" unicode="g" horiz-adv-x="1245" 
d="M369 512q0 -107 73 -180.5t179 -73.5t178.5 73.5t72.5 180.5t-72.5 180.5t-178.5 73.5t-179 -73.5t-73 -180.5zM219 -317l174 186q101 -80 201 -80q108 0 189.5 74t93.5 180q-1 2 -3 4v2q-117 -65 -253 -65q-142 0 -264 71t-193.5 193t-71.5 264t71.5 264t193.5 193
t264 71q143 0 268 -69v53h264v-915q0 -153 -75 -284.5t-206 -208.5t-286 -77q-101 0 -197.5 38.5t-169.5 105.5z" />
    <glyph glyph-name="h" unicode="h" horiz-adv-x="1095" 
d="M371 1436v-432q86 36 176 36q217 0 337 -118t120 -334v-588h-279v584q0 74 -52.5 126t-125.5 52t-125.5 -52t-52.5 -126v-584h-277v1436h279z" />
    <glyph glyph-name="i" unicode="i" horiz-adv-x="462" 
d="M92 0v1026h279v-1026h-279zM92 1249q0 56 41 98t100 42q55 0 97.5 -42.5t42.5 -97.5q0 -59 -42 -100t-98 -41q-60 0 -100.5 40.5t-40.5 100.5z" />
    <glyph glyph-name="j" unicode="j" horiz-adv-x="462" 
d="M92 1249q0 56 41 98t100 42q55 0 97.5 -42.5t42.5 -97.5q0 -59 -42 -100t-98 -41q-60 0 -100.5 40.5t-40.5 100.5zM0 -461v277h68q24 9 24 55v1157h279v-1239q0 -65 -21 -115t-56 -78.5t-75.5 -42.5t-85.5 -14h-133z" />
    <glyph glyph-name="k" unicode="k" horiz-adv-x="958" 
d="M371 1538v-926q0 -6 2 -6t6 4l260 414h305l-311 -498q-1 -2 -2 -4.5t-1.5 -3.5t-0.5 -2l4 -12l317 -504h-313q-59 93 -128.5 206t-88.5 142q-21 32 -45 74q-4 0 -4 -10v-412h-279v1538h279z" />
    <glyph glyph-name="l" unicode="l" horiz-adv-x="462" 
d="M92 0v1434h279v-1434h-279z" />
    <glyph glyph-name="m" unicode="m" horiz-adv-x="1728" 
d="M90 0v1024h256v-37q80 53 201 53q193 0 317 -102q120 102 318 102q217 0 336.5 -118t119.5 -334v-588h-278v584q0 74 -52 126t-126 52q-73 0 -125.5 -47.5t-52.5 -118.5v-596h-279v584q0 74 -52.5 126t-125.5 52q-72 0 -123 -47t-55 -119v-596h-279z" />
    <glyph glyph-name="n" unicode="n" horiz-adv-x="1091" 
d="M90 0v1024h254v-39q83 55 203 55q217 0 337 -118t120 -334v-588h-279v584q0 74 -52.5 126t-125.5 52q-72 0 -123 -47t-55 -119v-596h-279z" />
    <glyph glyph-name="o" unicode="o" horiz-adv-x="1191" 
d="M352 514q0 -104 73 -177t177 -73q103 0 175.5 73t72.5 177q0 103 -72.5 175.5t-175.5 72.5q-104 0 -177 -72.5t-73 -175.5zM72 514q0 143 70.5 264t192.5 191.5t267 70.5q143 0 264 -70.5t191.5 -191.5t70.5 -264q0 -145 -70.5 -267t-191.5 -192.5t-264 -70.5
q-145 0 -267 70.5t-192.5 192.5t-70.5 267z" />
    <glyph glyph-name="p" unicode="p" horiz-adv-x="1230" 
d="M877 512q0 107 -73 180.5t-179 73.5t-179 -73.5t-73 -180.5t73 -180.5t179 -73.5t179 73.5t73 180.5zM92 -420v1444h264v-55q128 71 269 71q106 0 204 -42t169 -113t113 -169t42 -204t-42 -204t-113 -169t-169 -113t-204 -42q-137 0 -254 65v-469h-279z" />
    <glyph glyph-name="q" unicode="q" horiz-adv-x="1241" 
d="M369 512q0 -107 73 -180.5t179 -73.5t178.5 73.5t72.5 180.5t-72.5 180.5t-178.5 73.5t-179 -73.5t-73 -180.5zM889 1024h264v-1444h-279v469q-117 -65 -253 -65q-142 0 -264 71t-193.5 193t-71.5 264t71.5 264t193.5 193t264 71q143 0 268 -69v53z" />
    <glyph glyph-name="r" unicode="r" horiz-adv-x="757" 
d="M90 0v1024h260v-45q73 61 199 61h143v-280h-145q-72 0 -123 -46t-55 -118v-596h-279z" />
    <glyph glyph-name="s" unicode="s" horiz-adv-x="735" 
d="M59 205l193 117q18 -24 26.5 -34.5t30 -24t45.5 -13.5q20 0 39 17.5t19 41.5q0 21 -10 38.5t-31.5 32.5t-33 21.5t-36.5 18.5l-37 18.5t-39.5 23.5t-45.5 32.5t-39 40t-36 53t-22 64t-10 79.5q0 141 82 225t223 84q100 0 170.5 -63.5t109.5 -163.5l-190 -100
q-11 31 -30 47t-52 16q-20 0 -37.5 -16t-17.5 -39q0 -24 17.5 -45.5t38.5 -34t62 -35t64 -37.5q71 -47 113.5 -112.5t42.5 -169.5q0 -127 -86.5 -215t-208.5 -88q-109 0 -188.5 62t-125.5 159z" />
    <glyph glyph-name="t" unicode="t" horiz-adv-x="884" 
d="M309 1024v295h279v-295h235v-250h-235v-774h-279v774h-241v250h241z" />
    <glyph glyph-name="u" unicode="u" horiz-adv-x="1095" 
d="M1004 1024v-1024h-261v39q-72 -55 -196 -55q-217 0 -337 118t-120 334v588h279v-584q0 -74 52.5 -126t125.5 -52t125.5 47.5t52.5 118.5v596h279z" />
    <glyph glyph-name="v" unicode="v" horiz-adv-x="978" 
d="M655 1024h299l-356 -1024h-215l-356 1024h297l161 -549v-4q0 -4 4 -4l5 4q0 2 2 4z" />
    <glyph glyph-name="w" unicode="w" horiz-adv-x="1476" 
d="M1169 0h-235l-203 569l-92 -276q-20 -58 -45 -132t-38.5 -115t-16.5 -46h-238l-276 1024h290q35 -139 63 -256.5t41.5 -176t23.5 -100.5t13 -53.5t5 -11.5t6 4l162 592h217q40 -135 73 -248.5t49 -171.5t27.5 -100t15 -54t5.5 -12t6 4l133 584h291z" />
    <glyph glyph-name="x" unicode="x" horiz-adv-x="1054" 
d="M698 502l320 -502h-338l-143 279q-4 4 -11 4q-8 0 -8 -4l-143 -279h-338l319 502q1 2 2 4.5t1.5 3.5t0.5 2t-0.5 2.5l-1.5 4.5t-2 5l-313 500h332l143 -276q4 -7 8 -7q6 0 9 7l143 276h332l-312 -500q-4 -4 -4 -12q0 -6 4 -10z" />
    <glyph glyph-name="y" unicode="y" horiz-adv-x="976" 
d="M950 1024l-493 -1448h-297l180 512q2 4 2 18q0 13 -2 17l-313 901h299l159 -549q2 -2 2 -4q0 -4 2 -4l5 4q0 2 2 4l159 549h295z" />
    <glyph glyph-name="z" unicode="z" horiz-adv-x="874" 
d="M426 717q8 8 8 16q0 17 -35 17h-319v274h715v-209q1 0 -88 -125t-180 -256t-91 -143q0 -15 31 -15h328v-276h-715v219l176 248q34 50 80 117.5t68.5 100t21.5 32.5z" />
    <glyph glyph-name="braceleft" unicode="{" horiz-adv-x="792" 
d="M115 598v199q105 7 152.5 72t47.5 200v260q0 138 21 209.5t88 112.5q76 45 258 45l2 -176q-94 -7 -124 -55.5t-30 -170.5v-262q0 -150 -43 -223.5t-172 -108.5q-8 0 -8 -4t8 -4q129 -35 172 -108.5t43 -223.5v-262q0 -121 30 -169.5t124 -55.5l-2 -176q-182 0 -258 45
q-69 41 -89 111t-20 210v261q0 135 -47 199t-153 75z" />
    <glyph glyph-name="bar" unicode="|" horiz-adv-x="466" 
d="M350 1536v-1536h-233v1536h233z" />
    <glyph glyph-name="braceright" unicode="}" horiz-adv-x="802" 
d="M684 797v-199q-106 -11 -153.5 -75t-47.5 -199v-261q0 -141 -20 -210.5t-88 -110.5q-76 -45 -258 -45l-2 176q94 7 123.5 55t29.5 170v262q0 150 43 223.5t172 108.5q9 0 9 4t-9 4q-129 35 -172 108.5t-43 223.5v262q0 122 -29.5 170.5t-123.5 55.5l2 176q182 0 258 -45
q67 -41 87.5 -112.5t20.5 -209.5v-260q0 -135 47.5 -200t153.5 -72z" />
    <glyph glyph-name="asciitilde" unicode="~" horiz-adv-x="1290" 
d="M111 354l2 248q169 70 305 70h8q75 -2 234 -40t180 -38h10q133 4 328 82v-223q-24 -24 -121 -56.5t-203 -36.5h-23q-45 0 -107.5 19t-137.5 39t-148 22h-14q-60 0 -127.5 -18.5t-185.5 -67.5z" />
    <glyph glyph-name="exclamdown" unicode="&#xa1;" horiz-adv-x="462" 
d="M373 1182v-1190h-279v1190h279zM373 1397q0 -60 -41 -101t-101 -41q-56 0 -97.5 41.5t-41.5 100.5q0 55 42 97t97 42q59 0 100.5 -41.5t41.5 -97.5z" />
    <glyph glyph-name="cent" unicode="&#xa2;" horiz-adv-x="1153" 
d="M692 1217v-187q107 -20 197.5 -80t146.5 -141l-200 -143q-5 5 -27.5 29t-33.5 33.5t-34.5 24.5t-48.5 23v-524q80 30 142 113q8 8 14 20l223 -111q-61 -111 -159 -185t-220 -97v-166h-233v176q-170 46 -278.5 187.5t-108.5 324.5q0 180 108.5 320t278.5 186v197h233z
M326 514q0 -77 36 -139.5t97 -98.5v476q-61 -37 -97 -100.5t-36 -137.5z" />
    <glyph glyph-name="sterling" unicode="&#xa3;" horiz-adv-x="1327" 
d="M203 0v295h123q40 0 67 30t27 91q0 36 -42.5 119.5t-92.5 142.5h-170v246h100q-22 103 -22 139q0 211 139 350t350 139q232 0 377 -145l-219 -197q-47 47 -154 47q-85 0 -142 -53t-57 -125q0 -62 45 -155h418v-246h-323q44 -74 66 -129.5t22 -118.5q0 -35 -4.5 -58.5
t-9 -34.5t-19.5 -40h86q92 0 133.5 40t46.5 128h269q0 -132 -65.5 -238.5t-180 -166.5t-256.5 -60h-512z" />
    <glyph glyph-name="currency" unicode="&#xa4;" horiz-adv-x="1443" 
d="M117 223l196 199q-88 128 -88 276q0 72 23.5 137t68.5 142l-202 201l125 125l202 -203q81 46 144.5 68t142.5 22q68 0 130.5 -23.5t137.5 -66.5l203 200l125 -122l-199 -199q93 -142 93 -283q0 -120 -89 -274l199 -199l-123 -125l-198 199q-131 -94 -289 -94
q-123 0 -281 92l-198 -197zM723 989q-118 0 -203.5 -86.5t-85.5 -204.5q0 -117 85.5 -202.5t203.5 -85.5t202.5 84.5t84.5 203.5q0 118 -84.5 204.5t-202.5 86.5z" />
    <glyph glyph-name="yen" unicode="&#xa5;" horiz-adv-x="1359" 
d="M1063 1096h188v-166h-260l-84 -193h344v-166h-415l-9 -22v-549h-292v549l-11 22h-418v166h349l-86 193h-263v166h191l-191 440h322l246 -614q4 -7 6 -7t6 7l246 612h319z" />
    <glyph glyph-name="brokenbar" unicode="&#xa6;" horiz-adv-x="464" 
d="M117 -20v638h233v-638h-233zM117 932v645h233v-645h-233z" />
    <glyph glyph-name="section" unicode="&#xa7;" horiz-adv-x="1316" 
d="M645 1552q100 0 197 -33t172 -104v-311q-40 42 -99 88q-121 90 -233 90q-62 0 -107 -40t-45 -101q0 -33 18 -58t54 -43t74 -32t94.5 -36t99.5 -44q60 -25 101.5 -45.5t89.5 -53t77 -66t48.5 -81t19.5 -102.5q0 -126 -51.5 -205t-165.5 -160q46 -61 67 -107.5t21 -107.5
q0 -115 -62 -202.5t-159.5 -131t-210.5 -43.5q-280 0 -436 189q-68 83 -94 188h334q19 -32 40 -53q53 -53 119 -53q56 0 103 31.5t47 84.5q0 28 -14 52.5t-33 41t-55.5 35.5t-64 29.5t-77.5 29.5t-78 31q-72 29 -120.5 56t-99.5 70.5t-77 105t-26 139.5q0 115 43.5 195.5
t138.5 156.5q-52 56 -74 101.5t-22 113.5q0 119 62 208t162 133t222 44zM524 498l258 -109q51 30 78 64.5t27 85.5q0 96 -152 153l-225 88q-43 -34 -66.5 -68t-23.5 -77q0 -49 26 -80.5t78 -56.5z" />
    <glyph glyph-name="dieresis" unicode="&#xa8;" horiz-adv-x="927" 
d="M537 1399q0 59 39.5 98t97.5 39q60 0 99.5 -38.5t39.5 -98.5q0 -57 -39.5 -97t-99.5 -40q-57 0 -97 40t-40 97zM115 1399q0 60 39.5 98.5t99.5 38.5q58 0 97.5 -39t39.5 -98q0 -57 -40 -97t-97 -40q-60 0 -99.5 40t-39.5 97z" />
    <glyph glyph-name="copyright" unicode="&#xa9;" horiz-adv-x="1710" 
d="M113 737q0 151 60 289t160 237.5t237 158.5t286 59q153 0 291 -59t236 -159t156 -237.5t58 -288.5q0 -150 -58 -286.5t-156 -236.5t-236 -159t-291 -59q-148 0 -285.5 59t-237.5 158.5t-160 237t-60 286.5zM225 737q0 -172 84 -316.5t229.5 -228t317.5 -83.5
q128 0 246 49.5t204.5 133t137.5 200t51 245.5t-51.5 246t-137.5 201t-204 134t-246 50q-129 0 -246 -50t-201 -134t-134 -201t-50 -246zM866 963q-93 0 -159 -65.5t-66 -156.5q0 -94 65.5 -159.5t159.5 -65.5q97 0 148 43l100 -123q-95 -80 -248 -80q-161 0 -273 111
t-112 270q0 161 112 273t273 112q153 0 248 -80l-100 -122q-51 43 -148 43z" />
    <glyph glyph-name="ordfeminine" unicode="&#xaa;" horiz-adv-x="860" 
d="M256 1130q0 -72 48 -120.5t120 -48.5t121 48.5t49 120.5t-49 121t-121 49t-120 -49t-48 -121zM70 1130q0 148 103 251.5t251 103.5q96 0 184 -53l2 53h172v-699l-174 41q-80 -51 -184 -51q-148 0 -251 103t-103 251z" />
    <glyph glyph-name="guillemotleft" unicode="&#xab;" horiz-adv-x="1067" 
d="M782 125l-280 436l270 432l197 -141l-195 -291l189 -287zM377 125l-281 436l271 432l196 -141l-194 -291l188 -287z" />
    <glyph glyph-name="logicalnot" unicode="&#xac;" horiz-adv-x="1290" 
d="M100 858h1074v-698h-234v465h-840v233z" />
    <glyph glyph-name="registered" unicode="&#xae;" horiz-adv-x="1792" 
d="M113 768q0 210 106 391t286.5 287t389.5 106q162 0 307.5 -62.5t250 -168.5t165.5 -250.5t61 -302.5t-61 -302.5t-165.5 -250.5t-250 -168.5t-307.5 -62.5q-209 0 -389.5 106t-286.5 287t-106 391zM231 768q0 -181 89 -334.5t241.5 -242.5t333.5 -89q182 0 338 89
t248 242.5t92 334.5t-92 334.5t-248 242.5t-338 89q-181 0 -333.5 -89t-241.5 -242.5t-89 -334.5zM811 1075v-256q0 -8 8 -8h103q54 0 84 40.5t30 98.5q0 55 -30 93t-84 38h-103q-8 0 -8 -6zM1214 309h-182q-80 136 -133.5 225.5t-67.5 110.5l-14 21q-6 0 -6 -4v-353h-158
v914h275q125 0 196.5 -76.5t71.5 -196.5q0 -114 -55 -183.5t-148 -80.5q-2 0 -2 -6z" />
    <glyph glyph-name="macron" unicode="&#xaf;" horiz-adv-x="876" 
d="M115 1495h645v-233h-645v233z" />
    <glyph glyph-name="degree" unicode="&#xb0;" horiz-adv-x="884" 
d="M113 1153q0 137 96.5 233.5t232.5 96.5t233 -96.5t97 -233.5t-97 -233.5t-233 -96.5t-232.5 96.5t-96.5 233.5zM252 1153q0 -78 56 -134t134 -56t134.5 56t56.5 134t-56.5 134t-134.5 56t-134 -56t-56 -134z" />
    <glyph glyph-name="plusminus" unicode="&#xb1;" horiz-adv-x="1306" 
d="M537 801v252h233v-252h426v-234h-426v-252h-233v252h-426v234h426zM111 246h1085v-234h-1085v234z" />
    <glyph glyph-name="twosuperior" unicode="&#xb2;" horiz-adv-x="735" 
d="M115 614l-2 213q9 15 169 161t189 169q45 42 45 96q0 52 -35 87.5t-88 35.5q-40 0 -72.5 -24t-44.5 -62l-165 58q29 91 106.5 147.5t175.5 56.5q125 0 213 -87.5t88 -211.5q0 -121 -98 -219q-30 -30 -156 -135l-125 -104q0 -4 4 -4h377v-177h-581z" />
    <glyph glyph-name="threesuperior" unicode="&#xb3;" horiz-adv-x="733" 
d="M215 1305l-68 135q31 54 83 84t118 30q94 0 163 -68.5t69 -164.5q0 -83 -56 -145q-4 -4 -4 -7q0 -4 4 -4q66 -45 104 -111.5t38 -148.5q0 -125 -88.5 -214t-215.5 -89q-74 0 -137 34t-106 95q-45 59 -45 131l164 23q11 -47 45.5 -76t81.5 -29q53 0 88.5 41t35.5 99
q0 53 -32.5 93t-81.5 52l-84 22v132l78 20q25 6 36 22.5t11 51.5q0 29 -19.5 49t-48.5 20q-38 0 -92 -39q-32 -27 -41 -38z" />
    <glyph glyph-name="acute" unicode="&#xb4;" horiz-adv-x="694" 
d="M109 1407l380 162l99 -217l-352 -144z" />
    <glyph glyph-name="mu" unicode="&#xb5;" horiz-adv-x="1191" 
d="M117 -446v1548h293v-627q0 -88 56 -139t134 -51t134.5 51t56.5 139v627h292v-1104l-297 131q-29 -74 -81 -105.5t-107 -31.5q-52 0 -105 22t-83 64v-524h-293z" />
    <glyph glyph-name="mu" unicode="&#x3bc;" horiz-adv-x="1191" 
d="M117 -446v1548h293v-627q0 -88 56 -139t134 -51t134.5 51t56.5 139v627h292v-1104l-297 131q-29 -74 -81 -105.5t-107 -31.5q-52 0 -105 22t-83 64v-524h-293z" />
    <glyph glyph-name="paragraph" unicode="&#xb6;" horiz-adv-x="1339" 
d="M563 -434v1177q-221 0 -339 92t-118 259q0 107 37.5 180.5t109 112.5t157 55t200.5 16h613v-1892h-234v1657h-192v-1657h-234z" />
    <glyph glyph-name="periodcentered" unicode="&#xb7;" horiz-adv-x="464" 
d="M113 770q0 49 35.5 87t89.5 38q46 0 80 -38.5t34 -86.5q0 -47 -33.5 -81t-80.5 -34q-55 0 -90 33.5t-35 81.5z" />
    <glyph glyph-name="cedilla" unicode="&#xb8;" horiz-adv-x="630" 
d="M279 0h122l-79 -104q7 0 22.5 3t22.5 3q67 0 110 -42t43 -114q0 -63 -37 -108t-86.5 -64.5t-103.5 -19.5q-35 0 -92.5 9.5t-83.5 24.5v129q8 -3 45 -14q47 -14 84 -14h18q60 0 60 57q0 20 -5.5 32t-17 17t-21 6.5t-26.5 1.5h-117z" />
    <glyph glyph-name="onesuperior" unicode="&#xb9;" horiz-adv-x="493" 
d="M-47 1370v166h323v-922h-176v750q0 6 -8 6h-139z" />
    <glyph glyph-name="ordmasculine" unicode="&#xba;" horiz-adv-x="847" 
d="M72 1128q0 147 103.5 250t252.5 103q146 0 249 -103.5t103 -249.5q0 -149 -102.5 -252.5t-249.5 -103.5q-149 0 -252.5 103.5t-103.5 252.5zM260 1128q0 -72 48 -119.5t120 -47.5q70 0 118 48t48 119q0 69 -48.5 117.5t-117.5 48.5q-72 0 -120 -48t-48 -118z" />
    <glyph glyph-name="guillemotright" unicode="&#xbb;" horiz-adv-x="1067" 
d="M283 993l280 -436l-270 -432l-197 141l195 291l-189 287zM688 993l281 -436l-271 -432l-196 141l194 291l-188 287z" />
    <glyph glyph-name="onequarter" unicode="&#xbc;" horiz-adv-x="1683" 
d="M895 162v186q82 129 201 322q44 74 93.5 153.5t79 125.5t31.5 48h195v-649h94v-194h-94v-154h-190v154q0 8 -9 8h-401zM88 1356v180h348v-1001h-190v813q0 8 -8 8h-150zM621 -14l-125 16l442 1548l123 -28zM1300 682l-172 -295l-24 -43q0 -6 4 -6h188q9 0 9 8q0 19 -1 95
t-1 120q-3 56 -3 121z" />
    <glyph glyph-name="onehalf" unicode="&#xbd;" horiz-adv-x="1712" 
d="M88 1356v180h348v-1001h-190v813q0 8 -8 8h-150zM621 -14l-125 16l442 1548l123 -28zM1008 0l-2 227q11 10 187.5 172t192.5 179q50 44 50 102q0 54 -38 92.5t-93 38.5q-42 0 -76.5 -26.5t-48.5 -65.5l-176 61q31 95 114.5 156t186.5 61q131 0 225 -93t94 -224
q0 -130 -104 -234q-56 -56 -166 -143l-133 -110q0 -5 4 -5h401v-188h-618z" />
    <glyph glyph-name="threequarters" unicode="&#xbe;" horiz-adv-x="1884" 
d="M1065 162v186q82 129 201 322q44 74 93.5 153.5t79 125.5t31.5 48h195v-649h94v-194h-94v-154h-190v154q0 8 -9 8h-401zM225 1270l-71 145q33 57 89 90t124 33q103 0 175 -73t72 -177q0 -92 -57 -155l-4 -9v-2q0 -2 4 -2q70 -46 111 -118t41 -158q0 -134 -95.5 -230
t-230.5 -96q-155 0 -260 137q-49 71 -49 142l176 24q11 -50 47.5 -81t87.5 -31q55 0 94 43.5t39 105.5q0 56 -35.5 99t-87.5 57l-88 24v140l82 22q27 6 39 23.5t12 56.5q0 30 -21 52t-50 22q-51 0 -101 -43zM791 -14l-125 16l442 1548l123 -28zM1470 682l-172 -295l-24 -43
q0 -6 4 -6h188q9 0 9 8q0 19 -1 95t-1 120q-3 56 -3 121z" />
    <glyph glyph-name="questiondown" unicode="&#xbf;" horiz-adv-x="921" 
d="M350 1413q0 56 41.5 97.5t100.5 41.5q56 0 97.5 -42t41.5 -97q0 -59 -41.5 -100t-97.5 -41q-60 0 -101 40.5t-41 100.5zM356 1190l287 2q35 -154 35 -256q0 -62 -18 -117.5t-46.5 -97t-63 -79t-69 -70t-63 -62.5t-46.5 -64t-18 -69q0 -96 88 -96q32 0 64 13t64 39.5
t49.5 44t46.5 48.5l180 -184q-49 -66 -121 -125q-151 -125 -293 -125q-178 0 -277.5 94t-99.5 279q0 81 18.5 145t48.5 105t66 75t72 63.5t66 60t48.5 74.5t18.5 99q0 75 -37 203z" />
    <glyph glyph-name="Agrave" unicode="&#xc0;" horiz-adv-x="1536" 
d="M1495 0h-313l-121 276q-4 11 -17 11h-555q-12 0 -16 -11l-115 -276h-315l612 1536h224zM627 1978l381 -161l-127 -199l-353 143zM772 1010l-4 4q-4 0 -4 -4q-2 -2 -2 -4l-172 -433q-2 -2 -2 -8t8 -6h342q8 0 8 8q0 4 -2 6l-170 433q-2 2 -2 4z" />
    <glyph glyph-name="Aacute" unicode="&#xc1;" horiz-adv-x="1536" 
d="M1495 0h-313l-121 276q-4 11 -17 11h-555q-12 0 -16 -11l-115 -276h-315l612 1536h224zM528 1817l381 161l99 -217l-353 -143zM772 1010l-4 4q-4 0 -4 -4q-2 -2 -2 -4l-172 -433q-2 -2 -2 -8t8 -6h342q8 0 8 8q0 4 -2 6l-170 433q-2 2 -2 4z" />
    <glyph glyph-name="Acircumflex" unicode="&#xc2;" horiz-adv-x="1536" 
d="M1495 0h-313l-121 276q-4 11 -17 11h-555q-12 0 -16 -11l-115 -276h-315l612 1536h224zM457 1855l307 119l313 -131l-131 -198l-182 79l-178 -67zM772 1010l-4 4q-4 0 -4 -4q-2 -2 -2 -4l-172 -433q-2 -2 -2 -8t8 -6h342q8 0 8 8q0 4 -2 6l-170 433q-2 2 -2 4z" />
    <glyph glyph-name="Atilde" unicode="&#xc3;" horiz-adv-x="1536" 
d="M1495 0h-313l-121 276q-4 11 -17 11h-555q-12 0 -16 -11l-115 -276h-315l612 1536h224zM426 1647l2 247q4 2 28.5 14t45 21t54.5 17t67 8q51 0 139.5 -25.5t114.5 -25.5q98 0 231 84v-224q-5 -3 -29.5 -22.5t-45 -33t-56 -26t-70.5 -12.5q-41 0 -139 26.5t-139 26.5
q-146 0 -203 -75zM772 1010l-4 4q-4 0 -4 -4q-2 -2 -2 -4l-172 -433q-2 -2 -2 -8t8 -6h342q8 0 8 8q0 4 -2 6l-170 433q-2 2 -2 4z" />
    <glyph glyph-name="Adieresis" unicode="&#xc4;" horiz-adv-x="1536" 
d="M1495 0h-313l-121 276q-4 11 -17 11h-555q-12 0 -16 -11l-115 -276h-315l612 1536h224zM772 1010l-4 4q-4 0 -4 -4q-2 -2 -2 -4l-172 -433q-2 -2 -2 -8t8 -6h342q8 0 8 8q0 4 -2 6l-170 433q-2 2 -2 4zM840 1808q0 59 39.5 98.5t97.5 39.5q60 0 99.5 -39t39.5 -99
q0 -58 -40 -97.5t-99 -39.5q-57 0 -97 40t-40 97zM418 1808q0 60 39.5 99t99.5 39q58 0 97.5 -39.5t39.5 -98.5q0 -57 -40 -97t-97 -40q-59 0 -99 39.5t-40 97.5z" />
    <glyph glyph-name="Aring" unicode="&#xc5;" horiz-adv-x="1536" 
d="M1495 0h-313l-121 276q-4 11 -17 11h-555q-12 0 -16 -11l-115 -276h-315l612 1536h224zM565 1798q0 86 58.5 144.5t144.5 58.5t144.5 -58.5t58.5 -144.5t-58.5 -144.5t-144.5 -58.5t-144.5 58.5t-58.5 144.5zM772 1010l-4 4q-4 0 -4 -4q-2 -2 -2 -4l-172 -433
q-2 -2 -2 -8t8 -6h342q8 0 8 8q0 4 -2 6l-170 433q-2 2 -2 4zM637 1798q0 -54 38.5 -92.5t92.5 -38.5t92.5 38.5t38.5 92.5t-38.5 92.5t-92.5 38.5t-92.5 -38.5t-38.5 -92.5z" />
    <glyph glyph-name="AE" unicode="&#xc6;" horiz-adv-x="1908" 
d="M1257 612v-307q0 -12 13 -12h538v-293h-843v287h-445q-12 0 -16 -11l-146 -276h-315l752 1536h1013v-293h-538q-13 0 -13 -12v-301q0 -12 13 -12h538v-293h-538q-13 0 -13 -13zM965 559v682q-4 0 -4 -4q-3 -3 -3 -4l-325 -660q-2 -2 -2 -8t8 -6h326z" />
    <glyph glyph-name="Ccedilla" unicode="&#xc7;" horiz-adv-x="1460" 
d="M895 1260q-210 -8 -351 -148.5t-141 -343.5q0 -99 41 -189t109.5 -153.5t157.5 -103.5t184 -46q174 0 309 109l180 -233q-17 -17 -48.5 -39t-92 -54t-153 -53.5t-195.5 -21.5q-47 0 -90 6l-72 -94q7 0 22.5 3t22.5 3q68 0 111 -42t43 -114q0 -63 -37 -108t-86.5 -64.5
t-103.5 -19.5q-35 0 -93 9.5t-84 24.5v129q8 -3 45 -14q47 -14 84 -14h19q59 0 59 57q0 26 -11 39t-23.5 15.5t-34.5 2.5h-117l141 197h45q-178 36 -320 145t-223 272.5t-81 350.5q0 160 62 305t167 250t250 167t305 62q284 0 483 -164q5 -3 6 -4l-180 -233
q-135 109 -309 109z" />
    <glyph glyph-name="Egrave" unicode="&#xc8;" horiz-adv-x="1079" 
d="M410 612v-307q0 -12 12 -12h539v-293h-844v1536h844v-293h-539q-12 0 -12 -12v-301q0 -12 12 -12h539v-293h-539q-12 0 -12 -13zM397 1978l381 -161l-127 -199l-352 143z" />
    <glyph glyph-name="Eacute" unicode="&#xc9;" horiz-adv-x="1079" 
d="M410 612v-307q0 -12 12 -12h539v-293h-844v1536h844v-293h-539q-12 0 -12 -12v-301q0 -12 12 -12h539v-293h-539q-12 0 -12 -13zM299 1817l381 161l98 -217l-352 -143z" />
    <glyph glyph-name="Ecircumflex" unicode="&#xca;" horiz-adv-x="1079" 
d="M410 612v-307q0 -12 12 -12h539v-293h-844v1536h844v-293h-539q-12 0 -12 -12v-301q0 -12 12 -12h539v-293h-539q-12 0 -12 -13zM229 1855l308 119l313 -131l-131 -198l-182 79l-179 -67z" />
    <glyph glyph-name="Edieresis" unicode="&#xcb;" horiz-adv-x="1079" 
d="M410 612v-307q0 -12 12 -12h539v-293h-844v1536h844v-293h-539q-12 0 -12 -12v-301q0 -12 12 -12h539v-293h-539q-12 0 -12 -13zM612 1808q0 59 40 98.5t98 39.5q60 0 99.5 -39t39.5 -99q0 -58 -39.5 -97.5t-99.5 -39.5q-57 0 -97.5 40t-40.5 97zM190 1808q0 60 40 99
t100 39q58 0 97.5 -39.5t39.5 -98.5q0 -57 -40 -97t-97 -40q-60 0 -100 40t-40 97z" />
    <glyph glyph-name="Igrave" unicode="&#xcc;" horiz-adv-x="526" 
d="M117 1536h293v-1536h-293v1536zM125 1978l381 -161l-127 -199l-352 143z" />
    <glyph glyph-name="Iacute" unicode="&#xcd;" horiz-adv-x="526" 
d="M117 1536h293v-1536h-293v1536zM27 1817l381 161l98 -217l-352 -143z" />
    <glyph glyph-name="Icircumflex" unicode="&#xce;" horiz-adv-x="526" 
d="M117 1536h293v-1536h-293v1536zM-45 1855l307 119l313 -131l-131 -198l-182 79l-178 -67z" />
    <glyph glyph-name="Idieresis" unicode="&#xcf;" horiz-adv-x="526" 
d="M117 1536h293v-1536h-293v1536zM338 1808q0 59 39.5 98.5t97.5 39.5q60 0 99.5 -39t39.5 -99q0 -58 -40 -97.5t-99 -39.5q-57 0 -97 40t-40 97zM-84 1808q0 60 39.5 99t99.5 39q58 0 98 -39.5t40 -98.5q0 -57 -40.5 -97t-97.5 -40q-59 0 -99 39.5t-40 97.5z" />
    <glyph glyph-name="Eth" unicode="&#xd0;" horiz-adv-x="1708" 
d="M317 0l2 612h-208v234h208v690h504q157 0 300.5 -61.5t246.5 -165t164 -245.5t61 -296t-61 -296t-164 -245.5t-246.5 -165t-300.5 -61.5h-506zM612 846h211v-234h-211v-307q0 -12 13 -12h198q210 0 345 132.5t135 342.5q0 211 -129 343t-338 132h-211q-13 0 -13 -12v-385
z" />
    <glyph glyph-name="Ntilde" unicode="&#xd1;" horiz-adv-x="1456" 
d="M117 1534l274 2l656 -973v971h292v-1534h-272l-657 973v-973h-293v1534zM387 1647l2 247q4 2 28.5 14t45 21t54.5 17t67 8q51 0 139.5 -25.5t114.5 -25.5q98 0 231 84v-224q-5 -3 -29.5 -22.5t-45 -33t-56 -26t-70.5 -12.5q-41 0 -139 26.5t-139 26.5q-146 0 -203 -75z
" />
    <glyph glyph-name="Ograve" unicode="&#xd2;" horiz-adv-x="1794" 
d="M113 768q0 160 62 305t167 250t250 167t305 62t305 -62t250 -167t167 -250t62 -305t-62 -305t-167 -250t-250 -167t-305 -62t-305 62t-250 167t-167 250t-62 305zM406 768q0 -133 66 -246.5t179 -179.5t246 -66q99 0 190.5 39t157.5 105t105 157.5t39 190.5t-39 190.5
t-105 157.5t-157.5 105t-190.5 39q-133 0 -246 -66t-179 -179.5t-66 -246.5zM756 1978l381 -161l-127 -199l-353 143z" />
    <glyph glyph-name="Oacute" unicode="&#xd3;" horiz-adv-x="1794" 
d="M113 768q0 160 62 305t167 250t250 167t305 62t305 -62t250 -167t167 -250t62 -305t-62 -305t-167 -250t-250 -167t-305 -62t-305 62t-250 167t-167 250t-62 305zM406 768q0 -133 66 -246.5t179 -179.5t246 -66q99 0 190.5 39t157.5 105t105 157.5t39 190.5t-39 190.5
t-105 157.5t-157.5 105t-190.5 39q-133 0 -246 -66t-179 -179.5t-66 -246.5zM657 1817l381 161l99 -217l-353 -143z" />
    <glyph glyph-name="Ocircumflex" unicode="&#xd4;" horiz-adv-x="1794" 
d="M113 768q0 160 62 305t167 250t250 167t305 62t305 -62t250 -167t167 -250t62 -305t-62 -305t-167 -250t-250 -167t-305 -62t-305 62t-250 167t-167 250t-62 305zM406 768q0 -133 66 -246.5t179 -179.5t246 -66q99 0 190.5 39t157.5 105t105 157.5t39 190.5t-39 190.5
t-105 157.5t-157.5 105t-190.5 39q-133 0 -246 -66t-179 -179.5t-66 -246.5zM586 1855l307 119l313 -131l-131 -198l-182 79l-178 -67z" />
    <glyph glyph-name="Otilde" unicode="&#xd5;" horiz-adv-x="1794" 
d="M113 768q0 160 62 305t167 250t250 167t305 62t305 -62t250 -167t167 -250t62 -305t-62 -305t-167 -250t-250 -167t-305 -62t-305 62t-250 167t-167 250t-62 305zM406 768q0 -133 66 -246.5t179 -179.5t246 -66q99 0 190.5 39t157.5 105t105 157.5t39 190.5t-39 190.5
t-105 157.5t-157.5 105t-190.5 39q-133 0 -246 -66t-179 -179.5t-66 -246.5zM555 1647l2 247q4 2 28.5 14t45 21t54.5 17t67 8q51 0 139.5 -25.5t114.5 -25.5q98 0 231 84v-224q-5 -3 -29.5 -22.5t-45 -33t-56 -26t-70.5 -12.5q-41 0 -139 26.5t-139 26.5q-146 0 -203 -75z
" />
    <glyph glyph-name="Odieresis" unicode="&#xd6;" horiz-adv-x="1794" 
d="M113 768q0 160 62 305t167 250t250 167t305 62t305 -62t250 -167t167 -250t62 -305t-62 -305t-167 -250t-250 -167t-305 -62t-305 62t-250 167t-167 250t-62 305zM406 768q0 -133 66 -246.5t179 -179.5t246 -66q99 0 190.5 39t157.5 105t105 157.5t39 190.5t-39 190.5
t-105 157.5t-157.5 105t-190.5 39q-133 0 -246 -66t-179 -179.5t-66 -246.5zM969 1808q0 59 39.5 98.5t97.5 39.5q60 0 99.5 -39t39.5 -99q0 -58 -39.5 -97.5t-99.5 -39.5q-57 0 -97 40t-40 97zM547 1808q0 60 39.5 99t99.5 39q58 0 97.5 -39.5t39.5 -98.5q0 -57 -40 -97
t-97 -40q-60 0 -99.5 39.5t-39.5 97.5z" />
    <glyph glyph-name="multiply" unicode="&#xd7;" horiz-adv-x="1175" 
d="M449 522l-275 275l166 164l272 -273l279 279l166 -166l-279 -279l275 -274l-164 -166l-277 276l-278 -280l-166 166z" />
    <glyph glyph-name="Oslash" unicode="&#xd8;" horiz-adv-x="1794" 
d="M705 -96h-146l43 137q-219 87 -354 284.5t-135 442.5q0 160 62 305t167 250t250 167t305 62q69 0 137 -12l31 98h141l-37 -135q228 -83 370 -284t142 -451q0 -160 -62 -305t-167 -250t-250 -167t-305 -62q-74 0 -162 16zM897 276q99 0 190.5 39t157.5 105t105 157.5
t39 190.5q0 151 -83 273t-219 180l-270 -938q44 -7 80 -7zM406 768q0 -145 76 -262t202 -180l268 929q-45 5 -55 5q-133 0 -246 -66t-179 -179.5t-66 -246.5z" />
    <glyph glyph-name="Ugrave" unicode="&#xd9;" horiz-adv-x="1243" 
d="M115 436v1098h293v-1057q0 -85 69 -139.5t150 -54.5q83 0 146 54.5t63 131.5v1065h292v-1098q0 -127 -71 -230.5t-185.5 -159.5t-244.5 -56q-131 0 -248 56t-190.5 159.5t-73.5 230.5zM479 1978l381 -161l-127 -199l-352 143z" />
    <glyph glyph-name="Uacute" unicode="&#xda;" horiz-adv-x="1243" 
d="M115 436v1098h293v-1057q0 -85 69 -139.5t150 -54.5q83 0 146 54.5t63 131.5v1065h292v-1098q0 -127 -71 -230.5t-185.5 -159.5t-244.5 -56q-131 0 -248 56t-190.5 159.5t-73.5 230.5zM381 1817l381 161l98 -217l-352 -143z" />
    <glyph glyph-name="Ucircumflex" unicode="&#xdb;" horiz-adv-x="1243" 
d="M115 436v1098h293v-1057q0 -85 69 -139.5t150 -54.5q83 0 146 54.5t63 131.5v1065h292v-1098q0 -127 -71 -230.5t-185.5 -159.5t-244.5 -56q-131 0 -248 56t-190.5 159.5t-73.5 230.5zM311 1855l307 119l314 -131l-131 -198l-183 79l-178 -67z" />
    <glyph glyph-name="Udieresis" unicode="&#xdc;" horiz-adv-x="1243" 
d="M115 436v1098h293v-1057q0 -85 69 -139.5t150 -54.5q83 0 146 54.5t63 131.5v1065h292v-1098q0 -127 -71 -230.5t-185.5 -159.5t-244.5 -56q-131 0 -248 56t-190.5 159.5t-73.5 230.5zM694 1808q0 59 39.5 98.5t97.5 39.5q60 0 100 -39t40 -99q0 -57 -40 -97t-100 -40
q-57 0 -97 40t-40 97zM272 1808q0 60 40 99t100 39q58 0 97.5 -39.5t39.5 -98.5q0 -57 -40 -97t-97 -40q-60 0 -100 40t-40 97z" />
    <glyph glyph-name="Yacute" unicode="&#xdd;" horiz-adv-x="1216" 
d="M33 1536h323l246 -614q4 -7 6 -7t6 7l248 612h320l-426 -981v-553h-293v553zM369 1817l381 161l98 -217l-352 -143z" />
    <glyph glyph-name="Thorn" unicode="&#xde;" horiz-adv-x="1787" 
d="M410 948v-321q0 -13 12 -13h168q43 0 74.5 18t47.5 47t23.5 57.5t7.5 56.5q0 26 -7.5 53t-23.5 54t-47.5 44t-74.5 17h-168q-12 0 -12 -13zM117 0v1536h293v-285q33 0 76 0.5t73 1t31 0.5q195 0 320.5 -131.5t125.5 -328.5q0 -129 -56 -236.5t-159 -171t-231 -63.5h-168
q-12 0 -12 -11v-311h-293z" />
    <glyph glyph-name="germandbls" unicode="&#xdf;" horiz-adv-x="1146" 
d="M528 1536h29q111 0 207 -59t150.5 -154.5t54.5 -202.5q0 -152 -88 -270q84 -68 131 -164t47 -209q0 -198 -128.5 -337.5t-320.5 -139.5h-145v293h133q77 0 122.5 57t45.5 139q0 78 -60.5 136.5t-132.5 58.5v252q58 4 86.5 48.5t28.5 109.5q0 61 -43 105t-108 44
q-35 0 -61 -11.5t-38 -25.5t-19 -33t-8 -27.5t-1 -15.5v-1130h-293v1130q0 111 59 205.5t153.5 147.5t198.5 53z" />
    <glyph glyph-name="agrave" unicode="&#xe0;" horiz-adv-x="1202" 
d="M330 512q0 -107 73 -180.5t179 -73.5t179 73.5t73 180.5t-73 180.5t-179 73.5t-179 -73.5t-73 -180.5zM858 1024h254v-1024h-254v59q-121 -75 -276 -75q-142 0 -264 71t-193.5 193t-71.5 264t71.5 264t193.5 193t264 71q150 0 276 -77v61zM459 1569l381 -162l-127 -199
l-353 144z" />
    <glyph glyph-name="aacute" unicode="&#xe1;" horiz-adv-x="1202" 
d="M330 512q0 -107 73 -180.5t179 -73.5t179 73.5t73 180.5t-73 180.5t-179 73.5t-179 -73.5t-73 -180.5zM858 1024h254v-1024h-254v59q-121 -75 -276 -75q-142 0 -264 71t-193.5 193t-71.5 264t71.5 264t193.5 193t264 71q150 0 276 -77v61zM360 1407l381 162l99 -217
l-353 -144z" />
    <glyph glyph-name="acircumflex" unicode="&#xe2;" horiz-adv-x="1202" 
d="M330 512q0 -107 73 -180.5t179 -73.5t179 73.5t73 180.5t-73 180.5t-179 73.5t-179 -73.5t-73 -180.5zM858 1024h254v-1024h-254v59q-121 -75 -276 -75q-142 0 -264 71t-193.5 193t-71.5 264t71.5 264t193.5 193t264 71q150 0 276 -77v61zM291 1446l307 119l313 -131
l-131 -199l-182 80l-178 -68z" />
    <glyph glyph-name="atilde" unicode="&#xe3;" horiz-adv-x="1202" 
d="M330 512q0 -107 73 -180.5t179 -73.5t179 73.5t73 180.5t-73 180.5t-179 73.5t-179 -73.5t-73 -180.5zM858 1024h254v-1024h-254v59q-121 -75 -276 -75q-142 0 -264 71t-193.5 193t-71.5 264t71.5 264t193.5 193t264 71q150 0 276 -77v61zM260 1237l2 248q4 2 29 14
t45 20.5t54 16.5t67 8q51 0 139.5 -25.5t114.5 -25.5q98 0 231 84v-223q-5 -3 -29.5 -22.5t-45 -33t-56 -26t-70.5 -12.5q-41 0 -139 26.5t-139 26.5q-146 0 -203 -76z" />
    <glyph glyph-name="adieresis" unicode="&#xe4;" horiz-adv-x="1202" 
d="M330 512q0 -107 73 -180.5t179 -73.5t179 73.5t73 180.5t-73 180.5t-179 73.5t-179 -73.5t-73 -180.5zM858 1024h254v-1024h-254v59q-121 -75 -276 -75q-142 0 -264 71t-193.5 193t-71.5 264t71.5 264t193.5 193t264 71q150 0 276 -77v61zM674 1399q0 59 39.5 98t97.5 39
q60 0 99.5 -38.5t39.5 -98.5q0 -57 -40 -97t-99 -40q-57 0 -97 40t-40 97zM252 1399q0 60 39.5 98.5t99.5 38.5q58 0 97.5 -39t39.5 -98q0 -57 -40 -97t-97 -40q-59 0 -99 40t-40 97z" />
    <glyph glyph-name="aring" unicode="&#xe5;" horiz-adv-x="1202" 
d="M330 512q0 -107 73 -180.5t179 -73.5t179 73.5t73 180.5t-73 180.5t-179 73.5t-179 -73.5t-73 -180.5zM858 1024h254v-1024h-254v59q-121 -75 -276 -75q-142 0 -264 71t-193.5 193t-71.5 264t71.5 264t193.5 193t264 71q150 0 276 -77v61zM397 1389q0 86 58.5 144
t144.5 58t144.5 -58t58.5 -144t-58.5 -144.5t-144.5 -58.5t-144.5 58.5t-58.5 144.5zM469 1389q0 -54 38.5 -93t92.5 -39t92.5 39t38.5 93t-38.5 92.5t-92.5 38.5t-92.5 -38.5t-38.5 -92.5z" />
    <glyph glyph-name="ae" unicode="&#xe6;" horiz-adv-x="1896" 
d="M1395 238q71 0 134 20t142 61l113 -198q-104 -74 -197.5 -105.5t-218.5 -31.5q-144 0 -256 59v-43h-256v59q-121 -75 -274 -75q-142 0 -264 71t-193.5 193t-71.5 264t71.5 264t193.5 193t264 71q148 0 274 -77l2 61h254v-45q115 59 242 59q223 0 346 -138t123 -365
q0 -55 -6 -117h-670q-6 0 -6 -10q24 -76 92.5 -123t161.5 -47zM330 512q0 -107 73 -180.5t179 -73.5t179 73.5t73 180.5t-73 180.5t-179 73.5t-179 -73.5t-73 -180.5zM1343 795q-83 0 -147 -64q-27 -27 -43 -57.5t-16 -44.5q0 -6 8 -6h387q8 0 8 4q0 26 -11 57.5t-34 54.5
q-56 56 -152 56z" />
    <glyph glyph-name="ccedilla" unicode="&#xe7;" horiz-adv-x="1126" 
d="M602 1040q130 0 250 -66.5t184 -164.5l-207 -154q-3 2 -25 22.5t-29.5 26t-30 21t-39 21t-43.5 11t-56 5.5q-104 0 -177 -72.5t-73 -175.5q0 -104 73 -177t177 -73q70 0 121 32t100 101l244 -123q-66 -126 -181 -203.5t-257 -84.5l-68 -90q7 0 22.5 3t22.5 3
q68 0 111 -42t43 -114q0 -63 -37 -108t-86.5 -64.5t-103.5 -19.5q-35 0 -93 9.5t-84 24.5v129q6 -3 46 -14q47 -14 83 -14h19q59 0 59 57q0 26 -11 39t-23.5 15.5t-34.5 2.5h-117l135 189q-192 29 -318 176.5t-126 345.5q0 143 70.5 264t192.5 191.5t267 70.5z" />
    <glyph glyph-name="egrave" unicode="&#xe8;" horiz-adv-x="1091" 
d="M614 238q71 0 135 20t142 61l113 -198q-104 -74 -197.5 -105.5t-218.5 -31.5q-230 0 -380.5 150t-150.5 380q0 219 149.5 371.5t366.5 152.5q223 0 346 -138t123 -365q0 -55 -6 -117h-669q-7 0 -7 -10q24 -76 92.5 -123t161.5 -47zM563 795q-83 0 -147 -64
q-28 -28 -44 -58.5t-16 -43.5q0 -6 9 -6h387q8 0 8 4q0 26 -11 57.5t-34 54.5q-56 56 -152 56zM403 1569l381 -162l-127 -199l-352 144z" />
    <glyph glyph-name="eacute" unicode="&#xe9;" horiz-adv-x="1091" 
d="M614 238q71 0 135 20t142 61l113 -198q-104 -74 -197.5 -105.5t-218.5 -31.5q-230 0 -380.5 150t-150.5 380q0 219 149.5 371.5t366.5 152.5q223 0 346 -138t123 -365q0 -55 -6 -117h-669q-7 0 -7 -10q24 -76 92.5 -123t161.5 -47zM563 795q-83 0 -147 -64
q-28 -28 -44 -58.5t-16 -43.5q0 -6 9 -6h387q8 0 8 4q0 26 -11 57.5t-34 54.5q-56 56 -152 56zM305 1407l381 162l98 -217l-352 -144z" />
    <glyph glyph-name="ecircumflex" unicode="&#xea;" horiz-adv-x="1091" 
d="M614 238q71 0 135 20t142 61l113 -198q-104 -74 -197.5 -105.5t-218.5 -31.5q-230 0 -380.5 150t-150.5 380q0 219 149.5 371.5t366.5 152.5q223 0 346 -138t123 -365q0 -55 -6 -117h-669q-7 0 -7 -10q24 -76 92.5 -123t161.5 -47zM563 795q-83 0 -147 -64
q-28 -28 -44 -58.5t-16 -43.5q0 -6 9 -6h387q8 0 8 4q0 26 -11 57.5t-34 54.5q-56 56 -152 56zM236 1446l307 119l313 -131l-131 -199l-182 80l-178 -68z" />
    <glyph glyph-name="edieresis" unicode="&#xeb;" horiz-adv-x="1091" 
d="M614 238q71 0 135 20t142 61l113 -198q-104 -74 -197.5 -105.5t-218.5 -31.5q-230 0 -380.5 150t-150.5 380q0 219 149.5 371.5t366.5 152.5q223 0 346 -138t123 -365q0 -55 -6 -117h-669q-7 0 -7 -10q24 -76 92.5 -123t161.5 -47zM563 795q-83 0 -147 -64
q-28 -28 -44 -58.5t-16 -43.5q0 -6 9 -6h387q8 0 8 4q0 26 -11 57.5t-34 54.5q-56 56 -152 56zM618 1399q0 59 40 98t98 39q60 0 99.5 -38.5t39.5 -98.5q0 -57 -39.5 -97t-99.5 -40q-57 0 -97.5 40t-40.5 97zM197 1399q0 60 39.5 98.5t99.5 38.5q58 0 97.5 -39t39.5 -98
q0 -57 -40 -97t-97 -40q-60 0 -99.5 40t-39.5 97z" />
    <glyph glyph-name="igrave" unicode="&#xec;" horiz-adv-x="430" 
d="M92 0v1024h248v-1024h-248zM76 1569l381 -162l-127 -199l-353 144z" />
    <glyph glyph-name="iacute" unicode="&#xed;" horiz-adv-x="430" 
d="M92 0v1024h248v-1024h-248zM-23 1407l381 162l99 -217l-353 -144z" />
    <glyph glyph-name="icircumflex" unicode="&#xee;" horiz-adv-x="430" 
d="M92 0v1024h248v-1024h-248zM-92 1446l307 119l313 -131l-131 -199l-182 80l-178 -68z" />
    <glyph glyph-name="idieresis" unicode="&#xef;" horiz-adv-x="430" 
d="M92 0v1024h248v-1024h-248zM291 1399q0 59 39.5 98t97.5 39q60 0 99.5 -38.5t39.5 -98.5q0 -57 -39.5 -97t-99.5 -40q-57 0 -97 40t-40 97zM-131 1399q0 60 39.5 98.5t99.5 38.5q58 0 97.5 -39t39.5 -98q0 -57 -40 -97t-97 -40q-60 0 -99.5 40t-39.5 97z" />
    <glyph glyph-name="eth" unicode="&#xf0;" horiz-adv-x="1310" 
d="M907 528q0 107 -71.5 179.5t-180.5 72.5q-106 0 -179 -73t-73 -179q0 -109 72.5 -180.5t179.5 -71.5q110 0 181 71t71 181zM928 1370l-113 -78l311 -489q74 -116 74 -275q0 -148 -73 -273.5t-198.5 -198t-273.5 -72.5q-111 0 -211.5 43t-173.5 116t-116 173.5t-43 211.5
q0 215 146 358.5t366 164.5q4 0 4 4t-2 6l-43 63l-103 -73l-135 192l105 76l-56 80l230 170l65 -80l107 74z" />
    <glyph glyph-name="ntilde" unicode="&#xf1;" horiz-adv-x="1091" 
d="M90 0v1024h254v-39q83 55 203 55q217 0 337 -118t120 -334v-588h-279v584q0 74 -52.5 126t-125.5 52q-72 0 -123 -47t-55 -119v-596h-279zM205 1237l2 248q4 2 28.5 14t44.5 20.5t54 16.5t67 8q51 0 139.5 -25.5t114.5 -25.5q99 0 232 84v-223q-5 -3 -29.5 -22.5t-45 -33
t-56 -26t-70.5 -12.5q-41 0 -139 26.5t-139 26.5q-146 0 -203 -76z" />
    <glyph glyph-name="ograve" unicode="&#xf2;" horiz-adv-x="1191" 
d="M352 514q0 -104 73 -177t177 -73q103 0 175.5 73t72.5 177q0 103 -72.5 175.5t-175.5 72.5q-104 0 -177 -72.5t-73 -175.5zM72 514q0 143 70.5 264t192.5 191.5t267 70.5q143 0 264 -70.5t191.5 -191.5t70.5 -264q0 -145 -70.5 -267t-191.5 -192.5t-264 -70.5
q-145 0 -267 70.5t-192.5 192.5t-70.5 267zM455 1569l381 -162l-127 -199l-353 144z" />
    <glyph glyph-name="oacute" unicode="&#xf3;" horiz-adv-x="1191" 
d="M352 514q0 -104 73 -177t177 -73q103 0 175.5 73t72.5 177q0 103 -72.5 175.5t-175.5 72.5q-104 0 -177 -72.5t-73 -175.5zM72 514q0 143 70.5 264t192.5 191.5t267 70.5q143 0 264 -70.5t191.5 -191.5t70.5 -264q0 -145 -70.5 -267t-191.5 -192.5t-264 -70.5
q-145 0 -267 70.5t-192.5 192.5t-70.5 267zM356 1407l381 162l99 -217l-353 -144z" />
    <glyph glyph-name="ocircumflex" unicode="&#xf4;" horiz-adv-x="1191" 
d="M352 514q0 -104 73 -177t177 -73q103 0 175.5 73t72.5 177q0 103 -72.5 175.5t-175.5 72.5q-104 0 -177 -72.5t-73 -175.5zM72 514q0 143 70.5 264t192.5 191.5t267 70.5q143 0 264 -70.5t191.5 -191.5t70.5 -264q0 -145 -70.5 -267t-191.5 -192.5t-264 -70.5
q-145 0 -267 70.5t-192.5 192.5t-70.5 267zM285 1446l307 119l313 -131l-131 -199l-182 80l-178 -68z" />
    <glyph glyph-name="otilde" unicode="&#xf5;" horiz-adv-x="1191" 
d="M352 514q0 -104 73 -177t177 -73q103 0 175.5 73t72.5 177q0 103 -72.5 175.5t-175.5 72.5q-104 0 -177 -72.5t-73 -175.5zM72 514q0 143 70.5 264t192.5 191.5t267 70.5q143 0 264 -70.5t191.5 -191.5t70.5 -264q0 -145 -70.5 -267t-191.5 -192.5t-264 -70.5
q-145 0 -267 70.5t-192.5 192.5t-70.5 267zM254 1237l2 248q4 2 29 14t45 20.5t54 16.5t67 8q51 0 139.5 -25.5t114.5 -25.5q98 0 231 84v-223q-5 -3 -29.5 -22.5t-45 -33t-56 -26t-70.5 -12.5q-41 0 -139 26.5t-139 26.5q-146 0 -203 -76z" />
    <glyph glyph-name="odieresis" unicode="&#xf6;" horiz-adv-x="1191" 
d="M352 514q0 -104 73 -177t177 -73q103 0 175.5 73t72.5 177q0 103 -72.5 175.5t-175.5 72.5q-104 0 -177 -72.5t-73 -175.5zM72 514q0 143 70.5 264t192.5 191.5t267 70.5q143 0 264 -70.5t191.5 -191.5t70.5 -264q0 -145 -70.5 -267t-191.5 -192.5t-264 -70.5
q-145 0 -267 70.5t-192.5 192.5t-70.5 267zM668 1399q0 59 39.5 98t97.5 39q60 0 99.5 -38.5t39.5 -98.5q0 -57 -40 -97t-99 -40q-57 0 -97 40t-40 97zM246 1399q0 60 39.5 98.5t99.5 38.5q58 0 97.5 -39t39.5 -98q0 -57 -40 -97t-97 -40q-59 0 -99 40t-40 97z" />
    <glyph glyph-name="divide" unicode="&#xf7;" 
d="M102 641h1024v-233h-1024v233zM453 864q0 66 46.5 113t112.5 47t113 -47t47 -113t-47 -112.5t-113 -46.5t-112.5 46.5t-46.5 112.5zM453 184q0 66 46.5 113t112.5 47t113 -47t47 -113t-47 -112.5t-113 -46.5t-112.5 46.5t-46.5 112.5z" />
    <glyph glyph-name="oslash" unicode="&#xf8;" horiz-adv-x="1191" 
d="M475 -127h-125l39 154q-144 62 -230.5 192.5t-86.5 294.5q0 143 70.5 264t192.5 191.5t267 70.5q40 0 80 -6l35 115h131l-43 -150q145 -63 234 -193.5t89 -291.5q0 -145 -70.5 -267t-191.5 -192.5t-264 -70.5q-51 0 -92 8zM879 514q0 77 -39.5 142.5t-106.5 101.5
l-151 -520h20q116 0 196.5 80.5t80.5 195.5zM326 514q0 -77 36.5 -140.5t100.5 -99.5l149 517h-10q-115 0 -195.5 -80.5t-80.5 -196.5z" />
    <glyph glyph-name="ugrave" unicode="&#xf9;" horiz-adv-x="1095" 
d="M1004 1024v-1024h-261v39q-72 -55 -196 -55q-217 0 -337 118t-120 334v588h279v-584q0 -74 52.5 -126t125.5 -52t125.5 47.5t52.5 118.5v596h279zM406 1569l380 -162l-127 -199l-352 144z" />
    <glyph glyph-name="uacute" unicode="&#xfa;" horiz-adv-x="1095" 
d="M1004 1024v-1024h-261v39q-72 -55 -196 -55q-217 0 -337 118t-120 334v588h279v-584q0 -74 52.5 -126t125.5 -52t125.5 47.5t52.5 118.5v596h279zM307 1407l381 162l98 -217l-352 -144z" />
    <glyph glyph-name="ucircumflex" unicode="&#xfb;" horiz-adv-x="1095" 
d="M1004 1024v-1024h-261v39q-72 -55 -196 -55q-217 0 -337 118t-120 334v588h279v-584q0 -74 52.5 -126t125.5 -52t125.5 47.5t52.5 118.5v596h279zM238 1446l307 119l313 -131l-131 -199l-182 80l-178 -68z" />
    <glyph glyph-name="udieresis" unicode="&#xfc;" horiz-adv-x="1095" 
d="M1004 1024v-1024h-261v39q-72 -55 -196 -55q-217 0 -337 118t-120 334v588h279v-584q0 -74 52.5 -126t125.5 -52t125.5 47.5t52.5 118.5v596h279zM621 1399q0 59 39.5 98t97.5 39q60 0 99.5 -38.5t39.5 -98.5q0 -57 -39.5 -97t-99.5 -40q-57 0 -97 40t-40 97zM199 1399
q0 60 39.5 98.5t99.5 38.5q58 0 97.5 -39t39.5 -98q0 -57 -40 -97t-97 -40q-60 0 -99.5 40t-39.5 97z" />
    <glyph glyph-name="yacute" unicode="&#xfd;" horiz-adv-x="976" 
d="M950 1024l-493 -1448h-297l180 512q2 4 2 18q0 13 -2 17l-313 901h299l159 -549q2 -2 2 -4q0 -4 2 -4l5 4q0 2 2 4l159 549h295zM248 1407l381 162l98 -217l-352 -144z" />
    <glyph glyph-name="thorn" unicode="&#xfe;" horiz-adv-x="1230" 
d="M877 512q0 107 -73 180.5t-179 73.5t-179 -73.5t-73 -180.5t73 -180.5t179 -73.5t179 73.5t73 180.5zM92 -424v1858h279v-457q116 63 254 63q106 0 204 -42t169 -113t113 -169t42 -204t-42 -204t-113 -169t-169 -113t-204 -42q-137 0 -254 65v-473h-279z" />
    <glyph glyph-name="ydieresis" unicode="&#xff;" horiz-adv-x="976" 
d="M950 1024l-493 -1448h-297l180 512q2 4 2 18q0 13 -2 17l-313 901h299l159 -549q2 -2 2 -4q0 -4 2 -4l5 4q0 2 2 4l159 549h295zM139 1399q0 60 40 98.5t100 38.5q58 0 97.5 -39t39.5 -98q0 -57 -40 -97t-97 -40q-60 0 -100 40t-40 97zM561 1399q0 59 39.5 98t97.5 39
q60 0 100 -38.5t40 -98.5q0 -57 -40 -97t-100 -40q-57 0 -97 40t-40 97z" />
    <glyph glyph-name="dotlessi" unicode="&#x131;" horiz-adv-x="430" 
d="M92 0v1024h248v-1024h-248z" />
    <glyph glyph-name="Lslash" unicode="&#x141;" horiz-adv-x="1224" 
d="M604 293h514v-293h-807v502l-131 -131l-166 166l297 297v702h293v-410l174 174l166 -165l-340 -340v-502z" />
    <glyph glyph-name="lslash" unicode="&#x142;" horiz-adv-x="913" 
d="M315 823v611h279v-332l121 121l166 -166l-287 -287v-770h-279v492l-120 -121l-166 166z" />
    <glyph glyph-name="OE" unicode="&#x152;" horiz-adv-x="2314" 
d="M1683 612v-307q0 -12 13 -12h538v-293h-843v158q-216 -174 -494 -174q-160 0 -305 62t-250 167t-167 250t-62 305t62 305t167 250t250 167t305 62q278 0 494 -174v158h843v-293h-538q-13 0 -13 -12v-301q0 -12 13 -12h538v-293h-538q-13 0 -13 -13zM406 768
q0 -133 66 -246.5t179 -179.5t246 -66q99 0 190.5 39t157.5 105t105 157.5t39 190.5t-39 190.5t-105 157.5t-157.5 105t-190.5 39q-133 0 -246 -66t-179 -179.5t-66 -246.5z" />
    <glyph glyph-name="oe" unicode="&#x153;" horiz-adv-x="1892" 
d="M1409 238q71 0 135 20t142 61l112 -198q-104 -74 -197.5 -105.5t-218.5 -31.5q-244 0 -397 166q-74 -78 -172.5 -122t-210.5 -44q-145 0 -267 70.5t-192.5 192.5t-70.5 267q0 143 70.5 264t192.5 191.5t267 70.5q112 0 211.5 -45t173.5 -125q73 79 170.5 123.5
t210.5 44.5q223 0 346 -138t123 -365q0 -55 -6 -117h-670q-6 0 -6 -10q24 -76 92.5 -123t161.5 -47zM352 514q0 -104 73 -177t177 -73q103 0 175.5 73t72.5 177q0 103 -72.5 175.5t-175.5 72.5q-104 0 -177 -72.5t-73 -175.5zM1358 795q-84 0 -148 -64q-27 -27 -43 -57.5
t-16 -44.5q0 -6 8 -6h387q8 0 8 4q0 26 -11 57.5t-34 54.5q-56 56 -151 56z" />
    <glyph glyph-name="Scaron" unicode="&#x160;" horiz-adv-x="1103" 
d="M113 307l233 101q38 -63 82.5 -98.5t118.5 -35.5q65 0 108 46.5t43 109.5q0 50 -14 85t-49 60.5t-58.5 37t-78.5 32.5l-15 6q-84 32 -146.5 69.5t-115 89.5t-79.5 123t-27 159q0 207 122 331.5t326 124.5q122 0 232.5 -67.5t148.5 -186.5l-264 -127q-39 86 -135 86
q-56 0 -96.5 -45.5t-40.5 -103.5q0 -52 44.5 -97t114.5 -75q156 -65 205 -96q116 -69 167.5 -164t51.5 -242q0 -186 -126 -316t-306 -130h-18q-154 0 -269 90.5t-159 232.5zM549 1645l-307 118l129 199l178 -68l182 80l131 -198z" />
    <glyph glyph-name="scaron" unicode="&#x161;" horiz-adv-x="735" 
d="M59 205l193 117q18 -24 26.5 -34.5t30 -24t45.5 -13.5q20 0 39 17.5t19 41.5q0 21 -10 38.5t-31.5 32.5t-33 21.5t-36.5 18.5l-37 18.5t-39.5 23.5t-45.5 32.5t-39 40t-36 53t-22 64t-10 79.5q0 141 82 225t223 84q100 0 170.5 -63.5t109.5 -163.5l-190 -100
q-11 31 -30 47t-52 16q-20 0 -37.5 -16t-17.5 -39q0 -24 17.5 -45.5t38.5 -34t62 -35t64 -37.5q71 -47 113.5 -112.5t42.5 -169.5q0 -127 -86.5 -215t-208.5 -88q-109 0 -188.5 62t-125.5 159zM365 1235l-308 119l129 198l179 -67l182 80l131 -199z" />
    <glyph glyph-name="Ydieresis" unicode="&#x178;" horiz-adv-x="1216" 
d="M33 1536h323l246 -614q4 -7 6 -7t6 7l248 612h320l-426 -981v-553h-293v553zM680 1808q0 59 39.5 98.5t97.5 39.5q60 0 99.5 -39t39.5 -99q0 -58 -40 -97.5t-99 -39.5q-57 0 -97 40t-40 97zM258 1808q0 60 39.5 99t99.5 39q58 0 98 -39.5t40 -98.5q0 -57 -40.5 -97
t-97.5 -40q-59 0 -99 39.5t-40 97.5z" />
    <glyph glyph-name="Zcaron" unicode="&#x17d;" horiz-adv-x="1200" 
d="M721 1208q6 12 6 19q0 16 -35 16h-577v293h966v-227q1 -1 -151 -243.5t-305 -492t-154 -264.5q0 -16 35 -16h575v-293h-966v225q162 257 305 492zM596 1645l-307 118l129 199l178 -68l182 80l131 -198z" />
    <glyph glyph-name="zcaron" unicode="&#x17e;" horiz-adv-x="874" 
d="M426 717q8 8 8 16q0 17 -35 17h-319v274h715v-209q1 0 -88 -125t-180 -256t-91 -143q0 -15 31 -15h328v-276h-715v219l176 248q34 50 80 117.5t68.5 100t21.5 32.5zM434 1235l-307 119l129 198l178 -67l182 80l132 -199z" />
    <glyph glyph-name="florin" unicode="&#x192;" horiz-adv-x="972" 
d="M567 774v-754q0 -139 -71 -216.5t-205 -77.5h-275v241h160q60 0 86.5 19.5t26.5 76.5v711h-221v250h221v119q0 139 71 217t205 78h279v-242h-164q-60 0 -86.5 -19.5t-26.5 -76.5v-76h334v-250h-334z" />
    <glyph glyph-name="circumflex" unicode="&#x2c6;" horiz-adv-x="815" 
d="M98 1446l308 119l313 -131l-131 -199l-182 80l-179 -68z" />
    <glyph glyph-name="caron" unicode="&#x2c7;" horiz-adv-x="813" 
d="M406 1235l-308 119l129 198l179 -67l182 80l131 -199z" />
    <glyph glyph-name="breve" unicode="&#x2d8;" horiz-adv-x="860" 
d="M57 1405l185 147l6 -6q21 -21 31.5 -30.5t36.5 -28.5t54 -28t60 -9q31 0 59 12t43.5 26t37 36t30.5 30l184 -155q-38 -75 -136.5 -128.5t-217.5 -53.5q-127 0 -231 54.5t-142 133.5z" />
    <glyph glyph-name="dotaccent" unicode="&#x2d9;" horiz-adv-x="505" 
d="M117 1386q0 60 38.5 100t98.5 40t99.5 -40t39.5 -100t-39.5 -98.5t-99.5 -38.5t-98.5 38.5t-38.5 98.5z" />
    <glyph glyph-name="ring" unicode="&#x2da;" horiz-adv-x="630" 
d="M113 1389q0 86 58 144t144 58t144.5 -58t58.5 -144t-58.5 -144.5t-144.5 -58.5t-144 58.5t-58 144.5zM184 1389q0 -54 38.5 -93t92.5 -39t92.5 39t38.5 93t-38.5 92.5t-92.5 38.5t-92.5 -38.5t-38.5 -92.5z" />
    <glyph glyph-name="ogonek" unicode="&#x2db;" horiz-adv-x="612" 
d="M338 0h141q-63 -34 -117.5 -100t-54.5 -131q0 -37 19.5 -57.5t54.5 -20.5q28 0 78 16l43 17v-107q-30 -22 -92.5 -42.5t-110.5 -20.5q-85 0 -136.5 46.5t-51.5 125.5q0 85 73.5 163t153.5 111z" />
    <glyph glyph-name="tilde" unicode="&#x2dc;" horiz-adv-x="909" 
d="M113 1237l2 248q4 2 28.5 14t44.5 20.5t54 16.5t67 8q51 0 139.5 -25.5t114.5 -25.5q99 0 232 84v-223q-5 -3 -29.5 -22.5t-45 -33t-56 -26t-70.5 -12.5q-41 0 -139.5 26.5t-139.5 26.5q-145 0 -202 -76z" />
    <glyph glyph-name="hungarumlaut" unicode="&#x2dd;" horiz-adv-x="1226" 
d="M109 1440l380 162l99 -218l-352 -143zM643 1440l381 162l98 -218l-352 -143z" />
    <glyph glyph-name="endash" unicode="&#x2013;" horiz-adv-x="1257" 
d="M115 705h1026v-234h-1026v234z" />
    <glyph glyph-name="emdash" unicode="&#x2014;" horiz-adv-x="1617" 
d="M117 705h1384v-234h-1384v234z" />
    <glyph glyph-name="quoteleft" unicode="&#x2018;" horiz-adv-x="460" 
d="M82 1536h237l37 -375l-161 -20z" />
    <glyph glyph-name="quoteright" unicode="&#x2019;" horiz-adv-x="460" 
d="M119 1536h237l-112 -395l-162 20z" />
    <glyph glyph-name="quotesinglbase" unicode="&#x201a;" horiz-adv-x="460" 
d="M119 240h237l-112 -396l-162 21z" />
    <glyph glyph-name="quotedblleft" unicode="&#x201c;" horiz-adv-x="790" 
d="M82 1536h237l37 -375l-161 -20zM403 1536h238l37 -375l-162 -20z" />
    <glyph glyph-name="quotedblright" unicode="&#x201d;" horiz-adv-x="790" 
d="M440 1536h238l-113 -395l-162 20zM119 1536h237l-112 -395l-162 20z" />
    <glyph glyph-name="quotedblbase" unicode="&#x201e;" horiz-adv-x="790" 
d="M440 240h238l-113 -396l-162 21zM119 240h237l-112 -396l-162 21z" />
    <glyph glyph-name="dagger" unicode="&#x2020;" horiz-adv-x="1376" 
d="M553 -383v1219h-455v245h455v453h270v-453h453v-245h-453v-1219h-270z" />
    <glyph glyph-name="daggerdbl" unicode="&#x2021;" horiz-adv-x="1380" 
d="M555 -377v817h-455v246h455v150h-455v245h455v455h270v-455h453v-245h-453v-150h453v-246h-453v-817h-270z" />
    <glyph glyph-name="bullet" unicode="&#x2022;" horiz-adv-x="716" 
d="M113 614q0 101 72 173.5t173 72.5t173.5 -72.5t72.5 -173.5t-72.5 -173t-173.5 -72t-173 72t-72 173z" />
    <glyph glyph-name="ellipsis" unicode="&#x2026;" horiz-adv-x="1501" 
d="M117 106q0 49 35.5 87t89.5 38q46 0 80 -38.5t34 -86.5q0 -47 -33.5 -80.5t-80.5 -33.5q-55 0 -90 33t-35 81zM631 106q0 49 35.5 87t89.5 38q46 0 80 -38.5t34 -86.5q0 -47 -33.5 -80.5t-80.5 -33.5q-55 0 -90 33t-35 81zM1145 106q0 49 35.5 87t89.5 38q46 0 80 -38.5
t34 -86.5q0 -47 -33.5 -80.5t-80.5 -33.5q-55 0 -90 33t-35 81z" />
    <glyph glyph-name="perthousand" unicode="&#x2030;" horiz-adv-x="2660" 
d="M637 25q-20 -33 -59 -33q-29 0 -49.5 20t-20.5 49q0 16 10 39l713 1399q8 21 26 34t41 13q29 0 49.5 -20t20.5 -49q0 -18 -12 -39zM1231 369q0 -69 48.5 -117.5t117.5 -48.5t117.5 48.5t48.5 117.5t-48.5 117.5t-117.5 48.5t-117.5 -48.5t-48.5 -117.5zM1028 369
q0 154 107.5 261t261.5 107t261 -107t107 -261t-107 -261.5t-261 -107.5t-261.5 107.5t-107.5 261.5zM315 1167q0 -69 48.5 -117.5t117.5 -48.5t117.5 48.5t48.5 117.5t-48.5 117.5t-117.5 48.5t-117.5 -48.5t-48.5 -117.5zM113 1167q0 154 107 261.5t261 107.5
t261.5 -107.5t107.5 -261.5t-107.5 -261t-261.5 -107t-261 107t-107 261zM2019 369q0 -69 48.5 -117.5t117.5 -48.5t117.5 48.5t48.5 117.5t-48.5 117.5t-117.5 48.5t-117.5 -48.5t-48.5 -117.5zM1817 369q0 154 107 261t261 107t261.5 -107t107.5 -261t-107.5 -261.5
t-261.5 -107.5t-261 107.5t-107 261.5z" />
    <glyph glyph-name="guilsinglleft" unicode="&#x2039;" horiz-adv-x="655" 
d="M96 557l281 436l180 -149l-188 -287l194 -291l-196 -141z" />
    <glyph glyph-name="guilsinglright" unicode="&#x203a;" horiz-adv-x="655" 
d="M283 993l280 -436l-270 -432l-197 141l195 291l-189 287z" />
    <glyph glyph-name="fraction" unicode="&#x2044;" horiz-adv-x="1110" 
d="M178 -55l-108 57l848 1567l110 -62z" />
    <glyph glyph-name="Euro" unicode="&#x20ac;" horiz-adv-x="1232" 
d="M717 276q52 0 103 28t87 67l213 -201q-71 -82 -185 -134t-218 -52q-203 0 -344 127.5t-172 330.5q-4 16 -4 27h-111v240h109v106h-109v227h111q0 9 4 29q14 84 53.5 163.5t102 146t156.5 107t204 40.5q108 0 229.5 -54.5t177.5 -138.5l-219 -180q-47 49 -91 75.5
t-99 26.5q-158 0 -221 -176q-1 -3 -4.5 -12t-4.5 -14l-2 -8h402v-232h-402v-110h404v-242h-395q0 -15 2 -21q14 -65 80.5 -115.5t142.5 -50.5z" />
    <glyph glyph-name="trademark" unicode="&#x2122;" horiz-adv-x="1773" 
d="M1192 901l225 637h240v-924h-174v609q0 8 -8 8t-11 -8q-1 -2 -16.5 -48.5t-41.5 -121.5t-50 -140l-105 -299h-131l-102 299q-19 58 -47 138.5t-43 124t-15 47.5q-1 0 -3 1t-3 1t-2 -1t-2 -1h-2v-607h-182v922h235l226 -637q3 -6 6 -6q6 0 6 6zM494 612h-177v748q0 4 -6 4
h-200v176h589v-176h-200l-6 -6v-746z" />
    <glyph glyph-name="minus" unicode="&#x2212;" horiz-adv-x="1167" 
d="M117 641h936v-233h-936v233z" />
    <glyph glyph-name="fi" unicode="&#xfb01;" horiz-adv-x="1406" 
d="M289 1024v98q0 143 84 229.5t233 86.5h182v-242h-108q-113 0 -113 -117v-55h297v-250h-297v-774h-278v774h-166v250h166zM1038 0v1026h279v-1026h-279zM1038 1249q0 56 41.5 98t100.5 42q55 0 97 -42t42 -98q0 -59 -41.5 -100t-97.5 -41q-60 0 -101 40.5t-41 100.5z" />
    <glyph glyph-name="fl" unicode="&#xfb02;" horiz-adv-x="1435" 
d="M289 1024v98q0 143 84 229.5t233 86.5h182v-242h-108q-113 0 -113 -117v-55h297v-250h-297v-774h-278v774h-166v250h166zM1065 0v1434h278v-1434h-278z" />
    <glyph glyph-name="CR" horiz-adv-x="593" 
 />
    <glyph glyph-name="_164" horiz-adv-x="0" 
 />
    </font>
</defs>
</svg>
