<?xml version="1.0" standalone="no"?>
<!DOCTYPE svg PUBLIC "-//W3C//DTD SVG 1.1//EN" "http://www.w3.org/Graphics/SVG/1.1/DTD/svg11.dtd" >
<svg xmlns="http://www.w3.org/2000/svg" xmlns:xlink="http://www.w3.org/1999/xlink" version="1.1">
<metadata>
Created by FontForge 20201107 at Fri Mar  7 09:05:12 2025
 By 
Copyright (c) 2013 by Thinkdust. All rights reserved.
</metadata>
<defs>
<font id="Nanami-Book" horiz-adv-x="1228" >
  <font-face 
    font-family="Nanami"
    font-weight="350"
    font-stretch="normal"
    units-per-em="2048"
    panose-1="2 0 0 0 0 0 0 0 0 0"
    ascent="1536"
    descent="-512"
    x-height="1022"
    cap-height="1534"
    bbox="-104 -479 2529 1958"
    underline-thickness="102"
    underline-position="-204"
    unicode-range="U+0020-FB01"
  />
<missing-glyph horiz-adv-x="593" 
 />
    <glyph glyph-name=".notdef" horiz-adv-x="593" 
 />
    <glyph glyph-name=".null" horiz-adv-x="0" 
 />
    <glyph glyph-name="nonmarkingreturn" horiz-adv-x="682" 
 />
    <glyph glyph-name="space" unicode=" " horiz-adv-x="593" 
 />
    <glyph glyph-name="exclam" unicode="!" horiz-adv-x="401" 
d="M317 1536v-1229h-231v1229h231zM317 106q0 -46 -34.5 -80t-81.5 -34t-82 34t-35 80q0 49 34.5 83t82.5 34t82 -34t34 -83z" />
    <glyph glyph-name="quotedbl" unicode="&#x22;" horiz-adv-x="718" 
d="M430 940v596h188v-596h-188zM98 940v596h189v-596h-189z" />
    <glyph glyph-name="numbersign" unicode="#" horiz-adv-x="1378" 
d="M391 575l43 314h-284v137h307l57 424h137l-55 -424h272l58 424h135l-8 -70q-2 -19 -19 -138.5t-28 -215.5h286v-137h-307l-43 -314h285v-137h-305l-60 -438h-141q5 42 25 177.5t36 260.5h-274l-59 -438h-138q3 27 60 438h-285v137h305zM575 889l-43 -314h271l45 314h-273
z" />
    <glyph glyph-name="dollar" unicode="$" horiz-adv-x="1030" 
d="M90 283l225 36q54 -100 191 -100q80 0 140.5 60t60.5 143q0 37 -8.5 68t-27.5 55.5t-37 41.5t-50.5 34.5t-54 27t-60.5 25.5q-88 34 -151.5 71t-118.5 88.5t-83 121.5t-28 157q0 160 88 274t234 150v186h208v-184q91 -22 164.5 -79t110.5 -140l-215 -105
q-25 48 -70.5 72.5t-93.5 24.5q-74 0 -130 -57t-56 -130q0 -41 13.5 -73t41.5 -56t49 -37t57 -30q11 -5 63 -28.5t89.5 -42t63.5 -34.5q123 -69 180 -164.5t57 -236.5q0 -151 -92.5 -269.5t-231.5 -154.5v-186h-208v182q-131 17 -217 95t-103 194z" />
    <glyph glyph-name="percent" unicode="%" horiz-adv-x="1826" 
d="M1176 369q0 -82 56 -138.5t138 -56.5t138.5 56.5t56.5 138.5t-56.5 138t-138.5 56t-138 -56t-56 -138zM1001 369q0 154 107.5 261t261.5 107t261.5 -107t107.5 -261t-107.5 -261.5t-261.5 -107.5t-261.5 107.5t-107.5 261.5zM260 1167q0 -82 56.5 -138t138.5 -56t138 56
t56 138t-56 138.5t-138 56.5t-138.5 -56.5t-56.5 -138.5zM86 1167q0 154 107.5 261.5t261.5 107.5t261 -107.5t107 -261.5t-107 -261t-261 -107t-261.5 107t-107.5 261zM561 -20l-106 65l792 1503l109 -61q-99 -196 -218 -423.5t-217 -411.5t-181.5 -340.5t-131.5 -243.5z
" />
    <glyph glyph-name="ampersand" unicode="&#x26;" horiz-adv-x="1464" 
d="M1255 868l-182 -352q-8 -12 -10 -20q10 -15 12 -17l324 -313l-156 -166q-33 33 -96.5 94.5t-111.5 108.5t-83 82l-16 -33q-143 -268 -410 -268q-124 0 -229 58.5t-167 161.5t-62 226q0 258 290 449q-87 76 -133.5 152.5t-46.5 174.5q0 143 105 244.5t258 101.5
q139 0 241.5 -103t102.5 -243q0 -211 -191 -352l197 -197l164 314zM293 438q0 -96 66.5 -163.5t164.5 -67.5q146 0 238 196q18 30 18 46q-270 264 -272 266q-91 -53 -153 -123t-62 -154zM401 1204q0 -46 38 -97.5t104 -98.5q31 4 75 61.5t44 128.5q0 52 -38 89.5t-89 37.5
q-57 0 -95.5 -34t-38.5 -87z" />
    <glyph glyph-name="quotesingle" unicode="'" horiz-adv-x="382" 
d="M96 942v594h189v-594h-189z" />
    <glyph glyph-name="parenleft" unicode="(" horiz-adv-x="608" 
d="M96 332v776q0 325 242 516l154 -162q-100 -97 -129 -185t-29 -243v-628q0 -153 29.5 -241.5t128.5 -184.5l-154 -164q-242 191 -242 516z" />
    <glyph glyph-name="parenright" unicode=")" horiz-adv-x="604" 
d="M510 1108v-776q0 -323 -244 -516l-151 164q98 95 127.5 184t29.5 242v628q0 154 -29 242.5t-128 185.5l151 162q244 -190 244 -516z" />
    <glyph glyph-name="asterisk" unicode="*" horiz-adv-x="897" 
d="M72 991v193l252 -43l-211 145l137 137q108 -154 145 -211l-45 252h195l-45 -252q37 57 145 211l137 -139q-23 -15 -96.5 -65.5t-114.5 -77.5l252 43v-193l-252 45q57 -37 211 -145l-137 -137l-145 211l45 -252h-195l45 252q-37 -57 -145 -211l-137 137q154 108 211 145z
" />
    <glyph glyph-name="plus" unicode="+" horiz-adv-x="1171" 
d="M496 610v414h180v-414h422v-180h-422v-418h-180v418h-424v180h424z" />
    <glyph glyph-name="comma" unicode="," horiz-adv-x="368" 
d="M70 213l196 31q5 -64 13.5 -194.5t13.5 -196.5q-90 -10 -113 -11z" />
    <glyph glyph-name="hyphen" unicode="-" horiz-adv-x="843" 
d="M96 680h649v-184h-649v184z" />
    <glyph glyph-name="period" unicode="." horiz-adv-x="389" 
d="M197 -8q-45 0 -76 29t-31 71t31.5 73.5t75.5 31.5q39 0 69.5 -32.5t30.5 -72.5q0 -41 -29.5 -70.5t-70.5 -29.5z" />
    <glyph glyph-name="slash" unicode="/" horiz-adv-x="681" 
d="M178 -10l-117 26l443 1534l114 -30z" />
    <glyph glyph-name="zero" unicode="0" 
d="M614 -16q-134 0 -252 67.5t-189 186t-71 256.5v546q0 134 68.5 251.5t187 188t256.5 70.5q130 0 246.5 -66t190 -184.5t73.5 -259.5v-546q0 -135 -68.5 -252.5t-186.5 -187.5t-255 -70zM614 1309q-113 0 -194.5 -83t-81.5 -190v-538q0 -107 82.5 -191t193.5 -84
q110 0 190.5 83t80.5 192v538q0 109 -80.5 191t-190.5 82z" />
    <glyph glyph-name="one" unicode="1" 
d="M356 1317v219h478v-1536h-240v1296q0 21 -19 21h-219z" />
    <glyph glyph-name="two" unicode="2" 
d="M199 0l-49 180q172 172 520 512q128 119 179.5 213.5t51.5 190.5q0 87 -63 154t-164 67q-88 0 -163 -54t-128 -143q-17 18 -47 50.5t-55.5 60t-47.5 51.5q76 120 187 193t256 73q211 0 336 -132t125 -333q0 -126 -68 -249t-231 -287l-303 -291q-2 -3 -6 -7l-6.5 -6.5
t-2.5 -4.5q0 -5 8 -5h611v-233h-940z" />
    <glyph glyph-name="three" unicode="3" 
d="M248 1190l-96 199q166 163 376 163q188 0 301 -109.5t113 -271.5q0 -91 -46.5 -172t-113.5 -125q-6 -3 -6 -10q0 -1 10 -8q121 -64 182.5 -164t61.5 -227q0 -132 -61 -240.5t-173.5 -172.5t-254.5 -64q-230 0 -410 172l113 205q142 -142 288 -142q114 0 186.5 72.5
t72.5 175.5q0 112 -83 184.5t-212 81.5l-115 4v203l90 4q112 9 173 69t61 144q0 66 -50 115t-141 49q-67 0 -136.5 -36t-129.5 -99z" />
    <glyph glyph-name="four" unicode="4" 
d="M100 256v231l330 521q19 31 334 526h225v-973q0 -47 2 -67q12 -2 41 -2h109v-240h-111q-16 0 -26 -3t-13 -11t-4 -14t0.5 -19t1.5 -19v-186h-237v244q0 12 -13 12h-639zM741 1106q-273 -444 -376 -608q-3 -3 -3 -6q0 -7 9 -7h366q15 0 15 15v602q0 8 -4 8q-3 0 -7 -4z
" />
    <glyph glyph-name="five" unicode="5" 
d="M244 1536h712v-236h-510q-20 0 -22 -14l-47 -289q-2 -6 -2 -18l33 10q57 16 151 19q146 0 262 -65.5t180 -179.5t64 -253q0 -143 -69 -263.5t-189.5 -191.5t-265.5 -71q-129 0 -229.5 44.5t-192.5 133.5l104 213q66 -75 147.5 -114.5t166.5 -39.5q127 0 209.5 83.5
t82.5 201.5q0 116 -82 195t-204 79q-44 0 -83.5 -6.5t-70.5 -18t-51 -21t-42.5 -23t-27.5 -15.5l-135 140q3 38 8 69q16 100 51 310.5t52 320.5z" />
    <glyph glyph-name="six" unicode="6" 
d="M78 518q3 158 72 268l487 770l203 -126q-36 -59 -108.5 -169.5t-104.5 -162.5l-35 -58q10 2 39 2q105 -5 199 -44.5t165 -105.5t112.5 -163t41.5 -211q0 -110 -42.5 -209t-114 -170.5t-170 -113t-206.5 -41.5q-149 0 -272.5 70.5t-194.5 193.5t-71 270zM317 518
q0 -129 84 -213t213 -84q125 0 210 84.5t85 212.5q0 124 -86 210.5t-209 86.5q-128 0 -212.5 -85t-84.5 -212z" />
    <glyph glyph-name="seven" unicode="7" 
d="M178 1303v233h860l49 -147l-620 -1405l-219 94q71 160 239.5 546t257.5 584q5 12 18.5 41.5t20.5 46.5q0 7 -10 7h-596z" />
    <glyph glyph-name="eight" unicode="8" 
d="M614 -18q-134 0 -248 67.5t-179.5 181t-65.5 244.5q0 114 60 211.5t155 171.5q-139 130 -139 277q0 172 123 293.5t294 121.5q108 0 204 -54t154 -147t58 -200q0 -82 -33.5 -149t-105.5 -142q93 -69 154 -167.5t61 -215.5q0 -133 -67 -247t-180.5 -180t-244.5 -66z
M614 731q-108 0 -183 -75t-75 -181q0 -107 75.5 -182.5t182.5 -75.5q106 0 180 77t74 181q0 109 -73.5 182.5t-180.5 73.5zM614 1315q-76 0 -129 -53t-53 -127q0 -76 54 -130.5t128 -54.5t127.5 55.5t53.5 129.5q0 75 -53 127.5t-128 52.5z" />
    <glyph glyph-name="nine" unicode="9" 
d="M1149 1010q-3 -161 -72 -269q-148 -236 -485 -761q-149 90 -203 124q36 59 107.5 166.5t103.5 159.5l35 57q-10 -2 -39 -2q-105 5 -199 44.5t-165 106t-112.5 163.5t-41.5 211q0 146 71.5 269t194 194t266.5 71q149 0 273 -71t195 -194t71 -269zM909 1010q0 129 -84 213
t-213 84q-125 0 -210 -84.5t-85 -212.5q0 -124 86 -210.5t209 -86.5q128 0 212.5 85t84.5 212z" />
    <glyph glyph-name="colon" unicode=":" horiz-adv-x="393" 
d="M199 -8q-45 0 -76 29t-31 71t31.5 73.5t75.5 31.5q39 0 69.5 -32.5t30.5 -72.5q0 -41 -29.5 -70.5t-70.5 -29.5zM199 729q-45 0 -76 29t-31 71q0 45 31 75t76 30q40 0 70 -30.5t30 -74.5q0 -41 -29.5 -70.5t-70.5 -29.5z" />
    <glyph glyph-name="semicolon" unicode=";" horiz-adv-x="378" 
d="M90 831q0 44 30.5 74.5t72.5 30.5q43 0 73.5 -31t30.5 -74q0 -42 -30 -71t-74 -29q-43 0 -73 29.5t-30 70.5zM72 213l196 31l25 -391q-90 -10 -113 -11q-18 62 -54.5 185.5t-53.5 185.5z" />
    <glyph glyph-name="less" unicode="&#x3c;" horiz-adv-x="1296" 
d="M84 440v156l1081 436l19 -141q-25 -10 -85 -36t-154 -66t-163 -70l-483 -207q401 -170 885 -369l-21 -141z" />
    <glyph glyph-name="equal" unicode="=" horiz-adv-x="1132" 
d="M98 627h934v-217h-934v217z" />
    <glyph glyph-name="greater" unicode="&#x3e;" horiz-adv-x="1329" 
d="M1200 596q0 -26 1 -78t1 -78l-1081 -438l-19 141q484 199 885 369l-485 207q-69 30 -163 70t-154 66t-85 36l21 141z" />
    <glyph glyph-name="question" unicode="?" horiz-adv-x="888" 
d="M524 106q0 -46 -33.5 -80t-82.5 -34q-47 0 -82 34t-35 80q0 49 34.5 83t82.5 34q49 0 82.5 -33.5t33.5 -83.5zM502 352l-226 -33q-55 131 -55 230q0 73 19.5 136t50.5 108.5t69 85.5t76 74.5t69 67.5t50.5 72t19.5 81q0 137 -139 137q-24 0 -48.5 -7.5t-41.5 -16
t-39.5 -27.5t-32 -28t-31.5 -33t-26 -28l-158 156q52 81 159 151t224 70q167 0 271 -95t104 -273q0 -74 -20 -136.5t-51.5 -105.5t-70 -80t-77 -70t-70 -66.5t-51.5 -77.5t-20 -95q0 -76 45 -197z" />
    <glyph glyph-name="at" unicode="@" horiz-adv-x="1820" 
d="M1055 674l37 147q8 31 8 64q0 79 -48.5 122.5t-117.5 43.5q-117 0 -200 -119t-83 -285q0 -96 41 -148.5t121 -52.5q79 0 147.5 64t94.5 164zM1055 518q-73 -98 -134.5 -131t-146.5 -33q-131 0 -201.5 76.5t-70.5 216.5q0 208 121 350t290 142q84 0 136 -30t86 -105
l57 112l121 -6l-127 -510q-10 -31 -10 -55q0 -37 24 -58.5t66 -21.5q85 0 162.5 65.5t124 173.5t46.5 226q0 225 -167 360t-449 135q-127 0 -245 -37t-211 -104.5t-163 -156.5t-107.5 -198t-37.5 -224q0 -127 54 -238.5t146.5 -189.5t220.5 -123t273 -45q345 0 551 143
l49 -66q-272 -202 -589 -202q-245 0 -435 93.5t-294.5 261t-104.5 380.5q0 143 47.5 273t132.5 231t197.5 175.5t248 114t277.5 39.5q153 0 288 -45t234 -125.5t156.5 -197.5t57.5 -254q0 -104 -37 -207.5t-100 -185t-156.5 -132.5t-198.5 -51q-29 0 -58 8.5t-58 26
t-47 51.5t-19 78z" />
    <glyph glyph-name="A" unicode="A" horiz-adv-x="1398" 
d="M1366 0h-254q0 1 -20 56t-32 86.5t-31 78.5t-32 70.5t-20 23.5h-557q-16 0 -19 -12l-114 -303h-254l575 1536h178zM698 1108q-4 0 -4 -8l-196 -541q-2 -2 -2 -8q0 -8 8 -8h387q12 0 12 10q0 1 -1 3t-1 3l-196 541q-2 2 -3 5q-2 3 -4 3z" />
    <glyph glyph-name="B" unicode="B" horiz-adv-x="1116" 
d="M563 0h-465v1536h396q186 0 307 -120.5t121 -297.5q0 -95 -26.5 -159.5t-76.5 -127.5q96 -62 148.5 -161t52.5 -219q0 -194 -130.5 -322.5t-326.5 -128.5zM352 238h207q57 0 101.5 20.5t69.5 54t37.5 71t12.5 75.5t-12.5 75.5t-37.5 71.5t-69.5 55t-101.5 21h-209
q-12 -3 -12 -12v-418q0 -14 14 -14zM690 1102q0 34 -11.5 66.5t-34.5 62.5t-64 48.5t-95 18.5h-133q-14 0 -14 -16v-369q0 -14 12 -14h142q100 3 149 65.5t49 137.5z" />
    <glyph glyph-name="C" unicode="C" horiz-adv-x="1441" 
d="M877 -16q-163 0 -307 56.5t-250 156.5t-167 247.5t-61 321.5q0 159 62.5 304.5t167.5 251t250.5 168t304.5 62.5q84 0 162.5 -15.5t128.5 -35t98.5 -47.5t65 -41t34.5 -29l-145 -192q-146 121 -347 121q-151 -2 -276 -75.5t-196.5 -198.5t-71.5 -273q0 -151 73.5 -276.5
t199 -197t274.5 -71.5q198 0 344 121l139 -186q-197 -172 -483 -172z" />
    <glyph glyph-name="D" unicode="D" horiz-adv-x="1449" 
d="M350 238h236q224 0 377 153t153 377t-151 376t-375 152h-240q-12 0 -12 -10v-1036q0 -12 12 -12zM98 0v1536h488q210 0 387 -104t279 -280.5t102 -383.5q0 -208 -102 -384.5t-279 -280t-387 -103.5h-488z" />
    <glyph glyph-name="E" unicode="E" horiz-adv-x="999" 
d="M338 641v-391q0 -12 12 -12h549v-238h-799v1536h799v-240h-549q-12 0 -12 -10v-385q0 -10 12 -10h549v-240h-549q-12 0 -12 -10z" />
    <glyph glyph-name="F" unicode="F" horiz-adv-x="993" 
d="M98 0v1536h803v-240h-551q-12 0 -12 -12v-381q0 -12 12 -12h551v-240h-551q-12 0 -12 -12v-639h-240z" />
    <glyph glyph-name="G" unicode="G" horiz-adv-x="1622" 
d="M1520 811v-520q-87 -133 -251 -220t-386 -87q-160 0 -305.5 62t-250.5 167t-167 250t-62 305t62 305t167 250t250.5 167t305.5 62q166 0 304 -59t222 -131l-154 -182q-70 59 -171 96t-201 37q-147 0 -272.5 -73t-199 -198.5t-73.5 -273.5t74 -274t202 -199.5t281 -73.5
q127 0 228 43t153 109v200q-72 5 -94 5h-363v233h701z" />
    <glyph glyph-name="H" unicode="H" horiz-adv-x="1257" 
d="M920 901v635h237v-1536h-237v637q0 12 -13 12h-559q-12 0 -12 -12v-637h-238v1536h238v-635q0 -12 12 -12h559q13 0 13 12z" />
    <glyph glyph-name="I" unicode="I" horiz-adv-x="436" 
d="M98 1534h238v-1534h-238v1534z" />
    <glyph glyph-name="J" unicode="J" horiz-adv-x="894" 
d="M59 209l213 110q17 -44 57 -71t89 -27q68 0 115 47.5t47 116.5v1153h239v-1153q0 -167 -117 -284t-284 -117q-117 0 -213 61t-146 164z" />
    <glyph glyph-name="K" unicode="K" horiz-adv-x="1079" 
d="M88 0v1536h240v-672q4 5 1 -1q-2 -4 1 0q5 6 22 30l406 643h272q-121 -195 -271 -431t-196 -312q-14 -21 -14 -27q7 -14 24 -38.5t21 -31.5l442 -696h-282q-345 550 -418 662l-8 8v-670h-240z" />
    <glyph glyph-name="L" unicode="L" horiz-adv-x="970" 
d="M354 238h527v-238h-783v1536h238v-1280q0 -18 18 -18z" />
    <glyph glyph-name="M" unicode="M" horiz-adv-x="1654" 
d="M825 395q36 90 52 137l350 1002h329v-1534h-237v1126q0 1 -12 -33.5t-34.5 -98.5t-52 -147t-66 -187.5t-74.5 -210.5t-81 -225.5t-81 -223.5h-183l-395 1133v-1133h-242v1534h326l350 -1002z" />
    <glyph glyph-name="N" unicode="N" horiz-adv-x="1390" 
d="M98 1534h250l290 -460t357 -568q22 -35 58 -84v1112h239v-1534h-252l-643 1024q-9 15 -29.5 42.5t-29.5 41.5q0 -19 -1 -60t-1 -63v-985h-238v1534z" />
    <glyph glyph-name="O" unicode="O" horiz-adv-x="1748" 
d="M90 768q0 160 62 305t167 250t250 167t305 62t305.5 -62t250.5 -167t167 -250t62 -305t-62 -305t-167 -250t-250.5 -167t-305.5 -62t-305 62t-250 167t-167 250t-62 305zM328 768q0 -148 73 -274t199 -199.5t274 -73.5t273.5 73.5t198.5 199.5t73 274t-73 273.5
t-198.5 198.5t-273.5 73t-274 -73t-199 -198.5t-73 -273.5z" />
    <glyph glyph-name="P" unicode="P" horiz-adv-x="1042" 
d="M338 1282v-428q0 -12 14 -12h127q67 0 115.5 23t72.5 60.5t35 74.5t11 75t-11 73.5t-35 71t-72.5 57t-115.5 21.5h-127q-14 0 -14 -16zM98 0v1536h408q195 0 320.5 -132t125.5 -329q0 -129 -56 -236.5t-159 -171t-231 -63.5h-156q-12 0 -12 -12v-592h-240z" />
    <glyph glyph-name="Q" unicode="Q" horiz-adv-x="1748" 
d="M90 768q0 160 62 305t167 250t250 167t305 62t305.5 -62t250.5 -167t167 -250t62 -305q0 -143 -49.5 -274t-139.5 -236l119 -115q-145 -135 -176 -163q-20 19 -123 122q-186 -118 -416 -118q-160 0 -305 62t-250 167t-167 250t-62 305zM328 768q0 -148 73 -274
t199 -199.5t274 -73.5q129 0 246 60l-170 178q165 159 168 162l182 -191q119 144 119 338q0 148 -73 273.5t-198.5 198.5t-273.5 73t-274 -73t-199 -198.5t-73 -273.5z" />
    <glyph glyph-name="R" unicode="R" horiz-adv-x="1048" 
d="M326 1282v-451q0 -14 16 -14h152q132 0 199 66t67 176q0 95 -60 167t-176 72h-182q-16 0 -16 -16zM825 0q-32 56 -333 584q-6 12 -21 12h-133q-12 0 -12 -12v-584h-240v1536h438q140 0 249 -65t166.5 -173.5t57.5 -240.5q0 -184 -116 -312q-13 -14 -49 -41t-64.5 -48
t-28.5 -23q0 -1 1 -2t1 -2l361 -629h-277z" />
    <glyph glyph-name="S" unicode="S" horiz-adv-x="1034" 
d="M92 283q70 20 207 65q68 -129 209 -129q79 0 140 61.5t61 141.5q0 43 -15 79.5t-35.5 60.5t-57 47.5t-63 36t-69.5 30.5q-73 31 -122 56t-102 63.5t-84 80.5t-51 102.5t-20 133.5q0 190 123.5 314t310.5 124q117 0 221 -62.5t150 -168.5l-215 -105q-23 48 -69 72.5
t-95 24.5q-74 0 -130 -57t-56 -130q0 -29 5.5 -53.5t20.5 -44.5t26.5 -33t38 -29.5t41 -24t48.5 -24.5q99 -43 163.5 -77.5t120.5 -77t86 -89.5t47 -108.5t17 -140.5q0 -182 -127 -310t-305 -128h-8q-154 0 -267 86t-145 213z" />
    <glyph glyph-name="T" unicode="T" horiz-adv-x="1138" 
d="M446 0v1284q0 4 -4 8t-8 4h-354v240h977v-240h-357q-1 0 -2 -1t-2 -1l-8 -4q-2 -2 -2 -10v-1280h-240z" />
    <glyph glyph-name="U" unicode="U" horiz-adv-x="1155" 
d="M94 436v1098h240v-1067q0 -102 73.5 -172t172.5 -70t169 68t70 164v1077h240v-1100q0 -125 -67 -228.5t-177 -161.5t-235 -58q-128 0 -239.5 58.5t-179 162.5t-67.5 229z" />
    <glyph glyph-name="V" unicode="V" horiz-adv-x="1335" 
d="M1047 1536h256l-547 -1536h-178l-541 1536h254l325 -973q45 -141 52 -141q27 70 51 141q36 107 151 447t177 526z" />
    <glyph glyph-name="W" unicode="W" horiz-adv-x="1849" 
d="M1374 0h-192q-205 795 -262 997q-68 -248 -256 -997h-187q-347 1280 -416 1536h250l252 -1012q3 -18 6 -18q19 65 126.5 504t131.5 526h193l252 -1012l6 -18q3 0 6 6l254 1024h250z" />
    <glyph glyph-name="X" unicode="X" horiz-adv-x="1288" 
d="M793 754l471 -754h-285l-326 524q-3 6 -10 6q-5 0 -8 -6l-328 -524h-282l469 754q4 8 4 12t-4 12l-469 758h284l326 -528q3 -7 10 -7q5 0 8 7l326 528h285l-471 -758q-5 -10 -5 -12t5 -12z" />
    <glyph glyph-name="Y" unicode="Y" horiz-adv-x="1142" 
d="M25 1536h262l278 -664q3 -6 6 -6q6 0 9 6l276 662h260l-424 -981v-553h-239v553z" />
    <glyph glyph-name="Z" unicode="Z" horiz-adv-x="1153" 
d="M752 1274q4 4 4 12q0 10 -21 10h-645v240h969v-180q-52 -89 -307 -505t-349 -577q-12 -21 -12 -24q0 -12 21 -12h649v-238h-971v184l313 512q171 278 349 578z" />
    <glyph glyph-name="bracketleft" unicode="[" horiz-adv-x="641" 
d="M98 -301q-2 655 -2 1966h451v-188h-156q-10 0 -30 -1t-29 -1q-2 -37 -2 -111v-1364q0 -76 2 -111q18 -2 59 -2h156v-188h-449z" />
    <glyph glyph-name="backslash" unicode="\" horiz-adv-x="684" 
d="M621 23l-115 -35l-445 1532l115 34z" />
    <glyph glyph-name="bracketright" unicode="]" horiz-adv-x="612" 
d="M532 1665q0 -1311 -2 -1966h-448v188h211q6 76 6 160v1268q0 85 -6 162h-211v188h450z" />
    <glyph glyph-name="asciicircum" unicode="^" horiz-adv-x="1089" 
d="M545 1278l-283 -530q-145 21 -207 28l416 760h147q404 -738 416 -760q-154 -22 -205 -28z" />
    <glyph glyph-name="underscore" unicode="_" horiz-adv-x="1333" 
d="M0 -131h1333v-131h-1333v131z" />
    <glyph glyph-name="grave" unicode="`" horiz-adv-x="620" 
d="M154 1485l387 -162l-86 -152l-373 154q40 92 72 160z" />
    <glyph glyph-name="a" unicode="a" horiz-adv-x="1196" 
d="M285 512q0 -128 87.5 -215.5t215.5 -87.5t215.5 87.5t87.5 215.5t-87.5 215.5t-215.5 87.5t-215.5 -87.5t-87.5 -215.5zM903 1024h213v-1024h-213v88q-138 -104 -315 -104q-143 0 -265 71t-193 192.5t-71 264.5t71 264.5t193 192.5t265 71q174 0 315 -106v90z" />
    <glyph glyph-name="b" unicode="b" horiz-adv-x="1222" 
d="M303 0h-219v1436h227v-496q134 100 303 100q143 0 265 -71t193 -192.5t71 -264.5t-71 -264.5t-193 -192.5t-265 -71q-170 0 -311 100v-84zM918 512q0 127 -88 215t-216 88t-215.5 -87.5t-87.5 -215.5t87.5 -215.5t215.5 -87.5t216 88t88 215z" />
    <glyph glyph-name="c" unicode="c" horiz-adv-x="1132" 
d="M600 211q86 0 153 40t109 114l205 -91q-63 -133 -189 -211.5t-280 -78.5q-145 0 -267 70.5t-192.5 192.5t-70.5 267q0 143 70.5 264t192.5 191.5t267 70.5q127 0 241.5 -62.5t188.5 -160.5l-172 -129q-101 125 -256 125q-126 0 -213.5 -87t-87.5 -212q0 -127 87.5 -215
t213.5 -88z" />
    <glyph glyph-name="d" unicode="d" horiz-adv-x="1198" 
d="M909 0v88q-135 -104 -309 -104q-144 0 -266 71t-193 192.5t-71 264.5t71 264.5t193 192.5t266 71q165 0 303 -100v494h225v-1434h-219zM297 512q0 -128 87.5 -215.5t215.5 -87.5q126 0 213.5 88t87.5 215t-87.5 215t-213.5 88q-128 0 -215.5 -87.5t-87.5 -215.5z" />
    <glyph glyph-name="e" unicode="e" horiz-adv-x="1099" 
d="M604 199q151 0 295 84l92 -170q-179 -129 -399 -129q-148 0 -270 69t-191.5 191t-69.5 270q0 144 66.5 264t184 190t261.5 70t251.5 -66.5t162.5 -179t55 -253.5q0 -35 -4 -109h-729q-6 0 -6 -6q23 -102 105 -163.5t196 -61.5zM565 829q-100 0 -181 -71.5t-81 -147.5
q0 -4 8 -4h490l8 2q0 51 -27 100.5t-84.5 85t-132.5 35.5z" />
    <glyph glyph-name="f" unicode="f" horiz-adv-x="923" 
d="M217 1016v137q0 128 76 205.5t203 77.5h182v-201h-123q-113 0 -113 -115v-104h297v-205h-297v-811h-225v811h-162v205h162z" />
    <glyph glyph-name="g" unicode="g" horiz-adv-x="1216" 
d="M313 512q0 -128 87.5 -215.5t215.5 -87.5t216 88t88 215t-88 215t-216 88t-215.5 -87.5t-87.5 -215.5zM199 -315l155 143q95 -98 236 -98q129 0 222 89.5t99 217.5v47q-135 -98 -303 -98q-144 0 -266 70.5t-193 191.5t-71 264t71 264.5t193 192.5t266 71q177 0 310 -102
v86h219v-952q0 -112 -43.5 -213.5t-116.5 -175.5t-175.5 -118t-215.5 -44t-213.5 43.5t-173.5 120.5z" />
    <glyph glyph-name="h" unicode="h" horiz-adv-x="1073" 
d="M311 1434v-455q103 61 224 61q198 0 325 -121t127 -315v-604h-227v590q0 91 -66.5 158t-158.5 67q-96 0 -161 -56.5t-65 -164.5v-594h-225v1434h227z" />
    <glyph glyph-name="i" unicode="i" horiz-adv-x="391" 
d="M82 0v1024h227v-1024h-227zM197 1135q-48 0 -81.5 32.5t-33.5 81.5q0 45 34 78t81 33q44 0 78 -34t34 -77q0 -47 -33 -80.5t-79 -33.5z" />
    <glyph glyph-name="j" unicode="j" horiz-adv-x="432" 
d="M137 1249q0 45 34 78t81 33q43 0 78 -34t35 -77q0 -47 -34 -80.5t-79 -33.5q-50 0 -82.5 32.5t-32.5 81.5zM35 -479v227q1 0 12.5 1t15 2t14.5 3t15.5 4.5t13.5 7t13 10.5l9 13.5t7 18.5t2 24v1194h225v-1278q0 -227 -327 -227z" />
    <glyph glyph-name="k" unicode="k" horiz-adv-x="870" 
d="M311 1487v-881q0 -6 4 -6q3 0 7 8q54 78 151.5 224t128.5 192h260l-303 -455l-33 -45l31 -51q185 -287 303 -473h-260q-174 276 -258 403q-21 35 -27 41q-4 0 -4 -8v-436h-225v1487h225z" />
    <glyph glyph-name="l" unicode="l" horiz-adv-x="397" 
d="M84 0v1432h227v-1432h-227z" />
    <glyph glyph-name="m" unicode="m" horiz-adv-x="1748" 
d="M84 0v1024h215v-55q96 71 236 71q206 0 337 -137q131 137 338 137q199 0 326 -121t127 -315v-604h-225v590q0 91 -67.5 158t-158.5 67t-159 -61.5t-68 -147.5v-606h-225v590q0 91 -66.5 158t-158.5 67q-97 0 -160 -52.5t-66 -160.5v-602h-225z" />
    <glyph glyph-name="n" unicode="n" horiz-adv-x="1071" 
d="M84 0v1024h213v-55q99 71 238 71q198 0 325 -121t127 -315v-604h-227v590q0 91 -66.5 158t-158.5 67q-96 0 -159.5 -53.5t-66.5 -161.5v-600h-225z" />
    <glyph glyph-name="o" unicode="o" horiz-adv-x="1189" 
d="M297 514q0 -127 87.5 -215t213.5 -88t213.5 88t87.5 215q0 125 -87.5 212t-213.5 87t-213.5 -87t-87.5 -212zM68 514q0 143 70.5 264t192.5 191.5t267 70.5q143 0 264 -70.5t191.5 -191.5t70.5 -264q0 -145 -70.5 -267t-191.5 -192.5t-264 -70.5q-145 0 -267 70.5
t-192.5 192.5t-70.5 267z" />
    <glyph glyph-name="p" unicode="p" horiz-adv-x="1222" 
d="M84 -420v1444h219v-86q140 102 311 102q143 0 265 -71t193 -192.5t71 -264.5t-71 -264.5t-193 -192.5t-265 -71q-169 0 -303 100v-504h-227zM918 512q0 127 -88 215t-216 88t-215.5 -87.5t-87.5 -215.5t87.5 -215.5t215.5 -87.5t216 88t88 215z" />
    <glyph glyph-name="q" unicode="q" horiz-adv-x="1198" 
d="M295 512q0 -128 87.5 -215.5t215.5 -87.5t215.5 87.5t87.5 215.5t-87.5 215.5t-215.5 87.5t-215.5 -87.5t-87.5 -215.5zM909 1024h219v-1444h-227v504q-132 -98 -303 -98q-143 0 -264.5 70.5t-192.5 191.5t-71 264t71 264.5t192.5 192.5t264.5 71q175 0 311 -102v86z" />
    <glyph glyph-name="r" unicode="r" horiz-adv-x="724" 
d="M84 0v1024h217v-59q45 36 102.5 54t149.5 21h102v-229h-94q-113 -2 -181 -54.5t-71 -156.5v-600h-225z" />
    <glyph glyph-name="s" unicode="s" horiz-adv-x="716" 
d="M649 279q0 -127 -86 -211t-211 -84q-96 0 -174.5 53.5t-111.5 134.5l165 107q1 -2 7.5 -10t8.5 -10.5l8 -10t9 -10.5t10 -9t11.5 -9t12 -7t14.5 -5.5t16 -3t18 -1.5q34 0 61 26t27 62q0 46 -42 86.5t-120 83.5q-43 23 -69.5 41.5t-61 52t-52 80t-17.5 104.5q0 129 84 215
t213 86q85 0 155.5 -51.5t106.5 -126.5l-162 -108q-15 23 -24.5 34.5t-29.5 22t-46 10.5q-34 0 -58 -22.5t-24 -57.5q0 -20 10 -37.5t31.5 -34t41.5 -29.5t53.5 -32.5t55.5 -34.5q37 -25 64 -50t52.5 -60.5t39.5 -82t14 -101.5z" />
    <glyph glyph-name="t" unicode="t" horiz-adv-x="870" 
d="M324 1016v305h227v-305h264v-205h-264v-811h-227v811h-269v205h269z" />
    <glyph glyph-name="u" unicode="u" horiz-adv-x="1067" 
d="M985 1022v-1022h-215v57q-92 -73 -235 -73q-199 0 -326 121.5t-127 316.5v600h225v-586q0 -92 67 -158.5t158 -66.5q97 0 161.5 53.5t64.5 159.5v598h227z" />
    <glyph glyph-name="v" unicode="v" horiz-adv-x="952" 
d="M682 1022q41 0 122 1t122 1q-77 -221 -361 -1024h-180q-255 734 -358 1024h243q15 -47 77.5 -252t98.5 -313l25 -76q0 -4 4 -12q3 3 8.5 19t12 36t10.5 29z" />
    <glyph glyph-name="w" unicode="w" horiz-adv-x="1495" 
d="M1149 0h-193l-213 635l-118 -359q-15 -44 -36 -107.5t-35 -105.5t-22 -63h-192l-311 1024h237q136 -495 185 -655q2 -4 3 -8.5t1.5 -7t1.5 -3.5q3 0 8 16.5t10.5 39t7.5 28.5q30 97 88.5 293.5t87.5 294.5h177q54 -175 117 -388t77 -259q2 -4 3 -8.5t1.5 -7t1.5 -3.5
q2 0 4 2l19 82l164 584h239z" />
    <glyph glyph-name="x" unicode="x" horiz-adv-x="964" 
d="M625 498l315 -498h-272l-176 303q-9 9 -11 10q-9 -6 -12 -12l-174 -301h-272l323 510l-6 12q-113 182 -317 502h272q12 -22 176 -305q3 -8 10 -12l11 12q22 39 83 143.5t93 161.5h270l-313 -500q-7 -7 -9 -14q3 -6 9 -12z" />
    <glyph glyph-name="y" unicode="y" horiz-adv-x="935" 
d="M922 1026q-90 -262 -260 -751t-242 -697h-240l168 469q0 11 -2 19l-24 79l-308 879h244q8 -26 68.5 -223t95.5 -299l43 -127q0 -6 4 -10q0 2 2.5 6.5t3.5 7.5l43 125l166 522h238z" />
    <glyph glyph-name="z" unicode="z" horiz-adv-x="872" 
d="M489 780q5 5 11 17q-3 8 -27 8h-393v219h706v-172q-14 -22 -191.5 -284.5t-223.5 -342.5q6 -6 28 -6h394v-219h-713v166q29 41 79.5 118.5t71.5 108.5l54 76q203 310 204 311z" />
    <glyph glyph-name="braceleft" unicode="{" horiz-adv-x="806" 
d="M129 598v197q106 9 153.5 74t47.5 200v260q0 136 23 208t91 114q43 26 97 35.5t143 9.5l2 -170q-96 -9 -131 -61t-35 -171v-262q0 -150 -43 -223.5t-172 -108.5q-8 0 -8 -4t8 -4q129 -35 172 -108.5t43 -223.5v-262q0 -120 35 -171t131 -60l-2 -170q-89 0 -143 9.5
t-97 35.5q-70 42 -92 112.5t-22 208.5v261q0 135 -47.5 199t-153.5 75z" />
    <glyph glyph-name="bar" unicode="|" horiz-adv-x="391" 
d="M293 1556v-1564h-197v1564h197z" />
    <glyph glyph-name="braceright" unicode="}" horiz-adv-x="829" 
d="M686 795v-197q-106 -11 -153.5 -75t-47.5 -199v-261q0 -136 -23 -207.5t-91 -113.5q-45 -26 -98.5 -35.5t-141.5 -9.5l-2 170q96 9 131 60t35 171v262q0 150 43 223.5t172 108.5q8 0 8 4t-8 4q-129 35 -172 108.5t-43 223.5v262q0 119 -35 171t-131 61v170q89 0 144 -9.5
t98 -35.5q68 -42 91 -114t23 -208v-260q0 -135 47.5 -200t153.5 -74z" />
    <glyph glyph-name="asciitilde" unicode="~" horiz-adv-x="1269" 
d="M125 371q-17 73 -33 157q5 15 27 36.5t58 45.5t94 41t124 17h13q76 -2 237 -59t203 -58h10q151 3 285 113l35 -146q-5 -15 -27.5 -38t-59.5 -49t-97.5 -44t-127.5 -18h-10q-57 0 -134 28t-159.5 57.5t-148.5 32.5h-21q-63 0 -124 -28t-144 -88z" />
    <glyph glyph-name="exclamdown" unicode="&#xa1;" horiz-adv-x="401" 
d="M317 1221v-1229h-231v1229h231zM317 1421q0 -49 -34 -82.5t-82 -33.5t-82.5 33.5t-34.5 82.5q0 46 35 80.5t82 34.5t81.5 -34.5t34.5 -80.5z" />
    <glyph glyph-name="cent" unicode="&#xa2;" horiz-adv-x="1136" 
d="M672 1214v-182q106 -18 196.5 -75.5t155.5 -139.5l-170 -125q-77 102 -182 125v-610q60 16 117.5 58t78.5 93l195 -84q-57 -117 -159.5 -191t-231.5 -93v-166h-205v176q-175 40 -289.5 183.5t-114.5 330.5q0 183 114.5 325.5t289.5 184.5v190h205zM279 514q0 -99 51 -176
t137 -113v576q-86 -37 -137 -114t-51 -173z" />
    <glyph glyph-name="sterling" unicode="&#xa3;" horiz-adv-x="1261" 
d="M182 0v240h94q54 0 94 38t40 115q0 55 -54 164.5t-88 149.5h-151v188h88q-33 98 -33 180q0 203 136 340t341 137q223 0 369 -143l-180 -158q-53 60 -185 60q-100 0 -169.5 -64.5t-69.5 -154.5q0 -55 14 -110t31 -85h399v-190h-326q63 -104 90 -173t27 -133
q0 -48 -13.5 -82.5t-41.5 -76.5h145q105 0 155.5 48t53.5 150l226 -4q0 -110 -37.5 -194.5t-105 -136.5t-155 -78.5t-192.5 -26.5h-502z" />
    <glyph glyph-name="currency" unicode="&#xa4;" horiz-adv-x="1359" 
d="M96 221l195 197q-92 129 -92 278q0 75 24.5 138t71.5 143q-135 132 -201 199l103 102q40 -38 111.5 -111t88.5 -90q133 94 289 94q113 0 229 -69l41 -25l201 199l105 -100l-197 -197l25 -43q71 -123 71 -242q0 -118 -92 -276l197 -197l-103 -104l-196 198
q-56 -46 -135.5 -73t-155.5 -27q-117 0 -283 96q-2 -2 -14.5 -13.5t-18.5 -18.5l-163 -162zM680 1001q-123 0 -213 -91t-90 -214q0 -125 89.5 -215t213.5 -90t213.5 90t89.5 215q0 123 -90 214t-213 91z" />
    <glyph glyph-name="yen" unicode="&#xa5;" horiz-adv-x="1304" 
d="M1006 1087h215v-149h-281l-90 -209h371v-151h-437q-8 -15 -10 -27v-551h-239v551l-13 27h-442v151h379l-92 209h-287v149h221q-54 128 -195 449h261l280 -664q3 -6 6 -6q6 0 9 6l276 662h260z" />
    <glyph glyph-name="brokenbar" unicode="&#xa6;" horiz-adv-x="389" 
d="M96 930v647h197v-647h-197zM96 -23v646h197v-646h-197z" />
    <glyph glyph-name="section" unicode="&#xa7;" horiz-adv-x="1241" 
d="M610 1487q107 0 212 -33t177 -96q-23 -82 -63 -246q-4 3 -22 18t-24 19.5t-23.5 18.5t-26.5 19.5t-27 17t-30.5 16.5t-31 12.5t-34.5 11t-35 6t-39 2.5q-79 0 -133.5 -42t-54.5 -117q0 -34 17 -59.5t54.5 -47.5t76 -39t104.5 -45t116 -53q76 -32 131 -63.5t102.5 -73
t72 -93.5t24.5 -114q0 -121 -53 -199.5t-187 -161.5q58 -55 82.5 -106t24.5 -123q0 -158 -121.5 -257t-292.5 -99q-187 0 -316.5 83.5t-170.5 196.5l229 74q103 -113 232 -113q66 0 121 33.5t55 91.5q0 24 -7.5 45t-18 37t-33 32.5t-39.5 27.5t-51 26.5t-55 24t-64 25.5
t-66 26q-7 4 -21 8q-52 20 -94 42t-84 54.5t-70.5 70.5t-46.5 90t-18 112q0 75 23 134t64 106t116 110q-64 54 -88.5 105t-24.5 120q0 166 124 265.5t308 99.5zM467 399q255 -106 283 -118q32 20 48.5 32t41.5 36.5t37 54.5t12 67q0 56 -44.5 105.5t-133.5 85.5l-250 98
l-37 -33q-84 -74 -84 -156q0 -110 127 -172z" />
    <glyph glyph-name="dieresis" unicode="&#xa8;" horiz-adv-x="786" 
d="M207 1229q-47 0 -80 32.5t-33 79.5t33 79t80 32q45 0 78.5 -33t33.5 -78q0 -46 -33 -79t-79 -33zM578 1229q-46 0 -79.5 32.5t-33.5 79.5t33.5 79t79.5 32t79 -32.5t33 -78.5t-32.5 -79t-79.5 -33z" />
    <glyph glyph-name="copyright" unicode="&#xa9;" horiz-adv-x="1662" 
d="M88 737q0 151 60 289t160 237.5t237 158.5t286 59q204 0 375 -100t269 -271t98 -373q0 -200 -98 -370.5t-269 -270.5t-375 -100q-148 0 -285.5 59t-237.5 158.5t-160 237t-60 286.5zM195 737q0 -130 50 -247.5t135 -202.5t203 -135t248 -50t249 50t206 135t139 203
t52 247q0 130 -52 248.5t-139 203.5t-206 135t-249 50q-174 0 -320.5 -85t-231 -231.5t-84.5 -320.5zM858 313q-181 0 -305.5 124.5t-124.5 299.5q0 176 124.5 301t305.5 125q84 0 152 -26.5t110 -63.5l-78 -108q-71 63 -184 63q-125 0 -211 -84t-86 -205q0 -119 87 -204.5
t208 -85.5q112 0 184 61l84 -107q-39 -35 -109 -62.5t-157 -27.5z" />
    <glyph glyph-name="ordfeminine" unicode="&#xaa;" horiz-adv-x="851" 
d="M219 1130q0 -88 58.5 -146t146.5 -58q85 0 144 58.5t59 145.5q0 86 -59 145.5t-144 59.5q-87 0 -146 -59t-59 -146zM68 1130q0 148 103.5 251.5t252.5 103.5q117 0 211 -72v62h145v-695q-28 10 -102 41l-43 25q-94 -72 -211 -72q-149 0 -252.5 104t-103.5 252z" />
    <glyph glyph-name="guillemotleft" unicode="&#xab;" horiz-adv-x="917" 
d="M688 139q-268 417 -268 418l262 414l156 -107l-203 -309l199 -305zM338 139q-268 417 -268 418l262 414l155 -107l-202 -309l198 -305z" />
    <glyph glyph-name="logicalnot" unicode="&#xac;" horiz-adv-x="1222" 
d="M72 834h1071v-674h-185v489h-886v185z" />
    <glyph glyph-name="registered" unicode="&#xae;" horiz-adv-x="1744" 
d="M88 768q0 210 106 391t286.5 287t389.5 106q162 0 308 -62.5t250 -168.5t165.5 -250.5t61.5 -302.5t-61.5 -302.5t-165.5 -250.5t-250 -168.5t-308 -62.5q-209 0 -389.5 106t-286.5 287t-106 391zM199 768q0 -184 90 -339.5t244 -245t337 -89.5q138 0 265 53t219 143
t147 215t55 263q0 137 -55 262t-147 215t-219 143.5t-265 53.5q-137 0 -261 -53.5t-214 -143.5t-143 -215t-53 -262zM1167 311h-149q-19 35 -64 126t-75 146.5t-37 55.5q-35 33 -62 33q-6 0 -6 -6v-355h-133v914h190q147 0 230.5 -70.5t83.5 -202.5q0 -98 -46.5 -165
t-125.5 -91q-4 0 -4 -8zM774 1092v-289q2 -4 8 -4h95q47 0 78.5 26.5t43 59.5t11.5 67q0 33 -11.5 65t-43 57.5t-78.5 25.5h-95q-8 0 -8 -8z" />
    <glyph glyph-name="macron" unicode="&#xaf;" horiz-adv-x="837" 
d="M96 1470h643v-184h-643v184z" />
    <glyph glyph-name="degree" unicode="&#xb0;" horiz-adv-x="837" 
d="M88 1153q0 137 97 233.5t233 96.5t233 -96.5t97 -233.5t-97 -233.5t-233 -96.5t-233 96.5t-97 233.5zM205 1153q0 -89 62.5 -152t150.5 -63q89 0 152 63t63 152q0 88 -63 150.5t-152 62.5q-88 0 -150.5 -62.5t-62.5 -150.5z" />
    <glyph glyph-name="plusminus" unicode="&#xb1;" horiz-adv-x="1249" 
d="M532 758v297h181v-297h452v-180h-452v-293h-181v293h-448v180h448zM84 221h1081v-184h-1081v184z" />
    <glyph glyph-name="twosuperior" unicode="&#xb2;" horiz-adv-x="751" 
d="M109 614q0 28 -1.5 86t-1.5 86q9 10 173.5 163t205.5 204q47 57 47 107q0 60 -43 103.5t-104 43.5q-49 0 -87.5 -28.5t-53.5 -73.5l-135 45q30 89 106 144.5t170 55.5q121 0 207 -85t86 -205q0 -47 -25.5 -101t-62 -102t-94 -104.5t-105.5 -98t-112 -92.5q0 -4 14 -4h389
v-144h-573z" />
    <glyph glyph-name="threesuperior" unicode="&#xb3;" horiz-adv-x="739" 
d="M236 1341l-80 97q28 55 81 85.5t121 30.5q85 0 147 -64.5t62 -156.5t-55 -157q-4 -4 -4 -7l10 -6q144 -90 144 -262q0 -122 -85.5 -209.5t-209.5 -87.5q-107 0 -193.5 71.5t-95.5 174.5q87 11 137 20q14 -55 55 -88.5t97 -33.5q63 0 108 46.5t45 112.5q0 63 -41.5 114.5
t-101.5 61.5q-3 1 -21.5 5t-27.5 8q0 18 -1 56t-1 56l43 13q1 1 5.5 4t6.5 4.5t6 5t6 6t5 7t5 8.5t3.5 9.5t2.5 11.5t1 13q0 11 -4 23q12 12 12 33q0 28 -16 47.5t-46 19.5q-69 0 -120 -72z" />
    <glyph glyph-name="acute" unicode="&#xb4;" horiz-adv-x="622" 
d="M82 1323l387 162q40 -92 72 -160l-373 -154z" />
    <glyph glyph-name="mu" unicode="&#xb5;" horiz-adv-x="1120" 
d="M96 -442v1542h234v-651q0 -98 69 -165t162 -67t162.5 65.5t69.5 161.5v656h233v-1102l-235 100q-77 -114 -230 -114q-64 0 -126 23t-105 65v-514h-234z" />
    <glyph glyph-name="mu" unicode="&#x3bc;" horiz-adv-x="1120" 
d="M96 -442v1542h234v-651q0 -98 69 -165t162 -67t162.5 65.5t69.5 161.5v656h233v-1102l-235 100q-77 -114 -230 -114q-64 0 -126 23t-105 65v-514h-234z" />
    <glyph glyph-name="paragraph" unicode="&#xb6;" horiz-adv-x="1257" 
d="M547 -434v1177q-219 2 -343 94.5t-124 256.5q0 107 37.5 180.5t109 112.5t157 55t200.5 16h587v-1892h-208v1685h-207v-1685h-209z" />
    <glyph glyph-name="periodcentered" unicode="&#xb7;" horiz-adv-x="387" 
d="M197 672q-46 0 -76.5 29.5t-30.5 72.5q0 42 31 73.5t76 31.5q39 0 69.5 -32.5t30.5 -72.5q0 -41 -29.5 -71.5t-70.5 -30.5z" />
    <glyph glyph-name="cedilla" unicode="&#xb8;" horiz-adv-x="579" 
d="M258 0h107l-80 -104q5 0 22 3t33 3q68 0 111 -42t43 -114q0 -63 -37 -108t-87 -64.5t-104 -19.5q-44 0 -94.5 19t-85.5 50q26 77 29 86q78 -33 143 -33q32 0 55 18t23 52t-23.5 52t-50.5 18q-3 0 -17 -2t-22 -2l-88 16z" />
    <glyph glyph-name="onesuperior" unicode="&#xb9;" horiz-adv-x="403" 
d="M-6 1403v133h285v-922h-144v779q0 10 -12 10h-129z" />
    <glyph glyph-name="ordmasculine" unicode="&#xba;" horiz-adv-x="843" 
d="M221 1128q0 -86 58.5 -144t144.5 -58q85 0 143 58t58 144q0 84 -58.5 142.5t-142.5 58.5q-86 0 -144.5 -58.5t-58.5 -142.5zM68 1128q0 147 103.5 250t252.5 103q146 0 249 -103.5t103 -249.5q0 -149 -102.5 -252.5t-249.5 -103.5q-149 0 -252.5 103.5t-103.5 252.5z" />
    <glyph glyph-name="guillemotright" unicode="&#xbb;" horiz-adv-x="935" 
d="M569 971l269 -416q0 -4 -265 -416l-153 107l201 307l-199 307zM219 971l268 -416q0 -6 -264 -416l-153 107l200 307l-198 307z" />
    <glyph glyph-name="onequarter" unicode="&#xbc;" horiz-adv-x="1597" 
d="M823 168v147l226 357q175 282 206 325h146v-626q0 -5 -1 -15.5t0 -15t3 -10.5t9 -8.5t18 -2.5h69v-155h-69q-11 0 -18 -2t-9 -7.5t-3 -9.5t0 -12.5t1 -11.5v-121h-154v160q0 8 -8 8h-416zM559 -8q-13 3 -37 7.5t-43.5 8.5t-36.5 8l443 1534l114 -30
q-44 -152 -199.5 -693.5t-240.5 -834.5zM63 1395v143h308v-1001h-156v843q0 15 -10 15h-142zM1247 324q0 31 -1 110.5t-1 122.5v170q-2 -2 -2 -6q-10 -16 -36 -56.5t-80.5 -127t-131.5 -215.5q0 -7 4 -7h238q10 0 10 9z" />
    <glyph glyph-name="onehalf" unicode="&#xbd;" horiz-adv-x="1642" 
d="M63 1395v143h308v-1001h-156v843q0 15 -10 15h-142zM559 -8q-13 3 -37 7.5t-43.5 8.5t-36.5 8l443 1534l114 -30q-44 -152 -199.5 -693.5t-240.5 -834.5zM942 0v184q11 11 100 92t180.5 169t123.5 130q51 57 51 115q0 49 -47 103.5t-111 54.5q-51 0 -92.5 -31.5
t-59.5 -79.5l-143 49q31 94 112.5 153.5t182.5 59.5q129 0 221 -91t92 -218q0 -96 -61 -179t-209 -214l-100 -88l-58 -51q0 -4 15 -4h417v-154h-614z" />
    <glyph glyph-name="threequarters" unicode="&#xbe;" horiz-adv-x="1800" 
d="M1018 168v147l215 340q34 54 82.5 131t82 130.5t52.5 80.5h145v-626q0 -5 -1 -15.5t0 -15t3 -10.5t9 -8.5t18 -2.5h70v-155h-70q-11 0 -18 -2t-9 -7.5t-3 -9.5t0 -12.5t1 -11.5v-121h-153v160q0 8 -8 8h-416zM236 1309l-86 104q71 125 219 125q89 0 157 -66t68 -163
q0 -105 -66 -187q166 -101 166 -284q0 -132 -92.5 -226t-224.5 -94q-114 0 -209.5 78.5t-99.5 185.5l147 21q14 -58 58 -94.5t104 -36.5q67 0 115.5 50.5t48.5 121.5q0 68 -45 122.5t-109 65.5l-51 12l-4 121q2 1 10.5 5.5t11 5.5t10.5 5.5t11 7t9.5 7.5t10 8.5t8.5 9.5
t8 11.5t6 12.5t5 15q20 14 20 50q0 34 -20.5 58.5t-54.5 24.5q-48 0 -93 -36zM754 -8l-117 24l442 1534l115 -30q-44 -152 -199.5 -693.5t-240.5 -834.5zM1442 324q0 31 -1 110.5t-1 122.5v170q-2 -2 -2 -6q-10 -16 -36 -56.5t-80.5 -127t-131.5 -215.5q0 -7 4 -7h238
q10 0 10 9z" />
    <glyph glyph-name="questiondown" unicode="&#xbf;" horiz-adv-x="888" 
d="M352 1434q0 46 34 80t83 34q47 0 82 -34t35 -80q0 -49 -34.5 -83t-82.5 -34q-49 0 -83 33.5t-34 83.5zM375 1188l225 33q55 -131 55 -230q0 -73 -19.5 -136t-50.5 -108.5t-69 -85.5t-76 -74t-69 -67t-50.5 -72t-19.5 -81q0 -138 139 -138q24 0 48.5 7.5t41.5 16
t39.5 27.5t32 28t31.5 33t26 28l158 -156q-52 -81 -159 -151t-224 -70q-167 0 -271 95t-104 273q0 74 20 136.5t51.5 105.5t70.5 80t77.5 70t70 66.5t51.5 77.5t20 95q0 76 -45 197z" />
    <glyph glyph-name="Agrave" unicode="&#xc0;" horiz-adv-x="1398" 
d="M1366 0h-254q0 1 -20 56t-32 86.5t-31 78.5t-32 70.5t-20 23.5h-557q-16 0 -19 -12l-114 -303h-254l575 1536h178zM698 1108q-4 0 -4 -8l-196 -541q-2 -2 -2 -8q0 -8 8 -8h387q12 0 12 10q0 1 -1 3t-1 3l-196 541q-2 2 -3 5q-2 3 -4 3zM541 1894l387 -161l-86 -152
l-373 154q35 79 72 159z" />
    <glyph glyph-name="Aacute" unicode="&#xc1;" horiz-adv-x="1398" 
d="M1366 0h-254q0 1 -20 56t-32 86.5t-31 78.5t-32 70.5t-20 23.5h-557q-16 0 -19 -12l-114 -303h-254l575 1536h178zM698 1108q-4 0 -4 -8l-196 -541q-2 -2 -2 -8q0 -8 8 -8h387q12 0 12 10q0 1 -1 3t-1 3l-196 541q-2 2 -3 5q-2 3 -4 3zM469 1733l387 161q34 -80 72 -159
l-373 -154z" />
    <glyph glyph-name="Acircumflex" unicode="&#xc2;" horiz-adv-x="1398" 
d="M1366 0h-254q0 1 -20 56t-32 86.5t-31 78.5t-32 70.5t-20 23.5h-557q-16 0 -19 -12l-114 -303h-254l575 1536h178zM698 1108q-4 0 -4 -8l-196 -541q-2 -2 -2 -8q0 -8 8 -8h387q12 0 12 10q0 1 -1 3t-1 3l-196 541q-2 2 -3 5q-2 3 -4 3zM422 1769l274 111l277 -115
l-68 -155q-57 17 -209 86q-166 -72 -207 -82z" />
    <glyph glyph-name="Atilde" unicode="&#xc3;" horiz-adv-x="1398" 
d="M1366 0h-254q0 1 -20 56t-32 86.5t-31 78.5t-32 70.5t-20 23.5h-557q-16 0 -19 -12l-114 -303h-254l575 1536h178zM698 1108q-4 0 -4 -8l-196 -541q-2 -2 -2 -8q0 -8 8 -8h387q12 0 12 10q0 1 -1 3t-1 3l-196 541q-2 2 -3 5q-2 3 -4 3zM385 1681l-29 162q89 94 201 94
q49 0 139.5 -30.5t124.5 -30.5q53 0 95 20.5t94 61.5l30 -148q-31 -44 -81.5 -79t-108.5 -35q-46 0 -145 32.5t-142 32.5q-50 0 -97.5 -22t-80.5 -58z" />
    <glyph glyph-name="Adieresis" unicode="&#xc4;" horiz-adv-x="1398" 
d="M1366 0h-254q0 1 -20 56t-32 86.5t-31 78.5t-32 70.5t-20 23.5h-557q-16 0 -19 -12l-114 -303h-254l575 1536h178zM698 1108q-4 0 -4 -8l-196 -541q-2 -2 -2 -8q0 -8 8 -8h387q12 0 12 10q0 1 -1 3t-1 3l-196 541q-2 2 -3 5q-2 3 -4 3zM512 1638q-47 0 -80 33t-33 80
t33 79t80 32q45 0 79 -33t34 -78q0 -46 -33.5 -79.5t-79.5 -33.5zM883 1638q-46 0 -79.5 33t-33.5 80t33.5 79t79.5 32t79 -32.5t33 -78.5t-32.5 -79.5t-79.5 -33.5z" />
    <glyph glyph-name="Aring" unicode="&#xc5;" horiz-adv-x="1398" 
d="M1366 0h-254q0 1 -20 56t-32 86.5t-31 78.5t-32 70.5t-20 23.5h-557q-16 0 -19 -12l-114 -303h-254l575 1536h178zM698 1108q-4 0 -4 -8l-196 -541q-2 -2 -2 -8q0 -8 8 -8h387q12 0 12 10q0 1 -1 3t-1 3l-196 541q-2 2 -3 5q-2 3 -4 3zM698 1573q-62 0 -102.5 40.5
t-40.5 102.5q0 61 41.5 102.5t101.5 41.5q61 0 103.5 -42t42.5 -102q0 -61 -42 -102t-104 -41zM698 1626q37 0 63.5 26t26.5 64q0 37 -26.5 62.5t-63.5 25.5q-38 0 -63 -25.5t-25 -62.5q0 -38 25 -64t63 -26z" />
    <glyph glyph-name="AE" unicode="&#xc6;" horiz-adv-x="1740" 
d="M1098 641v-391q0 -12 12 -12h547v-238h-799v315h-412q-15 0 -18 -12l-141 -303h-254l672 1536h952v-240h-547q-12 0 -12 -10v-385q0 -10 12 -10h547v-240h-547q-12 0 -12 -10zM858 543v702q0 9 -1 26t-1 25q-4 0 -4 -4l-2 -2l-320 -731q-2 -2 -2 -8q0 -8 9 -8h321z" />
    <glyph glyph-name="Ccedilla" unicode="&#xc7;" horiz-adv-x="1441" 
d="M688 0h19q-178 35 -316 137t-218.5 265.5t-80.5 363.5q0 159 62.5 304.5t167.5 251t250.5 168t304.5 62.5q84 0 162.5 -15.5t128.5 -35t98.5 -47.5t65 -41t34.5 -29l-145 -192q-146 121 -347 121q-151 -2 -276 -75.5t-196.5 -198.5t-71.5 -273q0 -151 73.5 -276.5
t199 -197t274.5 -71.5q198 0 344 121l139 -186q-197 -172 -483 -172q-31 0 -93 4l-69 -92q5 0 22 3t33 3q68 0 111 -42t43 -114q0 -63 -37 -108t-87 -64.5t-104 -19.5q-44 0 -94.5 19t-85.5 50q26 77 29 86q78 -33 143 -33q32 0 55 18t23 52t-23.5 52t-50.5 18q-3 0 -17 -2
t-22 -2l-88 16z" />
    <glyph glyph-name="Egrave" unicode="&#xc8;" horiz-adv-x="999" 
d="M338 641v-391q0 -12 12 -12h549v-238h-799v1536h799v-240h-549q-12 0 -12 -10v-385q0 -10 12 -10h549v-240h-549q-12 0 -12 -10zM342 1894l387 -161l-86 -152l-373 154q34 79 72 159z" />
    <glyph glyph-name="Eacute" unicode="&#xc9;" horiz-adv-x="999" 
d="M338 641v-391q0 -12 12 -12h549v-238h-799v1536h799v-240h-549q-12 0 -12 -10v-385q0 -10 12 -10h549v-240h-549q-12 0 -12 -10zM270 1733l387 161q35 -80 72 -159l-373 -154z" />
    <glyph glyph-name="Ecircumflex" unicode="&#xca;" horiz-adv-x="999" 
d="M338 641v-391q0 -12 12 -12h549v-238h-799v1536h799v-240h-549q-12 0 -12 -10v-385q0 -10 12 -10h549v-240h-549q-12 0 -12 -10zM223 1769l275 111l276 -115l-67 -155q-57 17 -209 86q-166 -72 -207 -82z" />
    <glyph glyph-name="Edieresis" unicode="&#xcb;" horiz-adv-x="999" 
d="M338 641v-391q0 -12 12 -12h549v-238h-799v1536h799v-240h-549q-12 0 -12 -10v-385q0 -10 12 -10h549v-240h-549q-12 0 -12 -10zM313 1638q-47 0 -79.5 33t-32.5 80t32.5 79t79.5 32q45 0 79 -33t34 -78q0 -46 -33.5 -79.5t-79.5 -33.5zM684 1638q-46 0 -79.5 33
t-33.5 80t33.5 79t79.5 32t79.5 -32.5t33.5 -78.5t-33 -79.5t-80 -33.5z" />
    <glyph glyph-name="Igrave" unicode="&#xcc;" horiz-adv-x="436" 
d="M98 1534h238v-1534h-238v1534zM63 1894l388 -161l-86 -152l-373 154q46 106 71 159z" />
    <glyph glyph-name="Iacute" unicode="&#xcd;" horiz-adv-x="436" 
d="M98 1534h238v-1534h-238v1534zM-8 1733l387 161q35 -80 72 -159l-373 -154z" />
    <glyph glyph-name="Icircumflex" unicode="&#xce;" horiz-adv-x="436" 
d="M98 1534h238v-1534h-238v1534zM-55 1769l274 111l277 -115l-68 -155q-57 17 -209 86q-166 -72 -207 -82z" />
    <glyph glyph-name="Idieresis" unicode="&#xcf;" horiz-adv-x="436" 
d="M98 1534h238v-1534h-238v1534zM35 1638q-47 0 -80 33t-33 80t33 79t80 32q45 0 78.5 -33t33.5 -78q0 -46 -33 -79.5t-79 -33.5zM406 1638q-46 0 -79.5 33t-33.5 80t33.5 79t79.5 32t79 -32.5t33 -78.5t-32.5 -79.5t-79.5 -33.5z" />
    <glyph glyph-name="Eth" unicode="&#xd0;" horiz-adv-x="1665" 
d="M322 0v625h-236v209h236v702h487q210 0 387 -104t279 -280.5t102 -383.5q0 -208 -102 -384.5t-279 -280t-387 -103.5h-487zM561 834h236v-209h-236v-375q0 -12 12 -12h236q224 0 377 153t153 377t-151 376t-375 152h-240q-12 0 -12 -10v-452z" />
    <glyph glyph-name="Ntilde" unicode="&#xd1;" horiz-adv-x="1390" 
d="M98 1534h250l290 -460t357 -568q22 -35 58 -84v1112h239v-1534h-252l-643 1024q-9 15 -29.5 42.5t-29.5 41.5q0 -19 -1 -60t-1 -63v-985h-238v1534zM381 1681l-29 162q89 94 201 94q49 0 139 -30.5t125 -30.5q53 0 95 20.5t94 61.5l30 -148q-31 -44 -81.5 -79t-108.5 -35
q-46 0 -145 32.5t-142 32.5q-50 0 -97.5 -22t-80.5 -58z" />
    <glyph glyph-name="Ograve" unicode="&#xd2;" horiz-adv-x="1748" 
d="M90 768q0 160 62 305t167 250t250 167t305 62t305.5 -62t250.5 -167t167 -250t62 -305t-62 -305t-167 -250t-250.5 -167t-305.5 -62t-305 62t-250 167t-167 250t-62 305zM328 768q0 -148 73 -274t199 -199.5t274 -73.5t273.5 73.5t198.5 199.5t73 274t-73 273.5
t-198.5 198.5t-273.5 73t-274 -73t-199 -198.5t-73 -273.5zM717 1894l387 -161l-86 -152l-373 154q35 79 72 159z" />
    <glyph glyph-name="Oacute" unicode="&#xd3;" horiz-adv-x="1748" 
d="M90 768q0 160 62 305t167 250t250 167t305 62t305.5 -62t250.5 -167t167 -250t62 -305t-62 -305t-167 -250t-250.5 -167t-305.5 -62t-305 62t-250 167t-167 250t-62 305zM328 768q0 -148 73 -274t199 -199.5t274 -73.5t273.5 73.5t198.5 199.5t73 274t-73 273.5
t-198.5 198.5t-273.5 73t-274 -73t-199 -198.5t-73 -273.5zM645 1733l387 161q34 -80 72 -159l-373 -154z" />
    <glyph glyph-name="Ocircumflex" unicode="&#xd4;" horiz-adv-x="1748" 
d="M90 768q0 160 62 305t167 250t250 167t305 62t305.5 -62t250.5 -167t167 -250t62 -305t-62 -305t-167 -250t-250.5 -167t-305.5 -62t-305 62t-250 167t-167 250t-62 305zM328 768q0 -148 73 -274t199 -199.5t274 -73.5t273.5 73.5t198.5 199.5t73 274t-73 273.5
t-198.5 198.5t-273.5 73t-274 -73t-199 -198.5t-73 -273.5zM598 1769l274 111l277 -115l-68 -155q-57 17 -209 86q-168 -73 -206 -82z" />
    <glyph glyph-name="Otilde" unicode="&#xd5;" horiz-adv-x="1748" 
d="M90 768q0 160 62 305t167 250t250 167t305 62t305.5 -62t250.5 -167t167 -250t62 -305t-62 -305t-167 -250t-250.5 -167t-305.5 -62t-305 62t-250 167t-167 250t-62 305zM328 768q0 -148 73 -274t199 -199.5t274 -73.5t273.5 73.5t198.5 199.5t73 274t-73 273.5
t-198.5 198.5t-273.5 73t-274 -73t-199 -198.5t-73 -273.5zM559 1681l-29 162q89 94 201 94q49 0 139 -30.5t125 -30.5q53 0 95 20.5t94 61.5l30 -148q-31 -44 -81.5 -79t-108.5 -35q-46 0 -145 32.5t-142 32.5q-50 0 -97.5 -22t-80.5 -58z" />
    <glyph glyph-name="Odieresis" unicode="&#xd6;" horiz-adv-x="1748" 
d="M90 768q0 160 62 305t167 250t250 167t305 62t305.5 -62t250.5 -167t167 -250t62 -305t-62 -305t-167 -250t-250.5 -167t-305.5 -62t-305 62t-250 167t-167 250t-62 305zM328 768q0 -148 73 -274t199 -199.5t274 -73.5t273.5 73.5t198.5 199.5t73 274t-73 273.5
t-198.5 198.5t-273.5 73t-274 -73t-199 -198.5t-73 -273.5zM688 1638q-47 0 -80 33t-33 80t33 79t80 32q45 0 79 -33t34 -78q0 -46 -33.5 -79.5t-79.5 -33.5zM1059 1638q-46 0 -79.5 33t-33.5 80t33.5 79t79.5 32t79 -32.5t33 -78.5t-32.5 -79.5t-79.5 -33.5z" />
    <glyph glyph-name="multiply" unicode="&#xd7;" horiz-adv-x="1103" 
d="M438 520l-293 293l127 127l293 -293l297 299l129 -127l-299 -299l295 -295l-127 -129l-295 297l-299 -299l-129 127z" />
    <glyph glyph-name="Oslash" unicode="&#xd8;" horiz-adv-x="1744" 
d="M676 -98h-131l39 135q-222 88 -359 286t-137 445q0 160 62 305t167 250t250 167t305 62q64 0 146 -14l33 104h131l-41 -139q229 -83 372.5 -284.5t143.5 -450.5q0 -160 -62 -305t-167 -250t-250.5 -167t-305.5 -62q-79 0 -167 16zM872 221q148 0 273.5 73.5t198.5 199.5
t73 274q0 170 -95 307t-249 199l-301 -1043q52 -10 100 -10zM326 768q0 -164 90 -299t235 -201l301 1039q-41 6 -80 6q-148 0 -274 -73t-199 -198.5t-73 -273.5z" />
    <glyph glyph-name="Ugrave" unicode="&#xd9;" horiz-adv-x="1155" 
d="M94 436v1098h240v-1067q0 -102 73.5 -172t172.5 -70t169 68t70 164v1077h240v-1100q0 -125 -67 -228.5t-177 -161.5t-235 -58q-128 0 -239.5 58.5t-179 162.5t-67.5 229zM418 1894l387 -161l-86 -152l-373 154q34 79 72 159z" />
    <glyph glyph-name="Uacute" unicode="&#xda;" horiz-adv-x="1155" 
d="M94 436v1098h240v-1067q0 -102 73.5 -172t172.5 -70t169 68t70 164v1077h240v-1100q0 -125 -67 -228.5t-177 -161.5t-235 -58q-128 0 -239.5 58.5t-179 162.5t-67.5 229zM346 1733l387 161q35 -80 72 -159l-373 -154z" />
    <glyph glyph-name="Ucircumflex" unicode="&#xdb;" horiz-adv-x="1155" 
d="M94 436v1098h240v-1067q0 -102 73.5 -172t172.5 -70t169 68t70 164v1077h240v-1100q0 -125 -67 -228.5t-177 -161.5t-235 -58q-128 0 -239.5 58.5t-179 162.5t-67.5 229zM301 1769l274 111l277 -115l-68 -155q-57 17 -209 86q-168 -73 -206 -82z" />
    <glyph glyph-name="Udieresis" unicode="&#xdc;" horiz-adv-x="1155" 
d="M94 436v1098h240v-1067q0 -102 73.5 -172t172.5 -70t169 68t70 164v1077h240v-1100q0 -125 -67 -228.5t-177 -161.5t-235 -58q-128 0 -239.5 58.5t-179 162.5t-67.5 229zM391 1638q-47 0 -79.5 33t-32.5 80t32.5 79t79.5 32q45 0 79 -33t34 -78q0 -46 -33.5 -79.5
t-79.5 -33.5zM762 1638q-46 0 -79.5 33t-33.5 80t33.5 79t79.5 32t79 -32.5t33 -78.5t-32.5 -79.5t-79.5 -33.5z" />
    <glyph glyph-name="Yacute" unicode="&#xdd;" horiz-adv-x="1142" 
d="M25 1536h262l278 -664q3 -6 6 -6q6 0 9 6l276 662h260l-424 -981v-553h-239v553zM342 1733l387 161q35 -80 72 -159l-373 -154z" />
    <glyph glyph-name="Thorn" unicode="&#xde;" horiz-adv-x="1366" 
d="M336 1001v-432q0 -10 14 -10h127q54 0 96.5 16t67.5 40.5t41.5 56.5t22.5 61.5t6 59.5q0 38 -11 73.5t-35 71t-72.5 57t-115.5 21.5h-127q-14 0 -14 -15zM96 0v1536h240v-285q34 0 96 1t72 1q195 0 320.5 -131.5t125.5 -328.5q0 -129 -56 -236.5t-159 -171t-231 -63.5
h-156q-12 0 -12 -13v-309h-240z" />
    <glyph glyph-name="germandbls" unicode="&#xdf;" horiz-adv-x="1101" 
d="M461 680v225q2 0 18.5 1t18.5 1q99 16 143.5 75t44.5 130q0 72 -49.5 129t-134.5 57h-8q-61 0 -109.5 -60t-48.5 -159v-1079h-240v1081q0 198 107.5 326.5t277.5 128.5h21q190 0 304 -120.5t114 -297.5q0 -103 -27 -165t-78 -124q95 -51 149 -157.5t54 -229.5
q0 -194 -135 -318t-334 -124h-133v238h137q54 0 95.5 15t65.5 37.5t39 53.5t20 58.5t5 56.5q0 97 -79 159t-193 62h-45z" />
    <glyph glyph-name="agrave" unicode="&#xe0;" horiz-adv-x="1196" 
d="M285 512q0 -128 87.5 -215.5t215.5 -87.5t215.5 87.5t87.5 215.5t-87.5 215.5t-215.5 87.5t-215.5 -87.5t-87.5 -215.5zM903 1024h213v-1024h-213v88q-138 -104 -315 -104q-143 0 -265 71t-193 192.5t-71 264.5t71 264.5t193 192.5t265 71q174 0 315 -106v90zM438 1485
l387 -162l-86 -152l-372 154q51 119 71 160z" />
    <glyph glyph-name="aacute" unicode="&#xe1;" horiz-adv-x="1196" 
d="M285 512q0 -128 87.5 -215.5t215.5 -87.5t215.5 87.5t87.5 215.5t-87.5 215.5t-215.5 87.5t-215.5 -87.5t-87.5 -215.5zM903 1024h213v-1024h-213v88q-138 -104 -315 -104q-143 0 -265 71t-193 192.5t-71 264.5t71 264.5t193 192.5t265 71q174 0 315 -106v90zM367 1323
l387 162q51 -119 71 -160l-372 -154z" />
    <glyph glyph-name="acircumflex" unicode="&#xe2;" horiz-adv-x="1196" 
d="M285 512q0 -128 87.5 -215.5t215.5 -87.5t215.5 87.5t87.5 215.5t-87.5 215.5t-215.5 87.5t-215.5 -87.5t-87.5 -215.5zM903 1024h213v-1024h-213v88q-138 -104 -315 -104q-143 0 -265 71t-193 192.5t-71 264.5t71 264.5t193 192.5t265 71q174 0 315 -106v90zM322 1360
l274 110l276 -114l-67 -156q-57 17 -209 86q-166 -72 -207 -82z" />
    <glyph glyph-name="atilde" unicode="&#xe3;" horiz-adv-x="1196" 
d="M285 512q0 -128 87.5 -215.5t215.5 -87.5t215.5 87.5t87.5 215.5t-87.5 215.5t-215.5 87.5t-215.5 -87.5t-87.5 -215.5zM903 1024h213v-1024h-213v88q-138 -104 -315 -104q-143 0 -265 71t-193 192.5t-71 264.5t71 264.5t193 192.5t265 71q174 0 315 -106v90zM283 1272
l-29 162q89 94 201 94q49 0 139 -31t125 -31q53 0 94.5 20.5t93.5 61.5l31 -147q-31 -44 -81.5 -79.5t-108.5 -35.5q-46 0 -144.5 33t-142.5 33q-50 0 -97.5 -22t-80.5 -58z" />
    <glyph glyph-name="adieresis" unicode="&#xe4;" horiz-adv-x="1196" 
d="M285 512q0 -128 87.5 -215.5t215.5 -87.5t215.5 87.5t87.5 215.5t-87.5 215.5t-215.5 87.5t-215.5 -87.5t-87.5 -215.5zM903 1024h213v-1024h-213v88q-138 -104 -315 -104q-143 0 -265 71t-193 192.5t-71 264.5t71 264.5t193 192.5t265 71q174 0 315 -106v90zM412 1229
q-47 0 -80 32.5t-33 79.5t33 79t80 32q45 0 78.5 -33t33.5 -78q0 -46 -33 -79t-79 -33zM782 1229q-46 0 -79 32.5t-33 79.5t33 79t79 32t79.5 -32.5t33.5 -78.5t-33 -79t-80 -33z" />
    <glyph glyph-name="aring" unicode="&#xe5;" horiz-adv-x="1196" 
d="M285 512q0 -128 87.5 -215.5t215.5 -87.5t215.5 87.5t87.5 215.5t-87.5 215.5t-215.5 87.5t-215.5 -87.5t-87.5 -215.5zM903 1024h213v-1024h-213v88q-138 -104 -315 -104q-143 0 -265 71t-193 192.5t-71 264.5t71 264.5t193 192.5t265 71q174 0 315 -106v90zM596 1163
q-61 0 -102 41t-41 103q0 61 41.5 102t101.5 41q61 0 103 -41.5t42 -101.5q0 -61 -41.5 -102.5t-103.5 -41.5zM596 1217q37 0 63.5 26t26.5 64q0 37 -26.5 62.5t-63.5 25.5q-38 0 -63 -25.5t-25 -62.5q0 -38 25 -64t63 -26z" />
    <glyph glyph-name="ae" unicode="&#xe6;" horiz-adv-x="1943" 
d="M1440 199q151 0 295 84l92 -170q-179 -129 -400 -129q-176 0 -311 96v-80h-215v88q-135 -104 -313 -104q-143 0 -265 71t-193 192.5t-71 264.5t71 264.5t193 192.5t265 71q172 0 313 -106v90h215v-76q129 90 293 90q144 0 251.5 -66.5t162.5 -179t55 -253.5
q0 -35 -4 -109h-729q-6 0 -6 -6q23 -102 105 -163.5t196 -61.5zM285 512q0 -128 87.5 -215.5t215.5 -87.5t215.5 87.5t87.5 215.5t-87.5 215.5t-215.5 87.5t-215.5 -87.5t-87.5 -215.5zM1401 829q-100 0 -181 -71.5t-81 -147.5q0 -4 8 -4h489l9 2q0 51 -27 100.5t-84.5 85
t-132.5 35.5z" />
    <glyph glyph-name="ccedilla" unicode="&#xe7;" horiz-adv-x="1132" 
d="M600 211q86 0 153 40t109 114l205 -91q-60 -127 -177 -204t-263 -84l-68 -90q5 0 22 3t33 3q68 0 111 -42t43 -114q0 -63 -37 -108t-86.5 -64.5t-103.5 -19.5q-45 0 -95.5 19t-85.5 50q26 77 29 86q78 -33 143 -33q32 0 55 18t23 52t-23 52t-50 18q-3 0 -17 -2t-22 -2
l-88 16l114 162q-196 26 -326 174.5t-130 349.5q0 143 70.5 264t192.5 191.5t267 70.5q127 0 241.5 -62.5t188.5 -160.5l-172 -129q-101 125 -256 125q-126 0 -213.5 -87t-87.5 -212q0 -127 87.5 -215t213.5 -88z" />
    <glyph glyph-name="egrave" unicode="&#xe8;" horiz-adv-x="1099" 
d="M604 199q151 0 295 84l92 -170q-179 -129 -399 -129q-148 0 -270 69t-191.5 191t-69.5 270q0 144 66.5 264t184 190t261.5 70t251.5 -66.5t162.5 -179t55 -253.5q0 -35 -4 -109h-729q-6 0 -6 -6q23 -102 105 -163.5t196 -61.5zM565 829q-100 0 -181 -71.5t-81 -147.5
q0 -4 8 -4h490l8 2q0 51 -27 100.5t-84.5 85t-132.5 35.5zM391 1485l387 -162l-86 -152l-373 154q40 92 72 160z" />
    <glyph glyph-name="eacute" unicode="&#xe9;" horiz-adv-x="1099" 
d="M604 199q151 0 295 84l92 -170q-179 -129 -399 -129q-148 0 -270 69t-191.5 191t-69.5 270q0 144 66.5 264t184 190t261.5 70t251.5 -66.5t162.5 -179t55 -253.5q0 -35 -4 -109h-729q-6 0 -6 -6q23 -102 105 -163.5t196 -61.5zM565 829q-100 0 -181 -71.5t-81 -147.5
q0 -4 8 -4h490l8 2q0 51 -27 100.5t-84.5 85t-132.5 35.5zM319 1323l388 162q51 -119 71 -160l-372 -154z" />
    <glyph glyph-name="ecircumflex" unicode="&#xea;" horiz-adv-x="1099" 
d="M604 199q151 0 295 84l92 -170q-179 -129 -399 -129q-148 0 -270 69t-191.5 191t-69.5 270q0 144 66.5 264t184 190t261.5 70t251.5 -66.5t162.5 -179t55 -253.5q0 -35 -4 -109h-729q-6 0 -6 -6q23 -102 105 -163.5t196 -61.5zM565 829q-100 0 -181 -71.5t-81 -147.5
q0 -4 8 -4h490l8 2q0 51 -27 100.5t-84.5 85t-132.5 35.5zM272 1360l275 110l276 -114l-67 -156q-57 17 -209 86q-166 -72 -207 -82z" />
    <glyph glyph-name="edieresis" unicode="&#xeb;" horiz-adv-x="1099" 
d="M604 199q151 0 295 84l92 -170q-179 -129 -399 -129q-148 0 -270 69t-191.5 191t-69.5 270q0 144 66.5 264t184 190t261.5 70t251.5 -66.5t162.5 -179t55 -253.5q0 -35 -4 -109h-729q-6 0 -6 -6q23 -102 105 -163.5t196 -61.5zM565 829q-100 0 -181 -71.5t-81 -147.5
q0 -4 8 -4h490l8 2q0 51 -27 100.5t-84.5 85t-132.5 35.5zM365 1229q-47 0 -80 32.5t-33 79.5t33 79t80 32q45 0 78.5 -33t33.5 -78q0 -46 -33 -79t-79 -33zM735 1229q-46 0 -79 32.5t-33 79.5t33 79t79 32t79.5 -32.5t33.5 -78.5t-33 -79t-80 -33z" />
    <glyph glyph-name="igrave" unicode="&#xec;" horiz-adv-x="382" 
d="M37 1485l387 -162l-86 -152l-373 154q40 92 72 160zM86 0v1024h211v-1024h-211z" />
    <glyph glyph-name="iacute" unicode="&#xed;" horiz-adv-x="382" 
d="M-35 1323l387 162q40 -92 72 -160l-373 -154zM86 0v1024h211v-1024h-211z" />
    <glyph glyph-name="icircumflex" unicode="&#xee;" horiz-adv-x="382" 
d="M86 0v1024h211v-1024h-211zM-82 1360l275 110l276 -114l-68 -156q-54 16 -208 86q-166 -72 -207 -82z" />
    <glyph glyph-name="idieresis" unicode="&#xef;" horiz-adv-x="382" 
d="M8 1229q-47 0 -79.5 32.5t-32.5 79.5t32.5 79t79.5 32q45 0 79 -33t34 -78q0 -46 -33.5 -79t-79.5 -33zM379 1229q-46 0 -79.5 32.5t-33.5 79.5t33.5 79t79.5 32t79.5 -32.5t33.5 -78.5t-33 -79t-80 -33zM86 0v1024h211v-1024h-211z" />
    <glyph glyph-name="eth" unicode="&#xf0;" horiz-adv-x="1239" 
d="M915 518q0 127 -84.5 212t-212.5 85q-123 0 -208.5 -86.5t-85.5 -210.5q0 -128 84.5 -212.5t209.5 -84.5q129 0 213 84t84 213zM893 1384q-22 -16 -66 -46.5t-65 -47.5q60 -97 173.5 -273.5t147.5 -230.5q72 -118 72 -268q0 -147 -71 -270t-194.5 -193.5t-271.5 -70.5
q-145 0 -268 70.5t-194.5 193.5t-71.5 270q0 114 41.5 211t112.5 163t165 105.5t199 44.5q29 0 39 -2l-72 111l-123 -86q-6 8 -118 166l129 92l-74 107q194 132 195 133l73 -101q24 18 71.5 51t53.5 37z" />
    <glyph glyph-name="ntilde" unicode="&#xf1;" horiz-adv-x="1071" 
d="M84 0v1024h213v-55q99 71 238 71q198 0 325 -121t127 -315v-604h-227v590q0 91 -66.5 158t-158.5 67q-96 0 -159.5 -53.5t-66.5 -161.5v-600h-225zM221 1272l-28 162q89 94 200 94q49 0 139 -31t125 -31q53 0 95 20.5t94 61.5l31 -147q-31 -44 -82 -79.5t-109 -35.5
q-46 0 -145 33t-142 33q-50 0 -97.5 -22t-80.5 -58z" />
    <glyph glyph-name="ograve" unicode="&#xf2;" horiz-adv-x="1189" 
d="M297 514q0 -127 87.5 -215t213.5 -88t213.5 88t87.5 215q0 125 -87.5 212t-213.5 87t-213.5 -87t-87.5 -212zM68 514q0 143 70.5 264t192.5 191.5t267 70.5q143 0 264 -70.5t191.5 -191.5t70.5 -264q0 -145 -70.5 -267t-191.5 -192.5t-264 -70.5q-145 0 -267 70.5
t-192.5 192.5t-70.5 267zM436 1485l387 -162l-86 -152l-372 154q51 119 71 160z" />
    <glyph glyph-name="oacute" unicode="&#xf3;" horiz-adv-x="1189" 
d="M297 514q0 -127 87.5 -215t213.5 -88t213.5 88t87.5 215q0 125 -87.5 212t-213.5 87t-213.5 -87t-87.5 -212zM68 514q0 143 70.5 264t192.5 191.5t267 70.5q143 0 264 -70.5t191.5 -191.5t70.5 -264q0 -145 -70.5 -267t-191.5 -192.5t-264 -70.5q-145 0 -267 70.5
t-192.5 192.5t-70.5 267zM365 1323l387 162q51 -119 71 -160l-372 -154z" />
    <glyph glyph-name="ocircumflex" unicode="&#xf4;" horiz-adv-x="1189" 
d="M297 514q0 -127 87.5 -215t213.5 -88t213.5 88t87.5 215q0 125 -87.5 212t-213.5 87t-213.5 -87t-87.5 -212zM68 514q0 143 70.5 264t192.5 191.5t267 70.5q143 0 264 -70.5t191.5 -191.5t70.5 -264q0 -145 -70.5 -267t-191.5 -192.5t-264 -70.5q-145 0 -267 70.5
t-192.5 192.5t-70.5 267zM317 1360l275 110l276 -114l-67 -156q-57 17 -209 86q-166 -72 -207 -82z" />
    <glyph glyph-name="otilde" unicode="&#xf5;" horiz-adv-x="1189" 
d="M297 514q0 -127 87.5 -215t213.5 -88t213.5 88t87.5 215q0 125 -87.5 212t-213.5 87t-213.5 -87t-87.5 -212zM68 514q0 143 70.5 264t192.5 191.5t267 70.5q143 0 264 -70.5t191.5 -191.5t70.5 -264q0 -145 -70.5 -267t-191.5 -192.5t-264 -70.5q-145 0 -267 70.5
t-192.5 192.5t-70.5 267zM281 1272l-29 162q89 94 201 94q50 0 139.5 -31t124.5 -31q53 0 94.5 20.5t93.5 61.5l31 -147q-31 -44 -82 -79.5t-109 -35.5q-47 0 -145 33t-141 33q-50 0 -97.5 -22t-80.5 -58z" />
    <glyph glyph-name="odieresis" unicode="&#xf6;" horiz-adv-x="1189" 
d="M297 514q0 -127 87.5 -215t213.5 -88t213.5 88t87.5 215q0 125 -87.5 212t-213.5 87t-213.5 -87t-87.5 -212zM68 514q0 143 70.5 264t192.5 191.5t267 70.5q143 0 264 -70.5t191.5 -191.5t70.5 -264q0 -145 -70.5 -267t-191.5 -192.5t-264 -70.5q-145 0 -267 70.5
t-192.5 192.5t-70.5 267zM408 1229q-47 0 -80 32.5t-33 79.5t33 79t80 32q45 0 78.5 -33t33.5 -78q0 -46 -33 -79t-79 -33zM778 1229q-46 0 -79 32.5t-33 79.5t33 79t79 32t79.5 -32.5t33.5 -78.5t-33 -79t-80 -33z" />
    <glyph glyph-name="divide" unicode="&#xf7;" horiz-adv-x="1171" 
d="M74 616h1022v-184h-1022v184zM459 852q0 51 37 87t88 36q50 0 86.5 -36.5t36.5 -86.5q0 -51 -36 -87t-87 -36q-52 0 -88.5 36t-36.5 87zM459 197q0 51 37 85.5t88 34.5q50 0 86.5 -35.5t36.5 -84.5q0 -51 -36 -88t-87 -37q-52 0 -88.5 36t-36.5 89z" />
    <glyph glyph-name="oslash" unicode="&#xf8;" horiz-adv-x="1185" 
d="M467 -123q-41 2 -121 2q0 7 4.5 22t5.5 21l31 103q-145 62 -233 194t-88 295q0 143 70.5 264t192.5 191.5t267 70.5q45 0 84 -8q12 43 33 109h125l-43 -140q147 -61 237 -193t90 -294q0 -145 -70.5 -267t-191.5 -192.5t-264 -70.5q-39 0 -94 10zM911 514q0 92 -48.5 168
t-127.5 115l-174 -598h35q132 0 223.5 91.5t91.5 223.5zM281 514q0 -92 45.5 -166t122.5 -115l172 594h-25q-132 0 -223.5 -91t-91.5 -222z" />
    <glyph glyph-name="ugrave" unicode="&#xf9;" horiz-adv-x="1067" 
d="M985 1022v-1022h-215v57q-92 -73 -235 -73q-199 0 -326 121.5t-127 316.5v600h225v-586q0 -92 67 -158.5t158 -66.5q97 0 161.5 53.5t64.5 159.5v598h227zM375 1485l387 -162l-86 -152l-373 154q40 92 72 160z" />
    <glyph glyph-name="uacute" unicode="&#xfa;" horiz-adv-x="1067" 
d="M985 1022v-1022h-215v57q-92 -73 -235 -73q-199 0 -326 121.5t-127 316.5v600h225v-586q0 -92 67 -158.5t158 -66.5q97 0 161.5 53.5t64.5 159.5v598h227zM303 1323l387 162q40 -92 72 -160l-373 -154z" />
    <glyph glyph-name="ucircumflex" unicode="&#xfb;" horiz-adv-x="1067" 
d="M985 1022v-1022h-215v57q-92 -73 -235 -73q-199 0 -326 121.5t-127 316.5v600h225v-586q0 -92 67 -158.5t158 -66.5q97 0 161.5 53.5t64.5 159.5v598h227zM256 1360l274 110l277 -114l-68 -156q-57 17 -209 86q-168 -73 -206 -82z" />
    <glyph glyph-name="udieresis" unicode="&#xfc;" horiz-adv-x="1067" 
d="M985 1022v-1022h-215v57q-92 -73 -235 -73q-199 0 -326 121.5t-127 316.5v600h225v-586q0 -92 67 -158.5t158 -66.5q97 0 161.5 53.5t64.5 159.5v598h227zM348 1229q-47 0 -79.5 32.5t-32.5 79.5t32.5 79t79.5 32q45 0 79 -33t34 -78q0 -46 -33.5 -79t-79.5 -33z
M719 1229q-46 0 -79.5 32.5t-33.5 79.5t33.5 79t79.5 32t79 -32.5t33 -78.5t-32.5 -79t-79.5 -33z" />
    <glyph glyph-name="yacute" unicode="&#xfd;" horiz-adv-x="935" 
d="M922 1026q-90 -262 -260 -751t-242 -697h-240l168 469q0 11 -2 19l-24 79l-308 879h244q8 -26 68.5 -223t95.5 -299l43 -127q0 -6 4 -10q0 2 2.5 6.5t3.5 7.5l43 125l166 522h238zM238 1323l387 162q51 -119 71 -160l-372 -154z" />
    <glyph glyph-name="thorn" unicode="&#xfe;" horiz-adv-x="1222" 
d="M918 512q0 127 -88 215t-216 88t-215.5 -87.5t-87.5 -215.5t87.5 -215.5t215.5 -87.5t216 88t88 215zM84 -420v1854h227v-492q132 98 303 98q143 0 265 -71t193 -192.5t71 -264.5t-71 -264t-193 -191.5t-265 -70.5q-171 0 -303 98v-504h-227z" />
    <glyph glyph-name="ydieresis" unicode="&#xff;" horiz-adv-x="935" 
d="M922 1026q-90 -262 -260 -751t-242 -697h-240l168 469q0 11 -2 19l-24 79l-308 879h244q8 -26 68.5 -223t95.5 -299l43 -127q0 -6 4 -10q0 2 2.5 6.5t3.5 7.5l43 125l166 522h238zM283 1229q-47 0 -80 32.5t-33 79.5t33 79t80 32q45 0 78.5 -33t33.5 -78q0 -46 -33 -79
t-79 -33zM653 1229q-46 0 -79 32.5t-33 79.5t33 79t79 32t79.5 -32.5t33.5 -78.5t-33 -79t-80 -33z" />
    <glyph glyph-name="dotlessi" unicode="&#x131;" horiz-adv-x="382" 
d="M86 0v1024h211v-1024h-211z" />
    <glyph glyph-name="Lslash" unicode="&#x141;" horiz-adv-x="1196" 
d="M571 238h535v-238h-780v545l-136 -133l-147 147l283 279v698h239v-461l162 160l147 -150l-309 -305v-473q0 -39 6 -69z" />
    <glyph glyph-name="lslash" unicode="&#x142;" horiz-adv-x="878" 
d="M328 834v600h227v-375l125 127l143 -146l-268 -270v-770h-227v545l-131 -133q-122 122 -146 145z" />
    <glyph glyph-name="OE" unicode="&#x152;" horiz-adv-x="2338" 
d="M1663 641v-391q0 -12 12 -12h549v-238h-799v209q-108 -106 -250.5 -165.5t-300.5 -59.5q-160 0 -305 62t-250 167t-167 250t-62 305t62 305t167 250t250 167t305 62q158 0 300.5 -59.5t250.5 -165.5v209h799v-240h-549q-12 0 -12 -10v-385q0 -10 12 -10h549v-240h-549
q-12 0 -12 -10zM328 768q0 -148 73 -274t199 -199.5t274 -73.5t273.5 73.5t198.5 199.5t73 274t-73 273.5t-198.5 198.5t-273.5 73t-274 -73t-199 -198.5t-73 -273.5z" />
    <glyph glyph-name="oe" unicode="&#x153;" horiz-adv-x="2035" 
d="M1497 199q151 0 295 84l92 -170q-179 -129 -399 -129q-143 0 -260 63t-189 174q-72 -109 -187 -173t-251 -64q-145 0 -267 70.5t-192.5 192.5t-70.5 267q0 143 70.5 264t192.5 191.5t267 70.5q134 0 250 -64t188 -173q69 108 182 171.5t248 63.5q144 0 251.5 -66.5
t162.5 -179t55 -253.5q0 -35 -4 -109h-729q-6 0 -6 -6q23 -102 105 -163.5t196 -61.5zM297 514q0 -127 87.5 -215t213.5 -88t213.5 88t87.5 215q0 125 -87.5 212t-213.5 87t-213.5 -87t-87.5 -212zM1458 829q-100 0 -181 -71.5t-81 -147.5q0 -4 8 -4h490l8 2q0 51 -27 100.5
t-84.5 85t-132.5 35.5z" />
    <glyph glyph-name="Scaron" unicode="&#x160;" horiz-adv-x="1034" 
d="M92 283q70 20 207 65q68 -129 209 -129q79 0 140 61.5t61 141.5q0 43 -15 79.5t-35.5 60.5t-57 47.5t-63 36t-69.5 30.5q-73 31 -122 56t-102 63.5t-84 80.5t-51 102.5t-20 133.5q0 190 123.5 314t310.5 124q117 0 221 -62.5t150 -168.5l-215 -105q-23 48 -69 72.5
t-95 24.5q-74 0 -130 -57t-56 -130q0 -29 5.5 -53.5t20.5 -44.5t26.5 -33t38 -29.5t41 -24t48.5 -24.5q99 -43 163.5 -77.5t120.5 -77t86 -89.5t47 -108.5t17 -140.5q0 -182 -127 -310t-305 -128h-8q-154 0 -267 86t-145 213zM514 1608l-272 108l65 158q41 -12 207 -84
q161 72 211 88l68 -158z" />
    <glyph glyph-name="scaron" unicode="&#x161;" horiz-adv-x="716" 
d="M649 279q0 -127 -86 -211t-211 -84q-96 0 -174.5 53.5t-111.5 134.5l165 107q1 -2 7.5 -10t8.5 -10.5l8 -10t9 -10.5t10 -9t11.5 -9t12 -7t14.5 -5.5t16 -3t18 -1.5q34 0 61 26t27 62q0 46 -42 86.5t-120 83.5q-43 23 -69.5 41.5t-61 52t-52 80t-17.5 104.5q0 129 84 215
t213 86q85 0 155.5 -51.5t106.5 -126.5l-162 -108q-15 23 -24.5 34.5t-29.5 22t-46 10.5q-34 0 -58 -22.5t-24 -57.5q0 -20 10 -37.5t31.5 -34t41.5 -29.5t53.5 -32.5t55.5 -34.5q37 -25 64 -50t52.5 -60.5t39.5 -82t14 -101.5zM350 1198l-272 109l65 157q41 -12 207 -84
q161 72 211 88l68 -157z" />
    <glyph glyph-name="Ydieresis" unicode="&#x178;" horiz-adv-x="1142" 
d="M25 1536h262l278 -664q3 -6 6 -6q6 0 9 6l276 662h260l-424 -981v-553h-239v553zM385 1638q-47 0 -80 33t-33 80t33 79t80 32q45 0 79 -33t34 -78q0 -46 -33.5 -79.5t-79.5 -33.5zM756 1638q-46 0 -79.5 33t-33.5 80t33.5 79t79.5 32t79 -32.5t33 -78.5t-32.5 -79.5
t-79.5 -33.5z" />
    <glyph glyph-name="Zcaron" unicode="&#x17d;" horiz-adv-x="1153" 
d="M752 1274q4 4 4 12q0 10 -21 10h-645v240h969v-180q-52 -89 -307 -505t-349 -577q-12 -21 -12 -24q0 -12 21 -12h649v-238h-971v184l313 512q171 278 349 578zM573 1608l-272 108l66 158q37 -11 206 -84q161 72 211 88l68 -158z" />
    <glyph glyph-name="zcaron" unicode="&#x17e;" horiz-adv-x="872" 
d="M489 780q5 5 11 17q-3 8 -27 8h-393v219h706v-172q-14 -22 -191.5 -284.5t-223.5 -342.5q6 -6 28 -6h394v-219h-713v166q29 41 79.5 118.5t71.5 108.5l54 76q203 310 204 311zM432 1198l-272 109l65 157q41 -12 207 -84q161 72 211 88l68 -157z" />
    <glyph glyph-name="florin" unicode="&#x192;" horiz-adv-x="954" 
d="M545 63q0 -163 -58.5 -249t-193.5 -86h-260v192h180q53 0 78.5 26t25.5 85v794h-229v199h229v139q0 127 67 200t185 73h262v-195h-182q-54 0 -79 -25.5t-25 -85.5v-106h346v-199h-346v-762z" />
    <glyph glyph-name="circumflex" unicode="&#x2c6;" horiz-adv-x="706" 
d="M78 1360l274 110l277 -114l-68 -156q-57 17 -209 86q-166 -72 -207 -82z" />
    <glyph glyph-name="caron" unicode="&#x2c7;" horiz-adv-x="704" 
d="M350 1198l-272 109l65 157q41 -12 207 -84q161 72 211 88l68 -157z" />
    <glyph glyph-name="breve" unicode="&#x2d8;" horiz-adv-x="763" 
d="M63 1450l121 102v-2q96 -96 197 -96q26 0 47 4t42 17t30.5 19.5t35.5 29t33 28.5l121 -106q-44 -64 -124.5 -110t-184.5 -46q-109 0 -193.5 46.5t-124.5 113.5z" />
    <glyph glyph-name="dotaccent" unicode="&#x2d9;" horiz-adv-x="409" 
d="M205 1303q-47 0 -80 32.5t-33 79.5t33 80t80 33q46 0 79 -33.5t33 -79.5q0 -47 -32.5 -79.5t-79.5 -32.5z" />
    <glyph glyph-name="ring" unicode="&#x2da;" horiz-adv-x="468" 
d="M233 1163q-61 0 -102 41t-41 103q0 61 41.5 102t101.5 41q61 0 103.5 -41.5t42.5 -101.5q0 -61 -42 -102.5t-104 -41.5zM233 1217q37 0 64 26t27 64q0 36 -27 62t-64 26q-38 0 -63 -25.5t-25 -62.5q0 -38 25 -64t63 -26z" />
    <glyph glyph-name="ogonek" unicode="&#x2db;" horiz-adv-x="536" 
d="M297 0h106q-64 -37 -117 -105t-53 -137q0 -42 20 -66t58 -24q61 0 119 45l19 -75q-29 -34 -80 -59t-107 -25q-79 0 -127.5 46.5t-48.5 125.5q0 87 68 164t143 110z" />
    <glyph glyph-name="tilde" unicode="&#x2dc;" horiz-adv-x="870" 
d="M121 1272l-29 162q89 94 201 94q49 0 139 -31t125 -31q53 0 94.5 20.5t93.5 61.5l31 -147q-31 -44 -81.5 -79.5t-108.5 -35.5q-46 0 -144.5 33t-142.5 33q-50 0 -97.5 -22t-80.5 -58z" />
    <glyph glyph-name="hungarumlaut" unicode="&#x2dd;" horiz-adv-x="1060" 
d="M86 1454l350 150l78 -162l-334 -137zM553 1452l350 152l78 -164l-334 -137z" />
    <glyph glyph-name="endash" unicode="&#x2013;" horiz-adv-x="1218" 
d="M96 680h1024v-184h-1024v184z" />
    <glyph glyph-name="emdash" unicode="&#x2014;" horiz-adv-x="1579" 
d="M96 680h1385v-184h-1385v184z" />
    <glyph glyph-name="quoteleft" unicode="&#x2018;" horiz-adv-x="366" 
d="M59 1530l201 6q14 -186 27 -389q-41 -2 -113 -10q-18 66 -57 197t-58 196z" />
    <glyph glyph-name="quoteright" unicode="&#x2019;" horiz-adv-x="393" 
d="M104 1536l201 -6q-18 -65 -57 -196t-58 -197q-73 8 -112 10q17 268 26 389z" />
    <glyph glyph-name="quotesinglbase" unicode="&#x201a;" horiz-adv-x="393" 
d="M104 240l201 -7q-17 -58 -56 -189.5t-59 -201.5l-112 13q15 248 26 385z" />
    <glyph glyph-name="quotedblleft" unicode="&#x201c;" horiz-adv-x="665" 
d="M70 1530l200 6q14 -186 27 -389q-41 -2 -113 -10q-19 66 -57 197t-57 196zM348 1530l203 6q13 -203 27 -389q-41 -2 -113 -10z" />
    <glyph glyph-name="quotedblright" unicode="&#x201d;" horiz-adv-x="675" 
d="M383 1536l203 -6l-117 -393q-72 8 -113 10q14 186 27 389zM104 1536l201 -6q-18 -65 -57 -196t-58 -197q-73 8 -112 10q17 268 26 389z" />
    <glyph glyph-name="quotedblbase" unicode="&#x201e;" horiz-adv-x="675" 
d="M383 240l201 -7q-17 -58 -56 -189.5t-59 -201.5l-113 13q11 184 27 385zM104 240l201 -7q-17 -58 -56 -189.5t-59 -201.5l-112 13q15 248 26 385z" />
    <glyph glyph-name="dagger" unicode="&#x2020;" horiz-adv-x="1318" 
d="M549 -379v1231h-477v211h477v471h223v-471h473v-211h-473v-1231h-223z" />
    <glyph glyph-name="daggerdbl" unicode="&#x2021;" horiz-adv-x="1323" 
d="M551 -379v832h-477v211h477v188h-477v211h477v471h223v-471h477v-211h-477v-188h477v-211h-477v-832h-223z" />
    <glyph glyph-name="bullet" unicode="&#x2022;" horiz-adv-x="610" 
d="M90 614q0 88 62.5 151.5t152.5 63.5q88 0 151.5 -63.5t63.5 -151.5q0 -90 -63.5 -152.5t-151.5 -62.5q-91 0 -153 62t-62 153z" />
    <glyph glyph-name="ellipsis" unicode="&#x2026;" horiz-adv-x="1361" 
d="M203 -8q-45 0 -76 29t-31 71t31 73.5t76 31.5q39 0 69.5 -32.5t30.5 -72.5q0 -41 -29.5 -70.5t-70.5 -29.5zM684 -8q-45 0 -75.5 29t-30.5 71t30.5 73.5t75.5 31.5q39 0 69.5 -32.5t30.5 -72.5q0 -41 -29.5 -70.5t-70.5 -29.5zM1165 -8q-45 0 -75.5 29t-30.5 71
t30.5 73.5t75.5 31.5q39 0 70 -32.5t31 -72.5q0 -41 -30 -70.5t-71 -29.5z" />
    <glyph glyph-name="perthousand" unicode="&#x2030;" horiz-adv-x="2617" 
d="M1004 369q0 154 107 261t261 107t261.5 -107t107.5 -261t-107.5 -261.5t-261.5 -107.5t-261 107.5t-107 261.5zM88 1167q0 154 107.5 261.5t261.5 107.5t261 -107.5t107 -261.5t-107 -261t-261 -107t-261.5 107t-107.5 261zM1792 369q0 154 107.5 261t261.5 107t261 -107
t107 -261t-107 -261.5t-261 -107.5t-261.5 107.5t-107.5 261.5zM573 4h-12q-19 0 -38 2t-40.5 13t-21.5 30q3 6 35 74l708 1347q24 49 64 78q60 -17 82 -65q-18 -41 -64 -127q-504 -971 -713 -1352zM262 1167q0 -82 56.5 -138t138.5 -56t138 56t56 138t-56 138.5t-138 56.5
t-138.5 -56.5t-56.5 -138.5zM1966 369q0 -82 56.5 -138.5t138.5 -56.5t138 56.5t56 138.5t-56 138t-138 56t-138.5 -56t-56.5 -138zM1178 369q0 -82 56 -138.5t138 -56.5t138.5 56.5t56.5 138.5t-56.5 138t-138.5 56t-138 -56t-56 -138z" />
    <glyph glyph-name="guilsinglleft" unicode="&#x2039;" horiz-adv-x="557" 
d="M66 555l268 416l145 -111l-198 -307l202 -307l-155 -107q-262 407 -262 416z" />
    <glyph glyph-name="guilsinglright" unicode="&#x203a;" horiz-adv-x="585" 
d="M238 971l268 -416q0 -6 -264 -416l-154 107l201 307l-199 307z" />
    <glyph glyph-name="fraction" unicode="&#x2044;" horiz-adv-x="1048" 
d="M156 -35l-105 51l838 1545l102 -62z" />
    <glyph glyph-name="Euro" unicode="&#x20ac;" horiz-adv-x="1214" 
d="M696 223q72 0 136 38.5t100 98.5l186 -145q-68 -103 -184.5 -167t-237.5 -64q-105 0 -199.5 40t-162.5 110t-108 168t-40 210h-112v188h110v125h-110v181h112q0 98 35.5 193t99 170.5t162 122t213.5 46.5q121 0 244.5 -67.5t183.5 -174.5l-192 -129q-42 64 -103.5 103
t-134.5 39q-99 0 -183 -73.5t-91 -184.5v-43h481v-183h-481v-127h481v-188h-477v-45q0 -88 84 -165t188 -77z" />
    <glyph glyph-name="trademark" unicode="&#x2122;" horiz-adv-x="1542" 
d="M1051 920q78 208 217 618h186v-846h-133v572q0 33 -4 47q-1 0 -40 -113.5t-94 -271t-83 -234.5h-101l-92 266q-90 272 -121 351q-1 -5 -1.5 -21.5t-2.5 -23.5v-572h-137v846h184q149 -421 201 -575l19 -48q2 0 2 5zM266 690v709q0 6 -6 6h-197v133h541v-133h-196
q-7 -3 -9 -8v-707h-133z" />
    <glyph glyph-name="minus" unicode="&#x2212;" horiz-adv-x="1128" 
d="M96 616h936v-184h-936v184z" />
    <glyph glyph-name="fi" unicode="&#xfb01;" horiz-adv-x="1329" 
d="M217 1016v137q0 128 76 205.5t203 77.5h182v-201h-123q-113 0 -113 -115v-104h297v-205h-297v-811h-225v811h-162v205h162zM879 0v1024h227v-1024h-227zM993 1135q-48 0 -81 32.5t-33 81.5q0 45 33.5 78t80.5 33q44 0 78.5 -34t34.5 -77q0 -47 -33.5 -80.5t-79.5 -33.5z
" />
    <glyph glyph-name="CR" horiz-adv-x="593" 
 />
    </font>
</defs>
</svg>
